<svg xmlns="http://www.w3.org/2000/svg" xmlns:xlink="http://www.w3.org/1999/xlink" contentStyleType="text/css" data-diagram-type="DESCRIPTION" height="638px" preserveAspectRatio="none" style="width:1517px;height:638px;background:#FFFFFF;" version="1.1" viewBox="0 0 1517 638" width="1517px" zoomAndPan="magnify"><?plantuml 1.2026.6?><defs/><g><g class="title" data-source-line="5"><text fill="#000000" font-family="Segoe UI" font-size="22" font-weight="700" lengthAdjust="spacing" textLength="323.4365" x="595.7817" y="38.7402">Enterprise Knowledge Platform</text></g><!--cluster Enterprise Sources--><g class="cluster" data-qualified-name="Enterprise Sources" data-source-line="30" id="ent0001"><rect fill="#FFFFFF" height="463" rx="5" ry="5" style="stroke:#404040;stroke-width:1.5;" width="137" x="12" y="62.2617"/><text fill="#000000" font-family="Segoe UI" font-size="14" font-weight="700" lengthAdjust="spacing" textLength="121.2422" x="19.8789" y="79.3691">Enterprise Sources</text></g><!--cluster Document Ingestion Pipeline--><g class="cluster" data-qualified-name="Document Ingestion Pipeline" data-source-line="50" id="ent0008"><rect fill="#FFFFFF" height="93" rx="5" ry="5" style="stroke:#404040;stroke-width:1.5;" width="942" x="177" y="247.2617"/><text fill="#000000" font-family="Segoe UI" font-size="14" font-weight="700" lengthAdjust="spacing" textLength="190.709" x="552.6455" y="264.3691">Document Ingestion Pipeline</text></g><!--cluster Vertex AI--><g class="cluster" data-qualified-name="Vertex AI" data-source-line="68" id="ent0014"><rect fill="#FFFFFF" height="93" rx="5" ry="5" style="stroke:#404040;stroke-width:1.5;" width="172" x="1171.5" y="123.2617"/><text fill="#000000" font-family="Segoe UI" font-size="14" font-weight="700" lengthAdjust="spacing" textLength="61.3799" x="1226.8101" y="140.3691">Vertex AI</text></g><!--cluster Enterprise Knowledge Platform--><g class="cluster" data-qualified-name="Enterprise Knowledge Platform" data-source-line="78" id="ent0016"><rect fill="#FFFFFF" height="267" rx="5" ry="5" style="stroke:#404040;stroke-width:1.5;" width="221" x="1147" y="240.2617"/><text fill="#000000" font-family="Segoe UI" font-size="14" font-weight="700" lengthAdjust="spacing" textLength="205.8232" x="1154.5884" y="257.3691">Enterprise Knowledge Platform</text></g><!--cluster Search Services--><g class="cluster" data-qualified-name="Search Services" data-source-line="92" id="ent0020"><rect fill="#FFFFFF" height="93" rx="5" ry="5" style="stroke:#404040;stroke-width:1.5;" width="547.5" x="955.5" y="531.2617"/><text fill="#000000" font-family="Segoe UI" font-size="14" font-weight="700" lengthAdjust="spacing" textLength="100.5498" x="1178.9751" y="548.3691">Search Services</text></g><!--entity SharePoint--><g class="entity" data-qualified-name="Enterprise Sources.SharePoint" data-source-line="32" id="ent0002"><rect fill="#FFFFFF" height="38.6211" rx="5" ry="5" style="stroke:#404040;stroke-width:1.5;" width="86.7734" x="37" y="99.7617"/><text fill="#000000" font-family="Segoe UI" font-size="14" lengthAdjust="spacing" textLength="66.7734" x="47" y="124.8691">SharePoint</text></g><!--entity GoogleDrive--><g class="entity" data-qualified-name="Enterprise Sources.GoogleDrive" data-source-line="34" id="ent0003"><rect fill="#FFFFFF" height="38.6211" rx="5" ry="5" style="stroke:#404040;stroke-width:1.5;" width="100.9033" x="30" y="173.7617"/><text fill="#000000" font-family="Segoe UI" font-size="14" lengthAdjust="spacing" textLength="80.9033" x="40" y="198.8691">Google Drive</text></g><!--entity GitHub--><g class="entity" data-qualified-name="Enterprise Sources.GitHub" data-source-line="36" id="ent0004"><rect fill="#FFFFFF" height="38.6211" rx="5" ry="5" style="stroke:#404040;stroke-width:1.5;" width="63.832" x="48.5" y="247.7617"/><text fill="#000000" font-family="Segoe UI" font-size="14" lengthAdjust="spacing" textLength="43.832" x="58.5" y="272.8691">GitHub</text></g><!--entity SAP--><g class="entity" data-qualified-name="Enterprise Sources.SAP" data-source-line="38" id="ent0005"><rect fill="#FFFFFF" height="38.6211" rx="5" ry="5" style="stroke:#404040;stroke-width:1.5;" width="44.3086" x="58.5" y="321.7617"/><text fill="#000000" font-family="Segoe UI" font-size="14" lengthAdjust="spacing" textLength="24.3086" x="68.5" y="346.8691">SAP</text></g><!--entity Salesforce--><g class="entity" data-qualified-name="Enterprise Sources.Salesforce" data-source-line="40" id="ent0006"><rect fill="#FFFFFF" height="38.6211" rx="5" ry="5" style="stroke:#404040;stroke-width:1.5;" width="82.4531" x="39.5" y="395.7617"/><text fill="#000000" font-family="Segoe UI" font-size="14" lengthAdjust="spacing" textLength="62.4531" x="49.5" y="420.8691">Salesforce</text></g><!--entity RestAPI--><g class="entity" data-qualified-name="Enterprise Sources.RestAPI" data-source-line="42" id="ent0007"><rect fill="#FFFFFF" height="38.6211" rx="5" ry="5" style="stroke:#404040;stroke-width:1.5;" width="80.6006" x="40" y="469.7617"/><text fill="#000000" font-family="Segoe UI" font-size="14" lengthAdjust="spacing" textLength="60.6006" x="50" y="494.8691">REST APIs</text></g><!--entity Ingestion--><g class="entity" data-qualified-name="Document Ingestion Pipeline.Ingestion" data-source-line="52" id="ent0009"><rect fill="#FFFFFF" height="38.6211" rx="5" ry="5" style="stroke:#404040;stroke-width:1.5;" width="124.7607" x="193" y="284.7617"/><text fill="#000000" font-family="Segoe UI" font-size="14" lengthAdjust="spacing" textLength="104.7607" x="203" y="309.8691">Ingestion Service</text></g><!--entity Parser--><g class="entity" data-qualified-name="Document Ingestion Pipeline.Parser" data-source-line="54" id="ent0010"><rect fill="#FFFFFF" height="38.6211" rx="5" ry="5" style="stroke:#404040;stroke-width:1.5;" width="126.251" x="378" y="284.7617"/><text fill="#000000" font-family="Segoe UI" font-size="14" lengthAdjust="spacing" textLength="106.251" x="388" y="309.8691">Document Parser</text></g><!--entity Chunker--><g class="entity" data-qualified-name="Document Ingestion Pipeline.Chunker" data-source-line="56" id="ent0011"><rect fill="#FFFFFF" height="38.6211" rx="5" ry="5" style="stroke:#404040;stroke-width:1.5;" width="124.6719" x="564" y="284.7617"/><text fill="#000000" font-family="Segoe UI" font-size="14" lengthAdjust="spacing" textLength="104.6719" x="574" y="309.8691">Chunking Engine</text></g><!--entity Metadata--><g class="entity" data-qualified-name="Document Ingestion Pipeline.Metadata" data-source-line="58" id="ent0012"><rect fill="#FFFFFF" height="38.6211" rx="5" ry="5" style="stroke:#404040;stroke-width:1.5;" width="137.3525" x="749" y="284.7617"/><text fill="#000000" font-family="Segoe UI" font-size="14" lengthAdjust="spacing" textLength="117.3525" x="759" y="309.8691">Metadata Extractor</text></g><!--entity Embedder--><g class="entity" data-qualified-name="Document Ingestion Pipeline.Embedder" data-source-line="60" id="ent0013"><rect fill="#FFFFFF" height="38.6211" rx="5" ry="5" style="stroke:#404040;stroke-width:1.5;" width="156.5479" x="946" y="284.7617"/><text fill="#000000" font-family="Segoe UI" font-size="14" lengthAdjust="spacing" textLength="136.5479" x="956" y="309.8691">Embedding Generator</text></g><!--entity Embeddings--><g class="entity" data-qualified-name="Vertex AI.Embeddings" data-source-line="70" id="ent0015"><rect fill="#FFFFFF" height="38.6211" rx="5" ry="5" style="stroke:#404040;stroke-width:1.5;" width="140.2441" x="1187.5" y="160.7617"/><text fill="#000000" font-family="Segoe UI" font-size="14" lengthAdjust="spacing" textLength="120.2441" x="1197.5" y="185.8691">Embedding Models</text></g><!--entity GCS--><g class="entity" data-qualified-name="Enterprise Knowledge Platform.GCS" data-source-line="80" id="ent0017"><path d="M1179,453.2617 C1179,443.2617 1257.5029,443.2617 1257.5029,443.2617 C1257.5029,443.2617 1336.0059,443.2617 1336.0059,453.2617 L1336.0059,480.8828 C1336.0059,490.8828 1257.5029,490.8828 1257.5029,490.8828 C1257.5029,490.8828 1179,490.8828 1179,480.8828 L1179,453.2617" fill="#FFFFFF" style="stroke:#000000;stroke-width:1;"/><path d="M1179,453.2617 C1179,463.2617 1257.5029,463.2617 1257.5029,463.2617 C1257.5029,463.2617 1336.0059,463.2617 1336.0059,453.2617" fill="none" style="stroke:#000000;stroke-width:1;"/><text fill="#000000" font-family="Segoe UI" font-size="14" lengthAdjust="spacing" textLength="137.0059" x="1189" y="482.3691">Google Cloud Storage</text></g><!--entity Qdrant--><g class="entity" data-qualified-name="Enterprise Knowledge Platform.Qdrant" data-source-line="82" id="ent0018"><path d="M1173,287.2617 C1173,277.2617 1257.4229,277.2617 1257.4229,277.2617 C1257.4229,277.2617 1341.8457,277.2617 1341.8457,287.2617 L1341.8457,314.8828 C1341.8457,324.8828 1257.4229,324.8828 1257.4229,324.8828 C1257.4229,324.8828 1173,324.8828 1173,314.8828 L1173,287.2617" fill="#FFFFFF" style="stroke:#000000;stroke-width:1;"/><path d="M1173,287.2617 C1173,297.2617 1257.4229,297.2617 1257.4229,297.2617 C1257.4229,297.2617 1341.8457,297.2617 1341.8457,287.2617" fill="none" style="stroke:#000000;stroke-width:1;"/><text fill="#000000" font-family="Segoe UI" font-size="14" lengthAdjust="spacing" textLength="148.8457" x="1183" y="316.3691">Qdrant Vector Database</text></g><!--entity Firestore--><g class="entity" data-qualified-name="Enterprise Knowledge Platform.Firestore" data-source-line="84" id="ent0019"><path d="M1171,370.2617 C1171,360.2617 1257.3643,360.2617 1257.3643,360.2617 C1257.3643,360.2617 1343.7285,360.2617 1343.7285,370.2617 L1343.7285,397.8828 C1343.7285,407.8828 1257.3643,407.8828 1257.3643,407.8828 C1257.3643,407.8828 1171,407.8828 1171,397.8828 L1171,370.2617" fill="#FFFFFF" style="stroke:#000000;stroke-width:1;"/><path d="M1171,370.2617 C1171,380.2617 1257.3643,380.2617 1257.3643,380.2617 C1257.3643,380.2617 1343.7285,380.2617 1343.7285,370.2617" fill="none" style="stroke:#000000;stroke-width:1;"/><text fill="#000000" font-family="Segoe UI" font-size="14" lengthAdjust="spacing" textLength="152.7285" x="1181" y="399.3691">Firestore Metadata Store</text></g><!--entity HybridSearch--><g class="entity" data-qualified-name="Search Services.HybridSearch" data-source-line="94" id="ent0021"><rect fill="#FFFFFF" height="38.6211" rx="5" ry="5" style="stroke:#404040;stroke-width:1.5;" width="106.4199" x="971.5" y="568.7617"/><text fill="#000000" font-family="Segoe UI" font-size="14" lengthAdjust="spacing" textLength="86.4199" x="981.5" y="593.8691">Hybrid Search</text></g><!--entity MetadataFilter--><g class="entity" data-qualified-name="Search Services.MetadataFilter" data-source-line="96" id="ent0022"><rect fill="#FFFFFF" height="38.6211" rx="5" ry="5" style="stroke:#404040;stroke-width:1.5;" width="113.3789" x="1201" y="568.7617"/><text fill="#000000" font-family="Segoe UI" font-size="14" lengthAdjust="spacing" textLength="93.3789" x="1211" y="593.8691">Metadata Filter</text></g><!--entity Reranker--><g class="entity" data-qualified-name="Search Services.Reranker" data-source-line="98" id="ent0023"><rect fill="#FFFFFF" height="38.6211" rx="5" ry="5" style="stroke:#404040;stroke-width:1.5;" width="74.7559" x="1412" y="568.7617"/><text fill="#000000" font-family="Segoe UI" font-size="14" lengthAdjust="spacing" textLength="54.7559" x="1422" y="593.8691">Reranker</text></g><!--link SharePoint to Ingestion--><g class="link" data-entity-1="ent0002" data-entity-2="ent0009" data-link-type="dependency" data-source-line="106" id="lnk24"><path d="M124.33,119.2617 C176.32,119.2617 256,119.2617 256,119.2617 C256,119.2617 256,231.7417 256,279.4617" fill="none" id="SharePoint-to-Ingestion" style="stroke:#404040;stroke-width:1.5;"/><polygon fill="#404040" points="256,284.4617,260,275.4617,256,279.4617,252,275.4617,256,284.4617" style="stroke:#404040;stroke-width:1.5;stroke-linejoin:miter;stroke-miterlimit:10;"/></g><!--link GoogleDrive to Ingestion--><g class="link" data-entity-1="ent0003" data-entity-2="ent0009" data-link-type="dependency" data-source-line="108" id="lnk25"><path d="M127,213.1217 C127,242.4017 127,293.7617 127,293.7617 C127,293.7617 155.14,293.7617 187.76,293.7617" fill="none" id="GoogleDrive-to-Ingestion" style="stroke:#404040;stroke-width:1.5;"/><polygon fill="#404040" points="192.76,293.7617,183.76,289.7617,187.76,293.7617,183.76,297.7617,192.76,293.7617" style="stroke:#404040;stroke-width:1.5;stroke-linejoin:miter;stroke-miterlimit:10;"/></g><!--link GitHub to Ingestion--><g class="link" data-entity-1="ent0004" data-entity-2="ent0009" data-link-type="dependency" data-source-line="110" id="lnk26"><path d="M108,287.1317 C108,294.3517 108,300.7617 108,300.7617 C108,300.7617 147.75,300.7617 187.95,300.7617" fill="none" id="GitHub-to-Ingestion" style="stroke:#404040;stroke-width:1.5;"/><polygon fill="#404040" points="192.95,300.7617,183.95,296.7617,187.95,300.7617,183.95,304.7617,192.95,300.7617" style="stroke:#404040;stroke-width:1.5;stroke-linejoin:miter;stroke-miterlimit:10;"/></g><!--link SAP to Ingestion--><g class="link" data-entity-1="ent0005" data-entity-2="ent0009" data-link-type="dependency" data-source-line="112" id="lnk27"><path d="M81,321.3917 C81,314.1717 81,307.7617 81,307.7617 C81,307.7617 137.92,307.7617 187.99,307.7617" fill="none" id="SAP-to-Ingestion" style="stroke:#404040;stroke-width:1.5;"/><polygon fill="#404040" points="192.99,307.7617,183.99,303.7617,187.99,307.7617,183.99,311.7617,192.99,307.7617" style="stroke:#404040;stroke-width:1.5;stroke-linejoin:miter;stroke-miterlimit:10;"/></g><!--link Salesforce to Ingestion--><g class="link" data-entity-1="ent0006" data-entity-2="ent0009" data-link-type="dependency" data-source-line="114" id="lnk28"><path d="M117,395.4017 C117,366.1217 117,314.7617 117,314.7617 C117,314.7617 151.09,314.7617 187.73,314.7617" fill="none" id="Salesforce-to-Ingestion" style="stroke:#404040;stroke-width:1.5;"/><polygon fill="#404040" points="192.73,314.7617,183.73,310.7617,187.73,314.7617,183.73,318.7617,192.73,314.7617" style="stroke:#404040;stroke-width:1.5;stroke-linejoin:miter;stroke-miterlimit:10;"/></g><!--link RestAPI to Ingestion--><g class="link" data-entity-1="ent0007" data-entity-2="ent0009" data-link-type="dependency" data-source-line="116" id="lnk29"><path d="M121.2,480.5117 C173.05,480.5117 256,480.5117 256,480.5117 C256,480.5117 256,374.6817 256,328.8017" fill="none" id="RestAPI-to-Ingestion" style="stroke:#404040;stroke-width:1.5;"/><polygon fill="#404040" points="256,323.8017,252,332.8017,256,328.8017,260,332.8017,256,323.8017" style="stroke:#404040;stroke-width:1.5;stroke-linejoin:miter;stroke-miterlimit:10;"/></g><!--link Ingestion to Parser--><g class="link" data-entity-1="ent0009" data-entity-2="ent0010" data-link-type="dependency" data-source-line="118" id="lnk30"><path d="M318.04,304.2617 C337.29,304.2617 353.49,304.2617 372.78,304.2617" fill="none" id="Ingestion-to-Parser" style="stroke:#404040;stroke-width:1.5;"/><polygon fill="#404040" points="377.78,304.2617,368.78,300.2617,372.78,304.2617,368.78,308.2617,377.78,304.2617" style="stroke:#404040;stroke-width:1.5;stroke-linejoin:miter;stroke-miterlimit:10;"/></g><!--link Parser to Chunker--><g class="link" data-entity-1="ent0010" data-entity-2="ent0011" data-link-type="dependency" data-source-line="120" id="lnk31"><path d="M504.06,304.2617 C523.39,304.2617 539.64,304.2617 558.93,304.2617" fill="none" id="Parser-to-Chunker" style="stroke:#404040;stroke-width:1.5;"/><polygon fill="#404040" points="563.93,304.2617,554.93,300.2617,558.93,304.2617,554.93,308.2617,563.93,304.2617" style="stroke:#404040;stroke-width:1.5;stroke-linejoin:miter;stroke-miterlimit:10;"/></g><!--link Chunker to Metadata--><g class="link" data-entity-1="ent0011" data-entity-2="ent0012" data-link-type="dependency" data-source-line="122" id="lnk32"><path d="M689.04,304.2617 C708.19,304.2617 724.35,304.2617 743.88,304.2617" fill="none" id="Chunker-to-Metadata" style="stroke:#404040;stroke-width:1.5;"/><polygon fill="#404040" points="748.88,304.2617,739.88,300.2617,743.88,304.2617,739.88,308.2617,748.88,304.2617" style="stroke:#404040;stroke-width:1.5;stroke-linejoin:miter;stroke-miterlimit:10;"/></g><!--link Metadata to Embedder--><g class="link" data-entity-1="ent0012" data-entity-2="ent0013" data-link-type="dependency" data-source-line="124" id="lnk33"><path d="M886.14,304.2617 C905.21,304.2617 921.06,304.2617 940.66,304.2617" fill="none" id="Metadata-to-Embedder" style="stroke:#404040;stroke-width:1.5;"/><polygon fill="#404040" points="945.66,304.2617,936.66,300.2617,940.66,304.2617,936.66,308.2617,945.66,304.2617" style="stroke:#404040;stroke-width:1.5;stroke-linejoin:miter;stroke-miterlimit:10;"/></g><!--link Embedder to Embeddings--><g class="link" data-entity-1="ent0013" data-entity-2="ent0015" data-link-type="dependency" data-source-line="126" id="lnk34"><path d="M1025,284.5917 C1025,251.1417 1025,186.7617 1025,186.7617 C1025,186.7617 1113.97,186.7617 1182.43,186.7617" fill="none" id="Embedder-to-Embeddings" style="stroke:#404040;stroke-width:1.5;"/><polygon fill="#404040" points="1187.43,186.7617,1178.43,182.7617,1182.43,186.7617,1178.43,190.7617,1187.43,186.7617" style="stroke:#404040;stroke-width:1.5;stroke-linejoin:miter;stroke-miterlimit:10;"/></g><!--link Embedder to Qdrant--><g class="link" data-entity-1="ent0013" data-entity-2="ent0018" data-link-type="dependency" data-source-line="128" id="lnk35"><path d="M1103.06,297.7617 C1125.52,297.7617 1145.09,297.7617 1167.89,297.7617" fill="none" id="Embedder-to-Qdrant" style="stroke:#404040;stroke-width:1.5;"/><polygon fill="#404040" points="1172.89,297.7617,1163.89,293.7617,1167.89,297.7617,1163.89,301.7617,1172.89,297.7617" style="stroke:#404040;stroke-width:1.5;stroke-linejoin:miter;stroke-miterlimit:10;"/></g><!--link Metadata to Firestore--><g class="link" data-entity-1="ent0012" data-entity-2="ent0019" data-link-type="dependency" data-source-line="130" id="lnk36"><path d="M818,324.0917 C818,346.0117 818,378.2617 818,378.2617 C818,378.2617 1037.89,378.2617 1165.93,378.2617" fill="none" id="Metadata-to-Firestore" style="stroke:#404040;stroke-width:1.5;"/><polygon fill="#404040" points="1170.93,378.2617,1161.93,374.2617,1165.93,378.2617,1161.93,382.2617,1170.93,378.2617" style="stroke:#404040;stroke-width:1.5;stroke-linejoin:miter;stroke-miterlimit:10;"/></g><!--link Parser to GCS--><g class="link" data-entity-1="ent0010" data-entity-2="ent0017" data-link-type="dependency" data-source-line="132" id="lnk37"><path d="M441,323.8517 C441,364.9717 441,456.5117 441,456.5117 C441,456.5117 969.2,456.5117 1173.84,456.5117" fill="none" id="Parser-to-GCS" style="stroke:#404040;stroke-width:1.5;"/><polygon fill="#404040" points="1178.84,456.5117,1169.84,452.5117,1173.84,456.5117,1169.84,460.5117,1178.84,456.5117" style="stroke:#404040;stroke-width:1.5;stroke-linejoin:miter;stroke-miterlimit:10;"/></g><!--link HybridSearch to Qdrant--><g class="link" data-entity-1="ent0021" data-entity-2="ent0018" data-link-type="dependency" data-source-line="138" id="lnk38"><path d="M1077.78,576.5617 C1106.86,576.5617 1137,576.5617 1137,576.5617 C1137,576.5617 1137,310.7617 1137,310.7617 C1137,310.7617 1147.73,310.7617 1167.83,310.7617" fill="none" id="HybridSearch-to-Qdrant" style="stroke:#404040;stroke-width:1.5;"/><polygon fill="#404040" points="1172.83,310.7617,1163.83,306.7617,1167.83,310.7617,1163.83,314.7617,1172.83,310.7617" style="stroke:#404040;stroke-width:1.5;stroke-linejoin:miter;stroke-miterlimit:10;"/></g><!--link HybridSearch to Firestore--><g class="link" data-entity-1="ent0021" data-entity-2="ent0019" data-link-type="dependency" data-source-line="140" id="lnk39"><path d="M1077.56,584.3617 C1120.89,584.3617 1175,584.3617 1175,584.3617 C1175,584.3617 1175,466.6217 1175,413.4017" fill="none" id="HybridSearch-to-Firestore" style="stroke:#404040;stroke-width:1.5;"/><polygon fill="#404040" points="1175,408.4017,1171,417.4017,1175,413.4017,1179,417.4017,1175,408.4017" style="stroke:#404040;stroke-width:1.5;stroke-linejoin:miter;stroke-miterlimit:10;"/></g><!--link HybridSearch to GCS--><g class="link" data-entity-1="ent0021" data-entity-2="ent0017" data-link-type="dependency" data-source-line="142" id="lnk40"><path d="M1077.78,592.1617 C1126.16,592.1617 1190,592.1617 1190,592.1617 C1190,592.1617 1190,532.6417 1190,496.3417" fill="none" id="HybridSearch-to-GCS" style="stroke:#404040;stroke-width:1.5;"/><polygon fill="#404040" points="1190,491.3417,1186,500.3417,1190,496.3417,1194,500.3417,1190,491.3417" style="stroke:#404040;stroke-width:1.5;stroke-linejoin:miter;stroke-miterlimit:10;"/></g><!--link HybridSearch to MetadataFilter--><g class="link" data-entity-1="ent0021" data-entity-2="ent0022" data-link-type="dependency" data-source-line="144" id="lnk41"><path d="M1077.66,599.9617 C1114.46,599.9617 1158.38,599.9617 1195.91,599.9617" fill="none" id="HybridSearch-to-MetadataFilter" style="stroke:#404040;stroke-width:1.5;"/><polygon fill="#404040" points="1200.91,599.9617,1191.91,595.9617,1195.91,599.9617,1191.91,603.9617,1200.91,599.9617" style="stroke:#404040;stroke-width:1.5;stroke-linejoin:miter;stroke-miterlimit:10;"/></g><!--link MetadataFilter to Reranker--><g class="link" data-entity-1="ent0022" data-entity-2="ent0023" data-link-type="dependency" data-source-line="146" id="lnk42"><path d="M1314.07,588.2617 C1345.59,588.2617 1378.99,588.2617 1406.83,588.2617" fill="none" id="MetadataFilter-to-Reranker" style="stroke:#404040;stroke-width:1.5;"/><polygon fill="#404040" points="1411.83,588.2617,1402.83,584.2617,1406.83,588.2617,1402.83,592.2617,1411.83,588.2617" style="stroke:#404040;stroke-width:1.5;stroke-linejoin:miter;stroke-miterlimit:10;"/></g><?plantuml-src hLLDSzCm4BtxLuXmwAaCPSeHPaAQj1ccuCPjxugziJLHfCnARXeO_Zkov0_9JZdW90TRRz-yrMgrp-zq0JiWUqwPY2BDD0So5nfmZqm1cIx9JqmBK1gfPbAGc5EzaRWRKhyBUU2GvT1n8WuRJRGaoF92aumXf9LA5Aaj4tkAT4VMDDtcA4kHpIINI0u5q-35LK4pUM0Y9nlAbH_XJ80-xe58r8Nq0diZIND8zD7ii4f9HSx1Jvh1XfPSBwJGFwWfFu5S0dbQdgOax1UGgsjVODMeVfEO0Rgjlx_-MFtVfZqMBDqAK8fSVVXyYhPovu02a5pvGh4hwT_P0bANwvE_yIcYFBor3niCrQEBB__xYoxywv784bDGO_IYkh5aCjITaDzHrFQQJ9A28iII2JqXL95k6R1kfQoUDyXUmF8SODSXaUcxSkqezZLCDerTbcaSufI3CfEGEl5k6R1My-IHJEEbigILcJMpYA8_8yz-AN8ZPMUMxQ4QblES_OrConq8VI91lmaT8m5yOVKnj6Z0RMLZYWhGCjrhG9iLfTXMRZ0NkSreQ1RhyUv1qungIkQlnhfIBPrY0mVS-MuDMLQ9teAPFDgG7Lu9Z-t5Cw26L-Ecvsb1AzS_yAwIUva1LruP1bJZ2pbXykSUw64AMsNLjJLLtT3Ek2mpafXc6GKtcRF4vpraICrzUeQg--IcnYtJXNpomdoRbE51UqMijAEtmV47c00rtzDc7ivaXptH_gsuEwwHPNLgMv13771wR1QCQmXdna6XTPbfgKQlTYwtEATrBRWyZ3gZplZ9vULNttiygn-4hCNtKUFk0wXrz7wajl4-t5LM1Hf_SqyBjLvMlrYmSwssFnNS-LFpvi5kteD0S-i34UzkUzkmepIgXmybu75y__oR6XGn27Y536Asd07QlzZXsbBQE_qN?></g></svg>