<svg xmlns="http://www.w3.org/2000/svg" xmlns:xlink="http://www.w3.org/1999/xlink" contentStyleType="text/css" data-diagram-type="DESCRIPTION" height="667px" preserveAspectRatio="none" style="width:1545px;height:667px;background:#FFFFFF;" version="1.1" viewBox="0 0 1545 667" width="1545px" zoomAndPan="magnify"><?plantuml 1.2026.6?><defs/><g><g class="title" data-source-line="10"><text fill="#000000" font-family="Segoe UI" font-size="22" font-weight="700" lengthAdjust="spacing" textLength="323.4365" x="609.7817" y="38.7402">Enterprise Knowledge Platform</text></g><!--cluster Enterprise Content Sources--><g class="cluster" data-qualified-name="Enterprise Content Sources" data-source-line="36" id="ent0001"><rect fill="#FFFFFF" height="389" rx="5" ry="5" style="stroke:#404040;stroke-width:1.5;" width="194" x="12" y="62.2617"/><text fill="#000000" font-family="Segoe UI" font-size="14" font-weight="700" lengthAdjust="spacing" textLength="177.8096" x="20.0952" y="79.3691">Enterprise Content Sources</text></g><!--cluster Knowledge Ingestion--><g class="cluster" data-qualified-name="Knowledge Ingestion" data-source-line="54" id="ent0007"><rect fill="#FFFFFF" height="93" rx="5" ry="5" style="stroke:#404040;stroke-width:1.5;" width="898" x="234" y="210.2617"/><text fill="#000000" font-family="Segoe UI" font-size="14" font-weight="700" lengthAdjust="spacing" textLength="139.3643" x="613.3179" y="227.3691">Knowledge Ingestion</text></g><!--cluster Vertex AI--><g class="cluster" data-qualified-name="Vertex AI" data-source-line="72" id="ent0013"><rect fill="#FFFFFF" height="93" rx="5" ry="5" style="stroke:#404040;stroke-width:1.5;" width="172" x="1171.5" y="80.2617"/><text fill="#000000" font-family="Segoe UI" font-size="14" font-weight="700" lengthAdjust="spacing" textLength="61.3799" x="1226.8101" y="97.3691">Vertex AI</text></g><!--cluster Knowledge Platform--><g class="cluster" data-qualified-name="Knowledge Platform" data-source-line="82" id="ent0015"><rect fill="#FFFFFF" height="321" rx="5" ry="5" style="stroke:#404040;stroke-width:1.5;" width="195" x="1160" y="197.2617"/><text fill="#000000" font-family="Segoe UI" font-size="14" font-weight="700" lengthAdjust="spacing" textLength="135.4814" x="1189.7593" y="214.3691">Knowledge Platform</text></g><!--cluster Knowledge Retrieval--><g class="cluster" data-qualified-name="Knowledge Retrieval" data-source-line="96" id="ent0019"><rect fill="#FFFFFF" height="111" rx="5" ry="5" style="stroke:#404040;stroke-width:1.5;" width="746" x="785" y="542.2617"/><text fill="#000000" font-family="Segoe UI" font-size="14" font-weight="700" lengthAdjust="spacing" textLength="135.9873" x="1090.0063" y="559.3691">Knowledge Retrieval</text></g><!--entity Drive--><g class="entity" data-qualified-name="Enterprise Content Sources.Drive" data-source-line="38" id="ent0002"><rect fill="#FFFFFF" height="38.6211" rx="5" ry="5" style="stroke:#404040;stroke-width:1.5;" width="100.9033" x="58.5" y="99.7617"/><text fill="#000000" font-family="Segoe UI" font-size="14" lengthAdjust="spacing" textLength="80.9033" x="68.5" y="124.8691">Google Drive</text></g><!--entity SharePoint--><g class="entity" data-qualified-name="Enterprise Content Sources.SharePoint" data-source-line="40" id="ent0003"><rect fill="#FFFFFF" height="38.6211" rx="5" ry="5" style="stroke:#404040;stroke-width:1.5;" width="86.7734" x="65.5" y="173.7617"/><text fill="#000000" font-family="Segoe UI" font-size="14" lengthAdjust="spacing" textLength="66.7734" x="75.5" y="198.8691">SharePoint</text></g><!--entity GitHub--><g class="entity" data-qualified-name="Enterprise Content Sources.GitHub" data-source-line="42" id="ent0004"><rect fill="#FFFFFF" height="38.6211" rx="5" ry="5" style="stroke:#404040;stroke-width:1.5;" width="63.832" x="77" y="247.7617"/><text fill="#000000" font-family="Segoe UI" font-size="14" lengthAdjust="spacing" textLength="43.832" x="87" y="272.8691">GitHub</text></g><!--entity Uploads--><g class="entity" data-qualified-name="Enterprise Content Sources.Uploads" data-source-line="44" id="ent0005"><rect fill="#FFFFFF" height="38.6211" rx="5" ry="5" style="stroke:#404040;stroke-width:1.5;" width="106.3584" x="56" y="321.7617"/><text fill="#000000" font-family="Segoe UI" font-size="14" lengthAdjust="spacing" textLength="86.3584" x="66" y="346.8691">Local Uploads</text></g><!--entity Enterprise--><g class="entity" data-qualified-name="Enterprise Content Sources.Enterprise" data-source-line="46" id="ent0006"><rect fill="#FFFFFF" height="38.6211" rx="5" ry="5" style="stroke:#404040;stroke-width:1.5;" width="161.5859" x="28" y="395.7617"/><text fill="#000000" font-family="Segoe UI" font-size="14" lengthAdjust="spacing" textLength="141.5859" x="38" y="420.8691">Enterprise Applications</text></g><!--entity Document--><g class="entity" data-qualified-name="Knowledge Ingestion.Document" data-source-line="56" id="ent0008"><rect fill="#FFFFFF" height="38.6211" rx="5" ry="5" style="stroke:#404040;stroke-width:1.5;" width="131.8018" x="250" y="247.7617"/><text fill="#000000" font-family="Segoe UI" font-size="14" lengthAdjust="spacing" textLength="111.8018" x="260" y="272.8691">Document Service</text></g><!--entity Ingestion--><g class="entity" data-qualified-name="Knowledge Ingestion.Ingestion" data-source-line="58" id="ent0009"><rect fill="#FFFFFF" height="38.6211" rx="5" ry="5" style="stroke:#404040;stroke-width:1.5;" width="124.7607" x="442" y="247.7617"/><text fill="#000000" font-family="Segoe UI" font-size="14" lengthAdjust="spacing" textLength="104.7607" x="452" y="272.8691">Ingestion Service</text></g><!--entity Parser--><g class="entity" data-qualified-name="Knowledge Ingestion.Parser" data-source-line="60" id="ent0010"><rect fill="#FFFFFF" height="38.6211" rx="5" ry="5" style="stroke:#404040;stroke-width:1.5;" width="105.3057" x="627" y="247.7617"/><text fill="#000000" font-family="Segoe UI" font-size="14" lengthAdjust="spacing" textLength="85.3057" x="637" y="272.8691">Parser Service</text></g><!--entity Chunker--><g class="entity" data-qualified-name="Knowledge Ingestion.Chunker" data-source-line="62" id="ent0011"><rect fill="#FFFFFF" height="38.6211" rx="5" ry="5" style="stroke:#404040;stroke-width:1.5;" width="126.2988" x="792" y="247.7617"/><text fill="#000000" font-family="Segoe UI" font-size="14" lengthAdjust="spacing" textLength="106.2988" x="802" y="272.8691">Chunking Service</text></g><!--entity Embedding--><g class="entity" data-qualified-name="Knowledge Ingestion.Embedding" data-source-line="64" id="ent0012"><rect fill="#FFFFFF" height="38.6211" rx="5" ry="5" style="stroke:#404040;stroke-width:1.5;" width="138.084" x="978" y="247.7617"/><text fill="#000000" font-family="Segoe UI" font-size="14" lengthAdjust="spacing" textLength="118.084" x="988" y="272.8691">Embedding Service</text></g><!--entity Models--><g class="entity" data-qualified-name="Vertex AI.Models" data-source-line="74" id="ent0014"><rect fill="#FFFFFF" height="38.6211" rx="5" ry="5" style="stroke:#404040;stroke-width:1.5;" width="140.2441" x="1187.5" y="117.7617"/><text fill="#000000" font-family="Segoe UI" font-size="14" lengthAdjust="spacing" textLength="120.2441" x="1197.5" y="142.8691">Embedding Models</text></g><!--entity GCS--><g class="entity" data-qualified-name="Knowledge Platform.GCS" data-source-line="84" id="ent0016"><path d="M1176,446.2617 C1176,436.2617 1257.3945,436.2617 1257.3945,436.2617 C1257.3945,436.2617 1338.7891,436.2617 1338.7891,446.2617 L1338.7891,492.5039 C1338.7891,502.5039 1257.3945,502.5039 1257.3945,502.5039 C1257.3945,502.5039 1176,502.5039 1176,492.5039 L1176,446.2617" fill="#FFFFFF" style="stroke:#000000;stroke-width:1;"/><path d="M1176,446.2617 C1176,456.2617 1257.3945,456.2617 1257.3945,456.2617 C1257.3945,456.2617 1338.7891,456.2617 1338.7891,446.2617" fill="none" style="stroke:#000000;stroke-width:1;"/><text fill="#000000" font-family="Segoe UI" font-size="14" lengthAdjust="spacing" textLength="137.0059" x="1186" y="475.3691">Google Cloud Storage</text><text fill="#000000" font-family="Segoe UI" font-size="14" lengthAdjust="spacing" textLength="142.7891" x="1186" y="493.9902">(Document Repository)</text></g><!--entity Firestore--><g class="entity" data-qualified-name="Knowledge Platform.Firestore" data-source-line="86" id="ent0017"><path d="M1191.5,244.2617 C1191.5,234.2617 1257.7427,234.2617 1257.7427,234.2617 C1257.7427,234.2617 1323.9854,234.2617 1323.9854,244.2617 L1323.9854,290.5039 C1323.9854,300.5039 1257.7427,300.5039 1257.7427,300.5039 C1257.7427,300.5039 1191.5,300.5039 1191.5,290.5039 L1191.5,244.2617" fill="#FFFFFF" style="stroke:#000000;stroke-width:1;"/><path d="M1191.5,244.2617 C1191.5,254.2617 1257.7427,254.2617 1257.7427,254.2617 C1257.7427,254.2617 1323.9854,254.2617 1323.9854,244.2617" fill="none" style="stroke:#000000;stroke-width:1;"/><text fill="#000000" font-family="Segoe UI" font-size="14" lengthAdjust="spacing" textLength="53.4912" x="1201.5" y="273.3691">Firestore</text><text fill="#000000" font-family="Segoe UI" font-size="14" lengthAdjust="spacing" textLength="112.4854" x="1201.5" y="291.9902">Metadata Registry</text></g><!--entity Qdrant--><g class="entity" data-qualified-name="Knowledge Platform.Qdrant" data-source-line="88" id="ent0018"><path d="M1196.5,345.2617 C1196.5,335.2617 1257.2773,335.2617 1257.2773,335.2617 C1257.2773,335.2617 1318.0547,335.2617 1318.0547,345.2617 L1318.0547,391.5039 C1318.0547,401.5039 1257.2773,401.5039 1257.2773,401.5039 C1257.2773,401.5039 1196.5,401.5039 1196.5,391.5039 L1196.5,345.2617" fill="#FFFFFF" style="stroke:#000000;stroke-width:1;"/><path d="M1196.5,345.2617 C1196.5,355.2617 1257.2773,355.2617 1257.2773,355.2617 C1257.2773,355.2617 1318.0547,355.2617 1318.0547,345.2617" fill="none" style="stroke:#000000;stroke-width:1;"/><text fill="#000000" font-family="Segoe UI" font-size="14" lengthAdjust="spacing" textLength="43.4561" x="1206.5" y="374.3691">Qdrant</text><text fill="#000000" font-family="Segoe UI" font-size="14" lengthAdjust="spacing" textLength="101.5547" x="1206.5" y="392.9902">Vector Database</text></g><!--entity Search--><g class="entity" data-qualified-name="Knowledge Retrieval.Search" data-source-line="98" id="ent0020"><rect fill="#FFFFFF" height="38.6211" rx="5" ry="5" style="stroke:#404040;stroke-width:1.5;" width="108.4844" x="801" y="579.7617"/><text fill="#000000" font-family="Segoe UI" font-size="14" lengthAdjust="spacing" textLength="88.4844" x="811" y="604.8691">Search Service</text></g><!--entity Hybrid--><g class="entity" data-qualified-name="Knowledge Retrieval.Hybrid" data-source-line="100" id="ent0021"><rect fill="#FFFFFF" height="38.6211" rx="5" ry="5" style="stroke:#404040;stroke-width:1.5;" width="120.1943" x="987" y="579.7617"/><text fill="#000000" font-family="Segoe UI" font-size="14" lengthAdjust="spacing" textLength="100.1943" x="997" y="604.8691">Hybrid Retriever</text></g><!--entity Reranker--><g class="entity" data-qualified-name="Knowledge Retrieval.Reranker" data-source-line="102" id="ent0022"><rect fill="#FFFFFF" height="57.2422" rx="5" ry="5" style="stroke:#404040;stroke-width:1.5;" width="103.7266" x="1205.5" y="579.7617"/><text fill="#000000" font-family="Segoe UI" font-size="14" lengthAdjust="spacing" textLength="83.7266" x="1215.5" y="604.8691">CrossEncoder</text><text fill="#000000" font-family="Segoe UI" font-size="14" lengthAdjust="spacing" textLength="54.7559" x="1215.5" y="623.4902">Reranker</text></g><!--entity Citation--><g class="entity" data-qualified-name="Knowledge Retrieval.Citation" data-source-line="104" id="ent0023"><rect fill="#FFFFFF" height="38.6211" rx="5" ry="5" style="stroke:#404040;stroke-width:1.5;" width="115.5322" x="1399" y="588.7617"/><text fill="#000000" font-family="Segoe UI" font-size="14" lengthAdjust="spacing" textLength="95.5322" x="1409" y="613.8691">Citation Service</text></g><!--link Drive to Document--><g class="link" data-entity-1="ent0002" data-entity-2="ent0008" data-link-type="dependency" data-source-line="112" id="lnk24"><path d="M159.64,128.2617 C220.92,128.2617 316,128.2617 316,128.2617 C316,128.2617 316,204.3217 316,242.6417" fill="none" id="Drive-to-Document" style="stroke:#404040;stroke-width:1.5;"/><polygon fill="#404040" points="316,247.6417,320,238.6417,316,242.6417,312,238.6417,316,247.6417" style="stroke:#404040;stroke-width:1.5;stroke-linejoin:miter;stroke-miterlimit:10;"/></g><!--link SharePoint to Document--><g class="link" data-entity-1="ent0003" data-entity-2="ent0008" data-link-type="dependency" data-source-line="114" id="lnk25"><path d="M147,212.9717 C147,231.2217 147,255.5617 147,255.5617 C147,255.5617 197.35,255.5617 244.69,255.5617" fill="none" id="SharePoint-to-Document" style="stroke:#404040;stroke-width:1.5;"/><polygon fill="#404040" points="249.69,255.5617,240.69,251.5617,244.69,255.5617,240.69,259.5617,249.69,255.5617" style="stroke:#404040;stroke-width:1.5;stroke-linejoin:miter;stroke-miterlimit:10;"/></g><!--link GitHub to Document--><g class="link" data-entity-1="ent0004" data-entity-2="ent0008" data-link-type="dependency" data-source-line="116" id="lnk26"><path d="M141.34,263.3617 C170.23,263.3617 208.44,263.3617 244.65,263.3617" fill="none" id="GitHub-to-Document" style="stroke:#404040;stroke-width:1.5;"/><polygon fill="#404040" points="249.65,263.3617,240.65,259.3617,244.65,263.3617,240.65,267.3617,249.65,263.3617" style="stroke:#404040;stroke-width:1.5;stroke-linejoin:miter;stroke-miterlimit:10;"/></g><!--link Uploads to Document--><g class="link" data-entity-1="ent0005" data-entity-2="ent0008" data-link-type="dependency" data-source-line="118" id="lnk27"><path d="M156,321.7317 C156,300.9917 156,271.1617 156,271.1617 C156,271.1617 200.92,271.1617 245,271.1617" fill="none" id="Uploads-to-Document" style="stroke:#404040;stroke-width:1.5;"/><polygon fill="#404040" points="250,271.1617,241,267.1617,245,271.1617,241,275.1617,250,271.1617" style="stroke:#404040;stroke-width:1.5;stroke-linejoin:miter;stroke-miterlimit:10;"/></g><!--link Enterprise to Document--><g class="link" data-entity-1="ent0006" data-entity-2="ent0008" data-link-type="dependency" data-source-line="120" id="lnk28"><path d="M176,395.7317 C176,358.0417 176,278.9617 176,278.9617 C176,278.9617 208.5,278.9617 244.69,278.9617" fill="none" id="Enterprise-to-Document" style="stroke:#404040;stroke-width:1.5;"/><polygon fill="#404040" points="249.69,278.9617,240.69,274.9617,244.69,278.9617,240.69,282.9617,249.69,278.9617" style="stroke:#404040;stroke-width:1.5;stroke-linejoin:miter;stroke-miterlimit:10;"/></g><!--link Document to GCS--><g class="link" data-entity-1="ent0008" data-entity-2="ent0016" data-link-type="dependency" data-source-line="122" id="lnk29"><path d="M294,287.0017 C294,337.8217 294,469.2617 294,469.2617 C294,469.2617 938.12,469.2617 1170.77,469.2617" fill="none" id="Document-to-GCS" style="stroke:#404040;stroke-width:1.5;"/><polygon fill="#404040" points="1175.77,469.2617,1166.77,465.2617,1170.77,469.2617,1166.77,473.2617,1175.77,469.2617" style="stroke:#404040;stroke-width:1.5;stroke-linejoin:miter;stroke-miterlimit:10;"/></g><!--link Document to Firestore--><g class="link" data-entity-1="ent0008" data-entity-2="ent0017" data-link-type="dependency" data-source-line="124" id="lnk30"><path d="M338,287.0817 C338,289.5717 338,291.2617 338,291.2617 C338,291.2617 975.54,291.2617 1186.37,291.2617" fill="none" id="Document-to-Firestore" style="stroke:#404040;stroke-width:1.5;"/><polygon fill="#404040" points="1191.37,291.2617,1182.37,287.2617,1186.37,291.2617,1182.37,295.2617,1191.37,291.2617" style="stroke:#404040;stroke-width:1.5;stroke-linejoin:miter;stroke-miterlimit:10;"/></g><!--link Document to Ingestion--><g class="link" data-entity-1="ent0008" data-entity-2="ent0009" data-link-type="dependency" data-source-line="126" id="lnk31"><path d="M382.19,267.2617 C401.61,267.2617 417.77,267.2617 436.95,267.2617" fill="none" id="Document-to-Ingestion" style="stroke:#404040;stroke-width:1.5;"/><polygon fill="#404040" points="441.95,267.2617,432.95,263.2617,436.95,267.2617,432.95,271.2617,441.95,267.2617" style="stroke:#404040;stroke-width:1.5;stroke-linejoin:miter;stroke-miterlimit:10;"/></g><!--link Ingestion to Parser--><g class="link" data-entity-1="ent0009" data-entity-2="ent0010" data-link-type="dependency" data-source-line="128" id="lnk32"><path d="M567.18,267.2617 C586.7,267.2617 603.01,267.2617 621.78,267.2617" fill="none" id="Ingestion-to-Parser" style="stroke:#404040;stroke-width:1.5;"/><polygon fill="#404040" points="626.78,267.2617,617.78,263.2617,621.78,267.2617,617.78,271.2617,626.78,267.2617" style="stroke:#404040;stroke-width:1.5;stroke-linejoin:miter;stroke-miterlimit:10;"/></g><!--link Parser to Chunker--><g class="link" data-entity-1="ent0010" data-entity-2="ent0011" data-link-type="dependency" data-source-line="130" id="lnk33"><path d="M732.16,267.2617 C750.94,267.2617 767.28,267.2617 786.85,267.2617" fill="none" id="Parser-to-Chunker" style="stroke:#404040;stroke-width:1.5;"/><polygon fill="#404040" points="791.85,267.2617,782.85,263.2617,786.85,267.2617,782.85,271.2617,791.85,267.2617" style="stroke:#404040;stroke-width:1.5;stroke-linejoin:miter;stroke-miterlimit:10;"/></g><!--link Chunker to Embedding--><g class="link" data-entity-1="ent0011" data-entity-2="ent0012" data-link-type="dependency" data-source-line="132" id="lnk34"><path d="M918.13,267.2617 C937.26,267.2617 953.37,267.2617 972.87,267.2617" fill="none" id="Chunker-to-Embedding" style="stroke:#404040;stroke-width:1.5;"/><polygon fill="#404040" points="977.87,267.2617,968.87,263.2617,972.87,267.2617,968.87,271.2617,977.87,267.2617" style="stroke:#404040;stroke-width:1.5;stroke-linejoin:miter;stroke-miterlimit:10;"/></g><!--link Embedding to Models--><g class="link" data-entity-1="ent0012" data-entity-2="ent0014" data-link-type="dependency" data-source-line="134" id="lnk35"><path d="M1047,247.5317 C1047,213.5917 1047,147.7617 1047,147.7617 C1047,147.7617 1121.17,147.7617 1182.41,147.7617" fill="none" id="Embedding-to-Models" style="stroke:#404040;stroke-width:1.5;"/><polygon fill="#404040" points="1187.41,147.7617,1178.41,143.7617,1182.41,147.7617,1178.41,151.7617,1187.41,147.7617" style="stroke:#404040;stroke-width:1.5;stroke-linejoin:miter;stroke-miterlimit:10;"/></g><!--link Embedding to Qdrant--><g class="link" data-entity-1="ent0012" data-entity-2="ent0018" data-link-type="dependency" data-source-line="136" id="lnk36"><path d="M1112,286.8117 C1112,310.7117 1112,348.0117 1112,348.0117 C1112,348.0117 1151.45,348.0117 1191.22,348.0117" fill="none" id="Embedding-to-Qdrant" style="stroke:#404040;stroke-width:1.5;"/><polygon fill="#404040" points="1196.22,348.0117,1187.22,344.0117,1191.22,348.0117,1187.22,352.0117,1196.22,348.0117" style="stroke:#404040;stroke-width:1.5;stroke-linejoin:miter;stroke-miterlimit:10;"/></g><!--link Embedding to Firestore--><g class="link" data-entity-1="ent0012" data-entity-2="ent0017" data-link-type="dependency" data-source-line="138" id="lnk37"><path d="M1116.22,267.2617 C1140.42,267.2617 1162.52,267.2617 1186.46,267.2617" fill="none" id="Embedding-to-Firestore" style="stroke:#404040;stroke-width:1.5;"/><polygon fill="#404040" points="1191.46,267.2617,1182.46,263.2617,1186.46,267.2617,1182.46,271.2617,1191.46,267.2617" style="stroke:#404040;stroke-width:1.5;stroke-linejoin:miter;stroke-miterlimit:10;"/></g><!--link Search to Hybrid--><g class="link" data-entity-1="ent0020" data-entity-2="ent0021" data-link-type="dependency" data-source-line="144" id="lnk38"><path d="M909.25,599.2617 C933.42,599.2617 956.99,599.2617 981.81,599.2617" fill="none" id="Search-to-Hybrid" style="stroke:#404040;stroke-width:1.5;"/><polygon fill="#404040" points="986.81,599.2617,977.81,595.2617,981.81,599.2617,977.81,603.2617,986.81,599.2617" style="stroke:#404040;stroke-width:1.5;stroke-linejoin:miter;stroke-miterlimit:10;"/></g><!--link Hybrid to Qdrant--><g class="link" data-entity-1="ent0021" data-entity-2="ent0018" data-link-type="dependency" data-source-line="146" id="lnk39"><path d="M1067,579.6517 C1067,525.5617 1067,378.2617 1067,378.2617 C1067,378.2617 1135.72,378.2617 1191.44,378.2617" fill="none" id="Hybrid-to-Qdrant" style="stroke:#404040;stroke-width:1.5;"/><polygon fill="#404040" points="1196.44,378.2617,1187.44,374.2617,1191.44,378.2617,1187.44,382.2617,1196.44,378.2617" style="stroke:#404040;stroke-width:1.5;stroke-linejoin:miter;stroke-miterlimit:10;"/></g><!--link Hybrid to Firestore--><g class="link" data-entity-1="ent0021" data-entity-2="ent0017" data-link-type="dependency" data-source-line="148" id="lnk40"><path d="M1027,579.3517 C1027,511.8317 1027,295.7617 1027,295.7617 C1027,295.7617 1118.34,295.7617 1186.45,295.7617" fill="none" id="Hybrid-to-Firestore" style="stroke:#404040;stroke-width:1.5;"/><polygon fill="#404040" points="1191.45,295.7617,1182.45,291.7617,1186.45,295.7617,1182.45,299.7617,1191.45,295.7617" style="stroke:#404040;stroke-width:1.5;stroke-linejoin:miter;stroke-miterlimit:10;"/></g><!--link Hybrid to GCS--><g class="link" data-entity-1="ent0021" data-entity-2="ent0016" data-link-type="dependency" data-source-line="150" id="lnk41"><path d="M1107.23,592.7617 C1146.69,592.7617 1191,592.7617 1191,592.7617 C1191,592.7617 1191,543.9417 1191,507.3617" fill="none" id="Hybrid-to-GCS" style="stroke:#404040;stroke-width:1.5;"/><polygon fill="#404040" points="1191,502.3617,1187,511.3617,1191,507.3617,1195,511.3617,1191,502.3617" style="stroke:#404040;stroke-width:1.5;stroke-linejoin:miter;stroke-miterlimit:10;"/></g><!--link Hybrid to Reranker--><g class="link" data-entity-1="ent0021" data-entity-2="ent0022" data-link-type="dependency" data-source-line="152" id="lnk42"><path d="M1107.04,605.7617 C1138.03,605.7617 1170.47,605.7617 1200.25,605.7617" fill="none" id="Hybrid-to-Reranker" style="stroke:#404040;stroke-width:1.5;"/><polygon fill="#404040" points="1205.25,605.7617,1196.25,601.7617,1200.25,605.7617,1196.25,609.7617,1205.25,605.7617" style="stroke:#404040;stroke-width:1.5;stroke-linejoin:miter;stroke-miterlimit:10;"/></g><!--link Reranker to Citation--><g class="link" data-entity-1="ent0022" data-entity-2="ent0023" data-link-type="dependency" data-source-line="154" id="lnk43"><path d="M1309.66,608.2617 C1337.02,608.2617 1365.62,608.2617 1393.82,608.2617" fill="none" id="Reranker-to-Citation" style="stroke:#404040;stroke-width:1.5;"/><polygon fill="#404040" points="1398.82,608.2617,1389.82,604.2617,1393.82,608.2617,1389.82,612.2617,1398.82,608.2617" style="stroke:#404040;stroke-width:1.5;stroke-linejoin:miter;stroke-miterlimit:10;"/></g><?plantuml-src lLPDKzim4BtxLwZfWVP01phqsCxGn84C8Gbs4jePBegziJLH98-a4D9E_tjbon-IWKuFCN10VlkqqcftttBozQW_tWdocGAH2I81NOxGL4GfI2Mm8foX6SLgpSNMfTqmlgSG9s3PZtmjxvrAOGieevWmprD4KVY_cpwZld1RZy9Q8SMH84cgK4m4HBaNpvCRmZ8iy1QjSBH91D-nkCyf5sYV4WMMNQOuvdl24hJ6LDeMIXYeGmQ82vLoov1fbpY1K1tq3VCZCKies8V6iCOxgeQSgGdMuOUGS42BqSkKaFm2T7vXEmWghz-vY46Ogx-_ECj_NwVDKn9j64Y9pZzzUOaMc7SG30GwFxCFd9cO_dsSGseE-smxkXI2xr-xI65qlH-zv7I9J-P-C0j6eO_wKxsUp54uNGHzFpn-VPUrW7fMfVPrJe4f5FATY43sq6_Fgyi4zQuup_yE17c47iBIh1nAc681CqwOAWZDf-k8gElTgc2OfMCTymXJjCWenx4iIENQOTczc6MKH4KR6dvZyxm_NIHgDBdom_beEa6X7on7tIQeqOyHIxJWw33RcHdmQBSjCWVYaKHbTahGOTOk76gDEjmP5bBtcqqqaCFgfpksoMN8vXLWY-XlLn37RMQDTfIgfH_C_HzQhplCq1A4WYTzHZilJSYtF0PggjCiEmhtPZAz7_k3An_DnfVpuJIuVPFAh2PRyG0nLdY5PQCOVSftCGeL5thR0_jGbsi06PT4uuUFHWtweRrzgEUYr5QzvnOKpWrwIqBqq3qK_9fWxxgB1MRgWIrr7hHU3qf3iS7OEdhxkuKV_7nRHGX02GAFcBOhBmIi_prnEir03klwi18ahho0A7W6T7jSS2bz5kdA5Gyi0Fs8cv9TVRXyel0paQd0pZLvE9xU7__rYs67Ja-_MSBQpBUMmOor5bYEiHPg3JBNK7T93XUTuI1MxJkufUMDsEU6IhjBMS-XMgRBHG5QYjpeLsweXCj5gvPoKUjsNJLQDsak6oUFeMg4ialiO2t8YjH2YtnPtqsRL2kJWAed_W80?></g></svg>