<svg xmlns="http://www.w3.org/2000/svg" xmlns:xlink="http://www.w3.org/1999/xlink" contentStyleType="text/css" data-diagram-type="DESCRIPTION" height="1532px" preserveAspectRatio="none" style="width:884px;height:1532px;background:#FFFFFF;" version="1.1" viewBox="0 0 884 1532" width="884px" zoomAndPan="magnify"><?plantuml 1.2026.6?><defs/><g><g class="title" data-source-line="3"><text fill="#000000" font-family="Segoe UI" font-size="22" font-weight="700" lengthAdjust="spacing" textLength="430.9336" x="225.5332" y="38.7402">GCP Production Deployment Architecture</text></g><!--cluster Google Cloud Platform--><g class="cluster" data-qualified-name="Google Cloud Platform" data-source-line="43" id="ent0003"><rect fill="#FFFFFF" height="969" rx="5" ry="5" style="stroke:#404040;stroke-width:1.5;" width="619" x="251" y="62.2617"/><text fill="#000000" font-family="Segoe UI" font-size="14" font-weight="700" lengthAdjust="spacing" textLength="151.3066" x="484.8467" y="79.3691">Google Cloud Platform</text></g><!--cluster Cloud Run--><g class="cluster" data-qualified-name="Google Cloud Platform.Cloud Run" data-source-line="45" id="ent0004"><rect fill="#FFFFFF" height="93" rx="5" ry="5" style="stroke:#404040;stroke-width:1.5;" width="342" x="275" y="642.2617"/><text fill="#000000" font-family="Segoe UI" font-size="14" font-weight="700" lengthAdjust="spacing" textLength="68.3525" x="411.8237" y="659.3691">Cloud Run</text></g><!--cluster AI Services--><g class="cluster" data-qualified-name="Google Cloud Platform.AI Services" data-source-line="53" id="ent0007"><rect fill="#FFFFFF" height="185" rx="5" ry="5" style="stroke:#404040;stroke-width:1.5;" width="172" x="659.5" y="107.2617"/><text fill="#000000" font-family="Segoe UI" font-size="14" font-weight="700" lengthAdjust="spacing" textLength="71.1553" x="709.9224" y="124.3691">AI Services</text></g><!--cluster Storage--><g class="cluster" data-qualified-name="Google Cloud Platform.Storage" data-source-line="61" id="ent0010"><rect fill="#FFFFFF" height="184" rx="5" ry="5" style="stroke:#404040;stroke-width:1.5;" width="189" x="651" y="823.2617"/><text fill="#000000" font-family="Segoe UI" font-size="14" font-weight="700" lengthAdjust="spacing" textLength="51.2012" x="719.8994" y="840.3691">Storage</text></g><!--cluster Compute Engine VM--><g class="cluster" data-qualified-name="Google Cloud Platform.Compute Engine VM" data-source-line="69" id="ent0013"><rect fill="#FFFFFF" height="101" rx="5" ry="5" style="stroke:#404040;stroke-width:1.5;" width="201" x="645" y="698.2617"/><text fill="#000000" font-family="Segoe UI" font-size="14" font-weight="700" lengthAdjust="spacing" textLength="135.3652" x="677.8174" y="715.3691">Compute Engine VM</text></g><!--cluster Security--><g class="cluster" data-qualified-name="Google Cloud Platform.Security" data-source-line="75" id="ent0015"><rect fill="#FFFFFF" height="167" rx="5" ry="5" style="stroke:#404040;stroke-width:1.5;" width="149" x="671" y="507.2617"/><text fill="#000000" font-family="Segoe UI" font-size="14" font-weight="700" lengthAdjust="spacing" textLength="53.1426" x="718.9287" y="524.3691">Security</text></g><!--cluster Operations--><g class="cluster" data-qualified-name="Google Cloud Platform.Operations" data-source-line="83" id="ent0018"><rect fill="#FFFFFF" height="167" rx="5" ry="5" style="stroke:#404040;stroke-width:1.5;" width="162" x="664.5" y="316.2617"/><text fill="#000000" font-family="Segoe UI" font-size="14" font-weight="700" lengthAdjust="spacing" textLength="72.5908" x="709.2046" y="333.3691">Operations</text></g><!--cluster Enterprise Systems--><g class="cluster" data-qualified-name="Enterprise Systems" data-source-line="97" id="ent0021"><rect fill="#FFFFFF" height="463" rx="5" ry="5" style="stroke:#404040;stroke-width:1.5;" width="139" x="284.5" y="1055.2617"/><text fill="#000000" font-family="Segoe UI" font-size="14" font-weight="700" lengthAdjust="spacing" textLength="123.8877" x="292.0562" y="1072.3691">Enterprise Systems</text></g><!--entity React--><g class="entity" data-qualified-name="Google Cloud Platform.Cloud Run.React" data-source-line="47" id="ent0005"><rect fill="#FFFFFF" height="38.6211" rx="5" ry="5" style="stroke:#404040;stroke-width:1.5;" width="126.4971" x="291" y="679.7617"/><text fill="#000000" font-family="Segoe UI" font-size="14" lengthAdjust="spacing" textLength="106.4971" x="301" y="704.8691">React Web Portal</text></g><!--entity API--><g class="entity" data-qualified-name="Google Cloud Platform.Cloud Run.API" data-source-line="49" id="ent0006"><rect fill="#FFFFFF" height="38.6211" rx="5" ry="5" style="stroke:#404040;stroke-width:1.5;" width="121.1377" x="480" y="679.7617"/><text fill="#000000" font-family="Segoe UI" font-size="14" lengthAdjust="spacing" textLength="101.1377" x="490" y="704.8691">FastAPI Backend</text></g><!--entity Gemini--><g class="entity" data-qualified-name="Google Cloud Platform.AI Services.Gemini" data-source-line="55" id="ent0008"><rect fill="#FFFFFF" height="57.2422" rx="5" ry="5" style="stroke:#404040;stroke-width:1.5;" width="75.9658" x="707.5" y="144.7617"/><text fill="#000000" font-family="Segoe UI" font-size="14" lengthAdjust="spacing" textLength="55.9658" x="717.5" y="169.8691">Vertex AI</text><text fill="#000000" font-family="Segoe UI" font-size="14" lengthAdjust="spacing" textLength="43.6885" x="717.5" y="188.4902">Gemini</text></g><!--entity Embeddings--><g class="entity" data-qualified-name="Google Cloud Platform.AI Services.Embeddings" data-source-line="57" id="ent0009"><rect fill="#FFFFFF" height="38.6211" rx="5" ry="5" style="stroke:#404040;stroke-width:1.5;" width="140.2441" x="675.5" y="236.7617"/><text fill="#000000" font-family="Segoe UI" font-size="14" lengthAdjust="spacing" textLength="120.2441" x="685.5" y="261.8691">Embedding Models</text></g><!--entity Firestore--><g class="entity" data-qualified-name="Google Cloud Platform.Storage.Firestore" data-source-line="63" id="ent0011"><path d="M709,870.2617 C709,860.2617 745.7456,860.2617 745.7456,860.2617 C745.7456,860.2617 782.4912,860.2617 782.4912,870.2617 L782.4912,897.8828 C782.4912,907.8828 745.7456,907.8828 745.7456,907.8828 C745.7456,907.8828 709,907.8828 709,897.8828 L709,870.2617" fill="#FFFFFF" style="stroke:#000000;stroke-width:1;"/><path d="M709,870.2617 C709,880.2617 745.7456,880.2617 745.7456,880.2617 C745.7456,880.2617 782.4912,880.2617 782.4912,870.2617" fill="none" style="stroke:#000000;stroke-width:1;"/><text fill="#000000" font-family="Segoe UI" font-size="14" lengthAdjust="spacing" textLength="53.4912" x="719" y="899.3691">Firestore</text></g><!--entity GCS--><g class="entity" data-qualified-name="Google Cloud Platform.Storage.GCS" data-source-line="65" id="ent0012"><path d="M667,953.2617 C667,943.2617 745.5029,943.2617 745.5029,943.2617 C745.5029,943.2617 824.0059,943.2617 824.0059,953.2617 L824.0059,980.8828 C824.0059,990.8828 745.5029,990.8828 745.5029,990.8828 C745.5029,990.8828 667,990.8828 667,980.8828 L667,953.2617" fill="#FFFFFF" style="stroke:#000000;stroke-width:1;"/><path d="M667,953.2617 C667,963.2617 745.5029,963.2617 745.5029,963.2617 C745.5029,963.2617 824.0059,963.2617 824.0059,953.2617" fill="none" style="stroke:#000000;stroke-width:1;"/><text fill="#000000" font-family="Segoe UI" font-size="14" lengthAdjust="spacing" textLength="137.0059" x="677" y="982.3691">Google Cloud Storage</text></g><!--entity Qdrant--><g class="entity" data-qualified-name="Google Cloud Platform.Compute Engine VM.Qdrant" data-source-line="71" id="ent0014"><path d="M661,745.2617 C661,735.2617 745.4229,735.2617 745.4229,735.2617 C745.4229,735.2617 829.8457,735.2617 829.8457,745.2617 L829.8457,772.8828 C829.8457,782.8828 745.4229,782.8828 745.4229,782.8828 C745.4229,782.8828 661,782.8828 661,772.8828 L661,745.2617" fill="#FFFFFF" style="stroke:#000000;stroke-width:1;"/><path d="M661,745.2617 C661,755.2617 745.4229,755.2617 745.4229,755.2617 C745.4229,755.2617 829.8457,755.2617 829.8457,745.2617" fill="none" style="stroke:#000000;stroke-width:1;"/><text fill="#000000" font-family="Segoe UI" font-size="14" lengthAdjust="spacing" textLength="148.8457" x="671" y="774.3691">Qdrant Vector Database</text></g><!--entity SecretManager--><g class="entity" data-qualified-name="Google Cloud Platform.Security.SecretManager" data-source-line="77" id="ent0016"><rect fill="#FFFFFF" height="38.6211" rx="5" ry="5" style="stroke:#404040;stroke-width:1.5;" width="117.166" x="687" y="544.7617"/><text fill="#000000" font-family="Segoe UI" font-size="14" lengthAdjust="spacing" textLength="97.166" x="697" y="569.8691">Secret Manager</text></g><!--entity CloudIAM--><g class="entity" data-qualified-name="Google Cloud Platform.Security.CloudIAM" data-source-line="79" id="ent0017"><rect fill="#FFFFFF" height="38.6211" rx="5" ry="5" style="stroke:#404040;stroke-width:1.5;" width="85.5908" x="702.5" y="618.7617"/><text fill="#000000" font-family="Segoe UI" font-size="14" lengthAdjust="spacing" textLength="65.5908" x="712.5" y="643.8691">Cloud IAM</text></g><!--entity CloudLogging--><g class="entity" data-qualified-name="Google Cloud Platform.Operations.CloudLogging" data-source-line="85" id="ent0019"><rect fill="#FFFFFF" height="38.6211" rx="5" ry="5" style="stroke:#404040;stroke-width:1.5;" width="111.1025" x="690" y="353.7617"/><text fill="#000000" font-family="Segoe UI" font-size="14" lengthAdjust="spacing" textLength="91.1025" x="700" y="378.8691">Cloud Logging</text></g><!--entity CloudMonitoring--><g class="entity" data-qualified-name="Google Cloud Platform.Operations.CloudMonitoring" data-source-line="87" id="ent0020"><rect fill="#FFFFFF" height="38.6211" rx="5" ry="5" style="stroke:#404040;stroke-width:1.5;" width="129.7236" x="680.5" y="427.7617"/><text fill="#000000" font-family="Segoe UI" font-size="14" lengthAdjust="spacing" textLength="109.7236" x="690.5" y="452.8691">Cloud Monitoring</text></g><!--entity SharePoint--><g class="entity" data-qualified-name="Enterprise Systems.SharePoint" data-source-line="99" id="ent0022"><rect fill="#FFFFFF" height="38.6211" rx="5" ry="5" style="stroke:#404040;stroke-width:1.5;" width="86.7734" x="310.5" y="1314.7617"/><text fill="#000000" font-family="Segoe UI" font-size="14" lengthAdjust="spacing" textLength="66.7734" x="320.5" y="1339.8691">SharePoint</text></g><!--entity GoogleDrive--><g class="entity" data-qualified-name="Enterprise Systems.GoogleDrive" data-source-line="101" id="ent0023"><rect fill="#FFFFFF" height="38.6211" rx="5" ry="5" style="stroke:#404040;stroke-width:1.5;" width="100.9033" x="303.5" y="1388.7617"/><text fill="#000000" font-family="Segoe UI" font-size="14" lengthAdjust="spacing" textLength="80.9033" x="313.5" y="1413.8691">Google Drive</text></g><!--entity GitHub--><g class="entity" data-qualified-name="Enterprise Systems.GitHub" data-source-line="103" id="ent0024"><rect fill="#FFFFFF" height="38.6211" rx="5" ry="5" style="stroke:#404040;stroke-width:1.5;" width="63.832" x="322" y="1462.7617"/><text fill="#000000" font-family="Segoe UI" font-size="14" lengthAdjust="spacing" textLength="43.832" x="332" y="1487.8691">GitHub</text></g><!--entity SAP--><g class="entity" data-qualified-name="Enterprise Systems.SAP" data-source-line="105" id="ent0025"><rect fill="#FFFFFF" height="38.6211" rx="5" ry="5" style="stroke:#404040;stroke-width:1.5;" width="44.3086" x="332" y="1092.7617"/><text fill="#000000" font-family="Segoe UI" font-size="14" lengthAdjust="spacing" textLength="24.3086" x="342" y="1117.8691">SAP</text></g><!--entity Salesforce--><g class="entity" data-qualified-name="Enterprise Systems.Salesforce" data-source-line="107" id="ent0026"><rect fill="#FFFFFF" height="38.6211" rx="5" ry="5" style="stroke:#404040;stroke-width:1.5;" width="82.4531" x="313" y="1166.7617"/><text fill="#000000" font-family="Segoe UI" font-size="14" lengthAdjust="spacing" textLength="62.4531" x="323" y="1191.8691">Salesforce</text></g><!--entity RestAPI--><g class="entity" data-qualified-name="Enterprise Systems.RestAPI" data-source-line="109" id="ent0027"><rect fill="#FFFFFF" height="38.6211" rx="5" ry="5" style="stroke:#404040;stroke-width:1.5;" width="80.6006" x="313.5" y="1240.7617"/><text fill="#000000" font-family="Segoe UI" font-size="14" lengthAdjust="spacing" textLength="60.6006" x="323.5" y="1265.8691">REST APIs</text></g><!--entity BusinessUser--><g class="entity" data-qualified-name="BusinessUser" data-source-line="31" id="ent0001"><ellipse cx="52.9932" cy="668.2617" fill="#FFFFFF" rx="8" ry="8" style="stroke:#000000;stroke-width:1;"/><path d="M52.9932,676.2617 L52.9932,703.2617 M39.9932,684.2617 L65.9932,684.2617 M52.9932,703.2617 L39.9932,718.2617 M52.9932,703.2617 L65.9932,718.2617" fill="none" style="stroke:#000000;stroke-width:1;"/><text fill="#000000" font-family="Segoe UI" font-size="14" lengthAdjust="spacing" textLength="83.9863" x="11" y="735.3691">Business User</text></g><!--entity Internet--><g class="entity" data-qualified-name="Internet" data-source-line="37" id="ent0002"><path d="M163.962,683.926 C166.4961,674.9734 173.6854,673.7973 180.1396,679.6396 C182.5285,671.6183 189.3441,669.4739 195.5849,675.3626 C201.2289,669.1349 208.7938,670.2381 210.9985,678.9185 C217.1105,673.19 225.5576,674.0217 227.717,683.3169 C235.2824,688.1684 235.6391,695.5504 228.7462,701.2325 C235.0757,705.7521 236.0704,712.8276 227.7574,716.3921 C224.9157,726.7552 217.9219,727.4279 210.211,721.7025 C208.4296,729.6646 201.439,729.9233 196.372,725.3218 C189.5066,731.4256 183.2462,730.6715 180.8003,720.9682 C174.9495,727.5015 166.9862,725.9609 164.7435,717.1841 C156.0735,713.2875 154.0668,706.3887 162.0205,699.8766 C154.0651,694.6545 156.1406,687.2278 163.962,683.926" fill="#FFFFFF" style="stroke:#000000;stroke-width:1;"/><text fill="#000000" font-family="Segoe UI" font-size="14" lengthAdjust="spacing" textLength="48.5693" x="170" y="704.8691">Internet</text></g><!--link BusinessUser to Internet--><g class="link" data-entity-1="ent0001" data-entity-2="ent0002" data-link-type="dependency" data-source-line="117" id="lnk28"><path d="M95.07,699.2617 C113.97,699.2617 131.16,699.2617 149.77,699.2617" fill="none" id="BusinessUser-to-Internet" style="stroke:#404040;stroke-width:1.5;"/><polygon fill="#404040" points="154.77,699.2617,145.77,695.2617,149.77,699.2617,145.77,703.2617,154.77,699.2617" style="stroke:#404040;stroke-width:1.5;stroke-linejoin:miter;stroke-miterlimit:10;"/></g><!--link Internet to React--><g class="link" data-entity-1="ent0002" data-entity-2="ent0005" data-link-type="dependency" data-source-line="119" id="lnk29"><path d="M234.34,699.2617 C251.41,699.2617 266.76,699.2617 285.8,699.2617" fill="none" id="Internet-to-React" style="stroke:#404040;stroke-width:1.5;"/><polygon fill="#404040" points="290.8,699.2617,281.8,695.2617,285.8,699.2617,281.8,703.2617,290.8,699.2617" style="stroke:#404040;stroke-width:1.5;stroke-linejoin:miter;stroke-miterlimit:10;"/></g><!--link React to API--><g class="link" data-entity-1="ent0005" data-entity-2="ent0006" data-link-type="dependency" data-source-line="121" id="lnk30"><path d="M417.14,699.2617 C437.43,699.2617 454.85,699.2617 474.95,699.2617" fill="none" id="React-to-API" style="stroke:#404040;stroke-width:1.5;"/><polygon fill="#404040" points="479.95,699.2617,470.95,695.2617,474.95,699.2617,470.95,703.2617,479.95,699.2617" style="stroke:#404040;stroke-width:1.5;stroke-linejoin:miter;stroke-miterlimit:10;"/></g><!--link API to Gemini--><g class="link" data-entity-1="ent0006" data-entity-2="ent0008" data-link-type="dependency" data-source-line="123" id="lnk31"><path d="M505,679.6017 C505,584.1117 505,173.2617 505,173.2617 C505,173.2617 634.58,173.2617 702.39,173.2617" fill="none" id="API-to-Gemini" style="stroke:#404040;stroke-width:1.5;"/><polygon fill="#404040" points="707.39,173.2617,698.39,169.2617,702.39,173.2617,698.39,177.2617,707.39,173.2617" style="stroke:#404040;stroke-width:1.5;stroke-linejoin:miter;stroke-miterlimit:10;"/></g><!--link API to Embeddings--><g class="link" data-entity-1="ent0006" data-entity-2="ent0009" data-link-type="dependency" data-source-line="125" id="lnk32"><path d="M529,679.6517 C529,593.9217 529,256.2617 529,256.2617 C529,256.2617 606.99,256.2617 670.21,256.2617" fill="none" id="API-to-Embeddings" style="stroke:#404040;stroke-width:1.5;"/><polygon fill="#404040" points="675.21,256.2617,666.21,252.2617,670.21,256.2617,666.21,260.2617,675.21,256.2617" style="stroke:#404040;stroke-width:1.5;stroke-linejoin:miter;stroke-miterlimit:10;"/></g><!--link API to Firestore--><g class="link" data-entity-1="ent0006" data-entity-2="ent0011" data-link-type="dependency" data-source-line="127" id="lnk33"><path d="M581,719.0617 C581,766.7817 581,884.2617 581,884.2617 C581,884.2617 655.53,884.2617 703.99,884.2617" fill="none" id="API-to-Firestore" style="stroke:#404040;stroke-width:1.5;"/><polygon fill="#404040" points="708.99,884.2617,699.99,880.2617,703.99,884.2617,699.99,888.2617,708.99,884.2617" style="stroke:#404040;stroke-width:1.5;stroke-linejoin:miter;stroke-miterlimit:10;"/></g><!--link API to GCS--><g class="link" data-entity-1="ent0006" data-entity-2="ent0012" data-link-type="dependency" data-source-line="129" id="lnk34"><path d="M561,718.8017 C561,779.2717 561,959.2617 561,959.2617 C561,959.2617 611.77,959.2617 661.99,959.2617" fill="none" id="API-to-GCS" style="stroke:#404040;stroke-width:1.5;"/><polygon fill="#404040" points="666.99,959.2617,657.99,955.2617,661.99,959.2617,657.99,963.2617,666.99,959.2617" style="stroke:#404040;stroke-width:1.5;stroke-linejoin:miter;stroke-miterlimit:10;"/></g><!--link API to Qdrant--><g class="link" data-entity-1="ent0006" data-entity-2="ent0014" data-link-type="dependency" data-source-line="131" id="lnk35"><path d="M601.36,709.0117 C634.58,709.0117 669,709.0117 669,709.0117 C669,709.0117 669,717.1717 669,730.0217" fill="none" id="API-to-Qdrant" style="stroke:#404040;stroke-width:1.5;"/><polygon fill="#404040" points="669,735.0217,673,726.0217,669,730.0217,665,726.0217,669,735.0217" style="stroke:#404040;stroke-width:1.5;stroke-linejoin:miter;stroke-miterlimit:10;"/></g><!--link API to SecretManager--><g class="link" data-entity-1="ent0006" data-entity-2="ent0016" data-link-type="dependency" data-source-line="133" id="lnk36"><path d="M601.12,689.5117 C644.4,689.5117 695,689.5117 695,689.5117 C695,689.5117 695,624.0617 695,588.8317" fill="none" id="API-to-SecretManager" style="stroke:#404040;stroke-width:1.5;"/><polygon fill="#404040" points="695,583.8317,691,592.8317,695,588.8317,699,592.8317,695,583.8317" style="stroke:#404040;stroke-width:1.5;stroke-linejoin:miter;stroke-miterlimit:10;"/></g><!--link API to CloudIAM--><g class="link" data-entity-1="ent0006" data-entity-2="ent0017" data-link-type="dependency" data-source-line="135" id="lnk37"><path d="M601.05,699.2617 C661.66,699.2617 746,699.2617 746,699.2617 C746,699.2617 746,680.7317 746,662.9017" fill="none" id="API-to-CloudIAM" style="stroke:#404040;stroke-width:1.5;"/><polygon fill="#404040" points="746,657.9017,742,666.9017,746,662.9017,750,666.9017,746,657.9017" style="stroke:#404040;stroke-width:1.5;stroke-linejoin:miter;stroke-miterlimit:10;"/></g><!--link API to CloudLogging--><g class="link" data-entity-1="ent0006" data-entity-2="ent0019" data-link-type="dependency" data-source-line="137" id="lnk38"><path d="M553,679.3617 C553,608.5817 553,373.2617 553,373.2617 C553,373.2617 627.97,373.2617 684.82,373.2617" fill="none" id="API-to-CloudLogging" style="stroke:#404040;stroke-width:1.5;"/><polygon fill="#404040" points="689.82,373.2617,680.82,369.2617,684.82,373.2617,680.82,377.2617,689.82,373.2617" style="stroke:#404040;stroke-width:1.5;stroke-linejoin:miter;stroke-miterlimit:10;"/></g><!--link API to CloudMonitoring--><g class="link" data-entity-1="ent0006" data-entity-2="ent0020" data-link-type="dependency" data-source-line="139" id="lnk39"><path d="M577,679.4917 C577,620.0817 577,447.2617 577,447.2617 C577,447.2617 627.94,447.2617 675.35,447.2617" fill="none" id="API-to-CloudMonitoring" style="stroke:#404040;stroke-width:1.5;"/><polygon fill="#404040" points="680.35,447.2617,671.35,443.2617,675.35,447.2617,671.35,451.2617,680.35,447.2617" style="stroke:#404040;stroke-width:1.5;stroke-linejoin:miter;stroke-miterlimit:10;"/></g><!--link SharePoint to GCS--><g class="link" data-entity-1="ent0022" data-entity-2="ent0012" data-link-type="dependency" data-source-line="141" id="lnk40"><path d="M397.78,1334.2617 C494.93,1334.2617 720,1334.2617 720,1334.2617 C720,1334.2617 720,1077.9917 720,996.3417" fill="none" id="SharePoint-to-GCS" style="stroke:#404040;stroke-width:1.5;"/><polygon fill="#404040" points="720,991.3417,716,1000.3417,720,996.3417,724,1000.3417,720,991.3417" style="stroke:#404040;stroke-width:1.5;stroke-linejoin:miter;stroke-miterlimit:10;"/></g><!--link GoogleDrive to GCS--><g class="link" data-entity-1="ent0023" data-entity-2="ent0012" data-link-type="dependency" data-source-line="143" id="lnk41"><path d="M401,1388.5317 C401,1303.8217 401,975.2617 401,975.2617 C401,975.2617 560.22,975.2617 661.9,975.2617" fill="none" id="GoogleDrive-to-GCS" style="stroke:#404040;stroke-width:1.5;"/><polygon fill="#404040" points="666.9,975.2617,657.9,971.2617,661.9,975.2617,657.9,979.2617,666.9,975.2617" style="stroke:#404040;stroke-width:1.5;stroke-linejoin:miter;stroke-miterlimit:10;"/></g><!--link GitHub to GCS--><g class="link" data-entity-1="ent0024" data-entity-2="ent0012" data-link-type="dependency" data-source-line="145" id="lnk42"><path d="M386.11,1482.2617 C483.99,1482.2617 772,1482.2617 772,1482.2617 C772,1482.2617 772,1098.2317 772,996.4117" fill="none" id="GitHub-to-GCS" style="stroke:#404040;stroke-width:1.5;"/><polygon fill="#404040" points="772,991.4117,768,1000.4117,772,996.4117,776,1000.4117,772,991.4117" style="stroke:#404040;stroke-width:1.5;stroke-linejoin:miter;stroke-miterlimit:10;"/></g><!--link SAP to API--><g class="link" data-entity-1="ent0025" data-entity-2="ent0006" data-link-type="dependency" data-source-line="147" id="lnk43"><path d="M376.01,1112.2617 C417.02,1112.2617 501,1112.2617 501,1112.2617 C501,1112.2617 501,805.9817 501,723.9017" fill="none" id="SAP-to-API" style="stroke:#404040;stroke-width:1.5;"/><polygon fill="#404040" points="501,718.9017,497,727.9017,501,723.9017,505,727.9017,501,718.9017" style="stroke:#404040;stroke-width:1.5;stroke-linejoin:miter;stroke-miterlimit:10;"/></g><!--link Salesforce to API--><g class="link" data-entity-1="ent0026" data-entity-2="ent0006" data-link-type="dependency" data-source-line="149" id="lnk44"><path d="M395.28,1186.2617 C444.73,1186.2617 521,1186.2617 521,1186.2617 C521,1186.2617 521,815.0617 521,723.9517" fill="none" id="Salesforce-to-API" style="stroke:#404040;stroke-width:1.5;"/><polygon fill="#404040" points="521,718.9517,517,727.9517,521,723.9517,525,727.9517,521,718.9517" style="stroke:#404040;stroke-width:1.5;stroke-linejoin:miter;stroke-miterlimit:10;"/></g><!--link RestAPI to API--><g class="link" data-entity-1="ent0027" data-entity-2="ent0006" data-link-type="dependency" data-source-line="151" id="lnk45"><path d="M394.58,1260.2617 C449.57,1260.2617 541,1260.2617 541,1260.2617 C541,1260.2617 541,823.1917 541,723.9017" fill="none" id="RestAPI-to-API" style="stroke:#404040;stroke-width:1.5;"/><polygon fill="#404040" points="541,718.9017,537,727.9017,541,723.9017,545,727.9017,541,718.9017" style="stroke:#404040;stroke-width:1.5;stroke-linejoin:miter;stroke-miterlimit:10;"/></g><?plantuml-src hLLDSvim4BtpAxRk8QTsaavwR6U8JHncx9Y2dKvdUf5XZJK1YP54KhUJ_ruXyUKOvr0A5_RjQlT9sdqegZ84ZoaKXQ0ImVLX9U8zIYM8efn1a16ruo9tb0cTJmC814_As7XdM6Jya2DJuEfbL66iIe6EyqxjCKSeCaAPusIuKw0u29hk5IHKe5dkEFAHie88aiEMn8-fu2LBfZpZ0fwhP3s_t9E4FrEMmevaik_9A4DrA12uK7lUSnGw9KanKWTDl2f9M9fXlsY2Er9cwfOpTKyqtGXJZh3nXqCY-XlXwhgV86ootd2HeB3KtrzVLk_viFMUneyCfOIhZv-7ma9x3eAXWAlBVi70xkdjSaT1NR5F_KIk4Fpv717ZFCxkN7pvryUvW4taXT6O50w9bMOpkIabDOGt4iK4Y8G6gO2HBFtxjHVUU-jHHEECbmbC_6gcT6CQZeqnajzyjPelF9WkLfiP10jtVRiAbwF8rYC2apddkkzWQiWtCp-1Fuu3-cd3h3yiMUkgddQsO1AYlYZuZbi8z3YIp6pVW8FXjqGgD_3XHXT0bfXeRTlObrV5jJP5A9veZF9S-GSK2dzf5Vl9vfXJHar6-pcumCktc2ILh2nvWfaqyIqeXub4kXNrnn69X2Yo9RBQavOtgIFGv6gjeT2ZKs-pLeodqN3fAS-BKbMIdUgkXuVb6HBV4a6qA3-W6PjPZPlSrdLcPnYNWgh3kVFLVe4AbeJfS3j_5ggHmKLsUxwxDF76qiOmWLM1ziTpzefjjWLFzG6aNSOQU6F9aZEg3-DeLOUrT5v63gbNYKWG-f47qOzexIsZ_pEXlPzqT90Ay-w4-XUq9m83JfaLdiuyYQnxRoReKzrp1Z3sQJ1LT-NMXfdFqy9kO2kwmQcFP2YreCIsK6UUH8PUjAu4GDQwOTHX_9s4dXPBVtKVtVd1kEle_stWmuUlFMbllWnSIvwLmmem-wYahZ8QGMhilk0qM4yuscMLAZH6CyQD_MeE6xWRjoEa7PSZj3yENUjqjNijqWDDGtIsxe1knzrTTrXzhItm5m00?></g></svg>