<svg xmlns="http://www.w3.org/2000/svg" xmlns:xlink="http://www.w3.org/1999/xlink" contentStyleType="text/css" data-diagram-type="SEQUENCE" height="651px" preserveAspectRatio="none" style="width:1093px;height:651px;background:#FFFFFF;" version="1.1" viewBox="0 0 1093 651" width="1093px" zoomAndPan="magnify"><?plantuml 1.2026.6?><defs/><g><g class="title" data-source-line="2"><text fill="#000000" font-family="sans-serif" font-size="14" font-weight="700" lengthAdjust="spacing" textLength="204.5859" x="440.7366" y="29.5332">Document Ingestion Sequence</text></g><rect fill="none" height="170.1094" style="stroke:#000000;stroke-width:1.5;" width="692.1567" x="174.1309" y="320.3281"/><g class="participant-lifeline" data-entity-uid="part1" data-qualified-name="Source" data-source-line="12" id="part1-lifeline"><g><title>Enterprise Source</title><rect fill="#000000" fill-opacity="0.00000" height="446.9219" width="8" x="60.0273" y="121.2188"/><line style="stroke:#404040;stroke-width:0.5;stroke-dasharray:5,5;" x1="64" x2="64" y1="121.2188" y2="568.1406"/></g></g><g class="participant-lifeline" data-entity-uid="part2" data-qualified-name="Ingestion" data-source-line="14" id="part2-lifeline"><g><title>Ingestion Service</title><rect fill="#000000" fill-opacity="0.00000" height="446.9219" width="8" x="240.8271" y="121.2188"/><line style="stroke:#404040;stroke-width:0.5;stroke-dasharray:5,5;" x1="244.1309" x2="244.1309" y1="121.2188" y2="568.1406"/></g></g><g class="participant-lifeline" data-entity-uid="part3" data-qualified-name="Parser" data-source-line="16" id="part3-lifeline"><g><title>Parser</title><rect fill="#000000" fill-opacity="0.00000" height="446.9219" width="8" x="361.6479" y="121.2188"/><line style="stroke:#404040;stroke-width:0.5;stroke-dasharray:5,5;" x1="365.0308" x2="365.0308" y1="121.2188" y2="568.1406"/></g></g><g class="participant-lifeline" data-entity-uid="part4" data-qualified-name="Chunker" data-source-line="18" id="part4-lifeline"><g><title>Chunking Engine</title><rect fill="#000000" fill-opacity="0.00000" height="446.9219" width="8" x="459.582" y="121.2188"/><line style="stroke:#404040;stroke-width:0.5;stroke-dasharray:5,5;" x1="463.2651" x2="463.2651" y1="121.2188" y2="568.1406"/></g></g><g class="participant-lifeline" data-entity-uid="part5" data-qualified-name="Embedder" data-source-line="20" id="part5-lifeline"><g><title>Embedding Generator</title><rect fill="#000000" fill-opacity="0.00000" height="446.9219" width="8" x="605.7744" y="121.2188"/><line style="stroke:#404040;stroke-width:0.5;stroke-dasharray:5,5;" x1="608.8989" x2="608.8989" y1="121.2188" y2="568.1406"/></g></g><g class="participant-lifeline" data-entity-uid="part6" data-qualified-name="Vertex" data-source-line="22" id="part6-lifeline"><g><title>Vertex AI</title><rect fill="#000000" fill-opacity="0.00000" height="446.9219" width="8" x="747.5742" y="121.2188"/><line style="stroke:#404040;stroke-width:0.5;stroke-dasharray:5,5;" x1="750.6606" x2="750.6606" y1="121.2188" y2="568.1406"/></g></g><g class="participant-lifeline" data-entity-uid="part7" data-qualified-name="Qdrant" data-source-line="24" id="part7-lifeline"><g><title>Qdrant</title><rect fill="#000000" fill-opacity="0.00000" height="446.9219" width="8" x="827.8877" y="121.2188"/><line style="stroke:#404040;stroke-width:0.5;stroke-dasharray:5,5;" x1="831.4878" x2="831.4878" y1="121.2188" y2="568.1406"/></g></g><g class="participant-lifeline" data-entity-uid="part8" data-qualified-name="Firestore" data-source-line="26" id="part8-lifeline"><g><title>Firestore</title><rect fill="#000000" fill-opacity="0.00000" height="446.9219" width="8" x="892.9048" y="121.2188"/><line style="stroke:#404040;stroke-width:0.5;stroke-dasharray:5,5;" x1="896.2876" x2="896.2876" y1="121.2188" y2="568.1406"/></g></g><g class="participant-lifeline" data-entity-uid="part9" data-qualified-name="GCS" data-source-line="28" id="part9-lifeline"><g><title>Google Cloud Storage</title><rect fill="#000000" fill-opacity="0.00000" height="446.9219" width="8" x="1005.7905" y="121.2188"/><line style="stroke:#404040;stroke-width:0.5;stroke-dasharray:5,5;" x1="1009.522" x2="1009.522" y1="121.2188" y2="568.1406"/></g></g><g class="participant participant-head" data-entity-uid="part1" data-qualified-name="Source" data-source-line="12" id="part1-head"><text fill="#000000" font-family="sans-serif" font-size="14" lengthAdjust="spacing" textLength="112.0547" x="5" y="118.1426">Enterprise Source</text><ellipse cx="64.0273" cy="52.1094" fill="#E2E2F0" rx="8" ry="8" style="stroke:#181818;stroke-width:0.5;"/><path d="M64.0273,60.1094 L64.0273,87.1094 M51.0273,68.1094 L77.0273,68.1094 M64.0273,87.1094 L51.0273,102.1094 M64.0273,87.1094 L77.0273,102.1094" fill="none" style="stroke:#181818;stroke-width:0.5;"/></g><g class="participant participant-tail" data-entity-uid="part1" data-qualified-name="Source" data-source-line="12" id="part1-tail"><text fill="#000000" font-family="sans-serif" font-size="14" lengthAdjust="spacing" textLength="112.0547" x="5" y="581.6738">Enterprise Source</text><ellipse cx="64.0273" cy="593.25" fill="#E2E2F0" rx="8" ry="8" style="stroke:#181818;stroke-width:0.5;"/><path d="M64.0273,601.25 L64.0273,628.25 M51.0273,609.25 L77.0273,609.25 M64.0273,628.25 L51.0273,643.25 M64.0273,628.25 L77.0273,643.25" fill="none" style="stroke:#181818;stroke-width:0.5;"/></g><g class="participant participant-head" data-entity-uid="part2" data-qualified-name="Ingestion" data-source-line="14" id="part2-head"><rect fill="#FFFFFF" height="31.6094" rx="2.5" ry="2.5" style="stroke:#404040;stroke-width:0.5;" width="121.3926" x="184.1309" y="88.6094"/><text fill="#000000" font-family="sans-serif" font-size="14" lengthAdjust="spacing" textLength="107.3926" x="191.1309" y="110.1426">Ingestion Service</text></g><g class="participant participant-tail" data-entity-uid="part2" data-qualified-name="Ingestion" data-source-line="14" id="part2-tail"><rect fill="#FFFFFF" height="31.6094" rx="2.5" ry="2.5" style="stroke:#404040;stroke-width:0.5;" width="121.3926" x="184.1309" y="567.1406"/><text fill="#000000" font-family="sans-serif" font-size="14" lengthAdjust="spacing" textLength="107.3926" x="191.1309" y="588.6738">Ingestion Service</text></g><g class="participant participant-head" data-entity-uid="part3" data-qualified-name="Parser" data-source-line="16" id="part3-head"><rect fill="#FFFFFF" height="31.6094" rx="2.5" ry="2.5" style="stroke:#404040;stroke-width:0.5;" width="55.2344" x="338.0308" y="88.6094"/><text fill="#000000" font-family="sans-serif" font-size="14" lengthAdjust="spacing" textLength="41.2344" x="345.0308" y="110.1426">Parser</text></g><g class="participant participant-tail" data-entity-uid="part3" data-qualified-name="Parser" data-source-line="16" id="part3-tail"><rect fill="#FFFFFF" height="31.6094" rx="2.5" ry="2.5" style="stroke:#404040;stroke-width:0.5;" width="55.2344" x="338.0308" y="567.1406"/><text fill="#000000" font-family="sans-serif" font-size="14" lengthAdjust="spacing" textLength="41.2344" x="345.0308" y="588.6738">Parser</text></g><g class="participant participant-head" data-entity-uid="part4" data-qualified-name="Chunker" data-source-line="18" id="part4-head"><rect fill="#FFFFFF" height="31.6094" rx="2.5" ry="2.5" style="stroke:#404040;stroke-width:0.5;" width="120.6338" x="403.2651" y="88.6094"/><text fill="#000000" font-family="sans-serif" font-size="14" lengthAdjust="spacing" textLength="106.6338" x="410.2651" y="110.1426">Chunking Engine</text></g><g class="participant participant-tail" data-entity-uid="part4" data-qualified-name="Chunker" data-source-line="18" id="part4-tail"><rect fill="#FFFFFF" height="31.6094" rx="2.5" ry="2.5" style="stroke:#404040;stroke-width:0.5;" width="120.6338" x="403.2651" y="567.1406"/><text fill="#000000" font-family="sans-serif" font-size="14" lengthAdjust="spacing" textLength="106.6338" x="410.2651" y="588.6738">Chunking Engine</text></g><g class="participant participant-head" data-entity-uid="part5" data-qualified-name="Embedder" data-source-line="20" id="part5-head"><rect fill="#FFFFFF" height="31.6094" rx="2.5" ry="2.5" style="stroke:#404040;stroke-width:0.5;" width="151.751" x="533.8989" y="88.6094"/><text fill="#000000" font-family="sans-serif" font-size="14" lengthAdjust="spacing" textLength="137.751" x="540.8989" y="110.1426">Embedding Generator</text></g><g class="participant participant-tail" data-entity-uid="part5" data-qualified-name="Embedder" data-source-line="20" id="part5-tail"><rect fill="#FFFFFF" height="31.6094" rx="2.5" ry="2.5" style="stroke:#404040;stroke-width:0.5;" width="151.751" x="533.8989" y="567.1406"/><text fill="#000000" font-family="sans-serif" font-size="14" lengthAdjust="spacing" textLength="137.751" x="540.8989" y="588.6738">Embedding Generator</text></g><g class="participant participant-head" data-entity-uid="part6" data-qualified-name="Vertex" data-source-line="22" id="part6-head"><rect fill="#FFFFFF" height="49.2188" rx="2.5" ry="2.5" style="stroke:#404040;stroke-width:0.5;" width="91.8271" x="705.6606" y="71"/><text fill="#000000" font-family="sans-serif" font-size="14" lengthAdjust="spacing" textLength="57.5791" x="722.7847" y="92.5332">Vertex AI</text><text fill="#000000" font-family="sans-serif" font-size="14" lengthAdjust="spacing" textLength="77.8271" x="712.6606" y="110.1426">Embeddings</text></g><g class="participant participant-tail" data-entity-uid="part6" data-qualified-name="Vertex" data-source-line="22" id="part6-tail"><rect fill="#FFFFFF" height="49.2188" rx="2.5" ry="2.5" style="stroke:#404040;stroke-width:0.5;" width="91.8271" x="705.6606" y="567.1406"/><text fill="#000000" font-family="sans-serif" font-size="14" lengthAdjust="spacing" textLength="57.5791" x="722.7847" y="588.6738">Vertex AI</text><text fill="#000000" font-family="sans-serif" font-size="14" lengthAdjust="spacing" textLength="77.8271" x="712.6606" y="606.2832">Embeddings</text></g><g class="participant participant-head" data-entity-uid="part7" data-qualified-name="Qdrant" data-source-line="24" id="part7-head"><text fill="#000000" font-family="sans-serif" font-size="14" lengthAdjust="spacing" textLength="42.7998" x="807.4878" y="118.1426">Qdrant</text><path d="M813.8877,67.6094 C813.8877,57.6094 831.8877,57.6094 831.8877,57.6094 C831.8877,57.6094 849.8877,57.6094 849.8877,67.6094 L849.8877,93.6094 C849.8877,103.6094 831.8877,103.6094 831.8877,103.6094 C831.8877,103.6094 813.8877,103.6094 813.8877,93.6094 L813.8877,67.6094" fill="#E2E2F0" style="stroke:#181818;stroke-width:0.5;"/><path d="M813.8877,67.6094 C813.8877,77.6094 831.8877,77.6094 831.8877,77.6094 C831.8877,77.6094 849.8877,77.6094 849.8877,67.6094" fill="none" style="stroke:#181818;stroke-width:0.5;"/></g><g class="participant participant-tail" data-entity-uid="part7" data-qualified-name="Qdrant" data-source-line="24" id="part7-tail"><text fill="#000000" font-family="sans-serif" font-size="14" lengthAdjust="spacing" textLength="42.7998" x="807.4878" y="581.6738">Qdrant</text><path d="M813.8877,594.75 C813.8877,584.75 831.8877,584.75 831.8877,584.75 C831.8877,584.75 849.8877,584.75 849.8877,594.75 L849.8877,620.75 C849.8877,630.75 831.8877,630.75 831.8877,630.75 C831.8877,630.75 813.8877,630.75 813.8877,620.75 L813.8877,594.75" fill="#E2E2F0" style="stroke:#181818;stroke-width:0.5;"/><path d="M813.8877,594.75 C813.8877,604.75 831.8877,604.75 831.8877,604.75 C831.8877,604.75 849.8877,604.75 849.8877,594.75" fill="none" style="stroke:#181818;stroke-width:0.5;"/></g><g class="participant participant-head" data-entity-uid="part8" data-qualified-name="Firestore" data-source-line="26" id="part8-head"><text fill="#000000" font-family="sans-serif" font-size="14" lengthAdjust="spacing" textLength="55.2344" x="866.2876" y="118.1426">Firestore</text><path d="M878.9048,67.6094 C878.9048,57.6094 896.9048,57.6094 896.9048,57.6094 C896.9048,57.6094 914.9048,57.6094 914.9048,67.6094 L914.9048,93.6094 C914.9048,103.6094 896.9048,103.6094 896.9048,103.6094 C896.9048,103.6094 878.9048,103.6094 878.9048,93.6094 L878.9048,67.6094" fill="#E2E2F0" style="stroke:#181818;stroke-width:0.5;"/><path d="M878.9048,67.6094 C878.9048,77.6094 896.9048,77.6094 896.9048,77.6094 C896.9048,77.6094 914.9048,77.6094 914.9048,67.6094" fill="none" style="stroke:#181818;stroke-width:0.5;"/></g><g class="participant participant-tail" data-entity-uid="part8" data-qualified-name="Firestore" data-source-line="26" id="part8-tail"><text fill="#000000" font-family="sans-serif" font-size="14" lengthAdjust="spacing" textLength="55.2344" x="866.2876" y="581.6738">Firestore</text><path d="M878.9048,594.75 C878.9048,584.75 896.9048,584.75 896.9048,584.75 C896.9048,584.75 914.9048,584.75 914.9048,594.75 L914.9048,620.75 C914.9048,630.75 896.9048,630.75 896.9048,630.75 C896.9048,630.75 878.9048,630.75 878.9048,620.75 L878.9048,594.75" fill="#E2E2F0" style="stroke:#181818;stroke-width:0.5;"/><path d="M878.9048,594.75 C878.9048,604.75 896.9048,604.75 896.9048,604.75 C896.9048,604.75 914.9048,604.75 914.9048,594.75" fill="none" style="stroke:#181818;stroke-width:0.5;"/></g><g class="participant participant-head" data-entity-uid="part9" data-qualified-name="GCS" data-source-line="28" id="part9-head"><text fill="#000000" font-family="sans-serif" font-size="14" lengthAdjust="spacing" textLength="138.5371" x="937.522" y="118.1426">Google Cloud Storage</text><path d="M991.7905,67.6094 C991.7905,57.6094 1009.7905,57.6094 1009.7905,57.6094 C1009.7905,57.6094 1027.7905,57.6094 1027.7905,67.6094 L1027.7905,93.6094 C1027.7905,103.6094 1009.7905,103.6094 1009.7905,103.6094 C1009.7905,103.6094 991.7905,103.6094 991.7905,93.6094 L991.7905,67.6094" fill="#E2E2F0" style="stroke:#181818;stroke-width:0.5;"/><path d="M991.7905,67.6094 C991.7905,77.6094 1009.7905,77.6094 1009.7905,77.6094 C1009.7905,77.6094 1027.7905,77.6094 1027.7905,67.6094" fill="none" style="stroke:#181818;stroke-width:0.5;"/></g><g class="participant participant-tail" data-entity-uid="part9" data-qualified-name="GCS" data-source-line="28" id="part9-tail"><text fill="#000000" font-family="sans-serif" font-size="14" lengthAdjust="spacing" textLength="138.5371" x="937.522" y="581.6738">Google Cloud Storage</text><path d="M991.7905,594.75 C991.7905,584.75 1009.7905,584.75 1009.7905,584.75 C1009.7905,584.75 1027.7905,584.75 1027.7905,594.75 L1027.7905,620.75 C1027.7905,630.75 1009.7905,630.75 1009.7905,630.75 C1009.7905,630.75 991.7905,630.75 991.7905,620.75 L991.7905,594.75" fill="#E2E2F0" style="stroke:#181818;stroke-width:0.5;"/><path d="M991.7905,594.75 C991.7905,604.75 1009.7905,604.75 1009.7905,604.75 C1009.7905,604.75 1027.7905,604.75 1027.7905,594.75" fill="none" style="stroke:#181818;stroke-width:0.5;"/></g><g class="message" data-entity-1="part1" data-entity-2="part2" data-source-line="30" id="msg1"><polygon fill="#181818" points="232.8271,149.5703,242.8271,153.5703,232.8271,157.5703,236.8271,153.5703" style="stroke:#181818;stroke-width:1;stroke-linejoin:miter;stroke-miterlimit:10;"/><line style="stroke:#181818;stroke-width:1.5;" x1="64.0273" x2="238.8271" y1="153.5703" y2="153.5703"/><text fill="#000000" font-family="sans-serif" font-size="13" lengthAdjust="spacing" textLength="156.7998" x="71.0273" y="148.7139">New or Updated Document</text></g><g class="message" data-entity-1="part2" data-entity-2="part9" data-source-line="32" id="msg2"><polygon fill="#181818" points="997.7905,179.9219,1007.7905,183.9219,997.7905,187.9219,1001.7905,183.9219" style="stroke:#181818;stroke-width:1;stroke-linejoin:miter;stroke-miterlimit:10;"/><line style="stroke:#181818;stroke-width:1.5;" x1="244.8271" x2="1003.7905" y1="183.9219" y2="183.9219"/><text fill="#000000" font-family="sans-serif" font-size="13" lengthAdjust="spacing" textLength="142.3398" x="251.8271" y="179.0654">Store Original Document</text></g><g class="message" data-entity-1="part2" data-entity-2="part3" data-source-line="34" id="msg3"><polygon fill="#181818" points="353.6479,210.2734,363.6479,214.2734,353.6479,218.2734,357.6479,214.2734" style="stroke:#181818;stroke-width:1;stroke-linejoin:miter;stroke-miterlimit:10;"/><line style="stroke:#181818;stroke-width:1.5;" x1="244.8271" x2="359.6479" y1="214.2734" y2="214.2734"/><text fill="#000000" font-family="sans-serif" font-size="13" lengthAdjust="spacing" textLength="96.8208" x="251.8271" y="209.417">Parse Document</text></g><g class="message" data-entity-1="part3" data-entity-2="part2" data-source-line="36" id="msg4"><polygon fill="#181818" points="255.8271,240.625,245.8271,244.625,255.8271,248.625,251.8271,244.625" style="stroke:#181818;stroke-width:1;stroke-linejoin:miter;stroke-miterlimit:10;"/><line style="stroke:#181818;stroke-width:1.5;stroke-dasharray:2,2;" x1="249.8271" x2="364.6479" y1="244.625" y2="244.625"/><text fill="#000000" font-family="sans-serif" font-size="13" lengthAdjust="spacing" textLength="70.0845" x="261.8271" y="239.7686">Parsed Text</text></g><g class="message" data-entity-1="part2" data-entity-2="part4" data-source-line="38" id="msg5"><polygon fill="#181818" points="451.582,270.9766,461.582,274.9766,451.582,278.9766,455.582,274.9766" style="stroke:#181818;stroke-width:1;stroke-linejoin:miter;stroke-miterlimit:10;"/><line style="stroke:#181818;stroke-width:1.5;" x1="244.8271" x2="457.582" y1="274.9766" y2="274.9766"/><text fill="#000000" font-family="sans-serif" font-size="13" lengthAdjust="spacing" textLength="97.5508" x="251.8271" y="270.1201">Split into Chunks</text></g><g class="message" data-entity-1="part4" data-entity-2="part2" data-source-line="40" id="msg6"><polygon fill="#181818" points="255.8271,301.3281,245.8271,305.3281,255.8271,309.3281,251.8271,305.3281" style="stroke:#181818;stroke-width:1;stroke-linejoin:miter;stroke-miterlimit:10;"/><line style="stroke:#181818;stroke-width:1.5;stroke-dasharray:2,2;" x1="249.8271" x2="462.582" y1="305.3281" y2="305.3281"/><text fill="#000000" font-family="sans-serif" font-size="13" lengthAdjust="spacing" textLength="72.9727" x="261.8271" y="300.4717">Text Chunks</text></g><path d="M174.1309,320.3281 L246.5654,320.3281 L246.5654,328.6797 L236.5654,338.6797 L174.1309,338.6797 L174.1309,320.3281" fill="#EEEEEE" style="stroke:#000000;stroke-width:1.5;"/><rect fill="none" height="170.1094" style="stroke:#000000;stroke-width:1.5;" width="692.1567" x="174.1309" y="320.3281"/><text fill="#000000" font-family="sans-serif" font-size="13" font-weight="700" lengthAdjust="spacing" textLength="27.4346" x="189.1309" y="334.8232">loop</text><text fill="#000000" font-family="sans-serif" font-size="11" font-weight="700" lengthAdjust="spacing" textLength="91.6685" x="261.5654" y="333.7471">[For Each Chunk]</text><g class="message" data-entity-1="part2" data-entity-2="part5" data-source-line="44" id="msg7"><polygon fill="#181818" points="597.7744,357.0313,607.7744,361.0313,597.7744,365.0313,601.7744,361.0313" style="stroke:#181818;stroke-width:1;stroke-linejoin:miter;stroke-miterlimit:10;"/><line style="stroke:#181818;stroke-width:1.5;" x1="244.8271" x2="603.7744" y1="361.0313" y2="361.0313"/><text fill="#000000" font-family="sans-serif" font-size="13" lengthAdjust="spacing" textLength="123.5825" x="251.8271" y="356.1748">Generate Embedding</text></g><g class="message" data-entity-1="part5" data-entity-2="part6" data-source-line="46" id="msg8"><polygon fill="#181818" points="739.5742,387.3828,749.5742,391.3828,739.5742,395.3828,743.5742,391.3828" style="stroke:#181818;stroke-width:1;stroke-linejoin:miter;stroke-miterlimit:10;"/><line style="stroke:#181818;stroke-width:1.5;" x1="609.7744" x2="745.5742" y1="391.3828" y2="391.3828"/><text fill="#000000" font-family="sans-serif" font-size="13" lengthAdjust="spacing" textLength="117.7998" x="616.7744" y="386.5264">Embedding Request</text></g><g class="message" data-entity-1="part6" data-entity-2="part5" data-source-line="48" id="msg9"><polygon fill="#181818" points="620.7744,417.7344,610.7744,421.7344,620.7744,425.7344,616.7744,421.7344" style="stroke:#181818;stroke-width:1;stroke-linejoin:miter;stroke-miterlimit:10;"/><line style="stroke:#181818;stroke-width:1.5;stroke-dasharray:2,2;" x1="614.7744" x2="750.5742" y1="421.7344" y2="421.7344"/><text fill="#000000" font-family="sans-serif" font-size="13" lengthAdjust="spacing" textLength="37.5718" x="626.7744" y="416.8779">Vector</text></g><g class="message" data-entity-1="part5" data-entity-2="part2" data-source-line="50" id="msg10"><polygon fill="#181818" points="255.8271,448.0859,245.8271,452.0859,255.8271,456.0859,251.8271,452.0859" style="stroke:#181818;stroke-width:1;stroke-linejoin:miter;stroke-miterlimit:10;"/><line style="stroke:#181818;stroke-width:1.5;stroke-dasharray:2,2;" x1="249.8271" x2="608.7744" y1="452.0859" y2="452.0859"/><text fill="#000000" font-family="sans-serif" font-size="13" lengthAdjust="spacing" textLength="65.7681" x="261.8271" y="447.2295">Embedding</text></g><g class="message" data-entity-1="part2" data-entity-2="part7" data-source-line="52" id="msg11"><polygon fill="#181818" points="819.8877,478.4375,829.8877,482.4375,819.8877,486.4375,823.8877,482.4375" style="stroke:#181818;stroke-width:1;stroke-linejoin:miter;stroke-miterlimit:10;"/><line style="stroke:#181818;stroke-width:1.5;" x1="244.8271" x2="825.8877" y1="482.4375" y2="482.4375"/><text fill="#000000" font-family="sans-serif" font-size="13" lengthAdjust="spacing" textLength="72.2554" x="251.8271" y="477.5811">Store Vector</text></g><g class="message" data-entity-1="part2" data-entity-2="part8" data-source-line="56" id="msg12"><polygon fill="#181818" points="884.9048,515.7891,894.9048,519.7891,884.9048,523.7891,888.9048,519.7891" style="stroke:#181818;stroke-width:1;stroke-linejoin:miter;stroke-miterlimit:10;"/><line style="stroke:#181818;stroke-width:1.5;" x1="244.8271" x2="890.9048" y1="519.7891" y2="519.7891"/><text fill="#000000" font-family="sans-serif" font-size="13" lengthAdjust="spacing" textLength="88.8862" x="251.8271" y="514.9326">Store Metadata</text></g><g class="message" data-entity-1="part2" data-entity-2="part1" data-source-line="58" id="msg13"><polygon fill="#181818" points="75.0273,546.1406,65.0273,550.1406,75.0273,554.1406,71.0273,550.1406" style="stroke:#181818;stroke-width:1;stroke-linejoin:miter;stroke-miterlimit:10;"/><line style="stroke:#181818;stroke-width:1.5;stroke-dasharray:2,2;" x1="69.0273" x2="243.8271" y1="550.1406" y2="550.1406"/><text fill="#000000" font-family="sans-serif" font-size="13" lengthAdjust="spacing" textLength="112.0107" x="81.0273" y="545.2842">Ingestion Complete</text></g><?plantuml-src XPDDRzim38Rl-XL4Tiwm0TibXm6TbmO5zfskfrqOYxM5E997oKj__YZBKHHdtM0OaFa-UaMHT32X8_ZWwk50Di2TRSW7uoniwTT0jYQb_DxO7XaFiCDwtx0RhAvSvnYEhGbKwBv5xOx6Dl28dI-L6sPtl6zDlRVaFRn--ROGlo87KviURNZlM1CdznTlNiNd6V0_gPpI_sWUvRNqR-Ch-g_k2kiW7ukr3SGz6q-mTGFNj03qqrAf_fmaBCfwycypeJawe-L-ddX4qdAcL-rWzx6yQzj8bYCungx8zM57MaTqGvOO9U-HJl4h_84uq1FStFsqUQSVDoH5AOq1ToWtNdpJB7j6CIrByTQmtCnnoYr_bSZ6kKP6hkhSe64hAZQ9tbHRfL8LOVck6CKLVAOZIEL_z693Ee-hKcT8TeY1iD6Iu0iRAH5spx6fleAFYuAQXEKiWp6iuPwUvavJ0-B9VMS261jS2dgbJkBSBlfag7EkXrkvtnhhDaLdPvpQ9ZkdVXBaHYcLPK6dLgxEEdoFq-qbxqbRNZe-K1phqcMMR77IHLQf_Rda9n-oUWRcESZi9meOH-82579g_weultA7lYFv_Vu0?></g></svg>