<svg xmlns="http://www.w3.org/2000/svg" xmlns:xlink="http://www.w3.org/1999/xlink" contentStyleType="text/css" data-diagram-type="SEQUENCE" height="983px" preserveAspectRatio="none" style="width:1621px;height:983px;background:#FFFFFF;" version="1.1" viewBox="0 0 1621 983" width="1621px" zoomAndPan="magnify"><?plantuml 1.2026.6?><defs/><g><g class="title" data-source-line="2"><text fill="#000000" font-family="sans-serif" font-size="14" font-weight="700" lengthAdjust="spacing" textLength="224.8545" x="694.5935" y="29.5332">RAG Query Processing Sequence</text></g><g class="participant-lifeline" data-entity-uid="part1" data-qualified-name="User" data-source-line="12" id="part1-lifeline"><g><title>Business User</title><rect fill="#000000" fill-opacity="0.00000" height="778.7891" width="8" x="49.1274" y="121.2188"/><line style="stroke:#404040;stroke-width:0.5;stroke-dasharray:5,5;" x1="53" x2="53" y1="121.2188" y2="900.0078"/></g></g><g class="participant-lifeline" data-entity-uid="part2" data-qualified-name="UI" data-source-line="14" id="part2-lifeline"><g><title>React Web Portal</title><rect fill="#000000" fill-opacity="0.00000" height="778.7891" width="8" x="169.1099" y="121.2188"/><line style="stroke:#404040;stroke-width:0.5;stroke-dasharray:5,5;" x1="172.2549" x2="172.2549" y1="121.2188" y2="900.0078"/></g></g><g class="participant-lifeline" data-entity-uid="part3" data-qualified-name="API" data-source-line="16" id="part3-lifeline"><g><title>FastAPI Backend</title><rect fill="#000000" fill-opacity="0.00000" height="778.7891" width="8" x="302.0474" y="121.2188"/><line style="stroke:#404040;stroke-width:0.5;stroke-dasharray:5,5;" x1="305.9648" x2="305.9648" y1="121.2188" y2="900.0078"/></g></g><g class="participant-lifeline" data-entity-uid="part4" data-qualified-name="Firestore" data-source-line="18" id="part4-lifeline"><g><title>Firestore</title><rect fill="#000000" fill-opacity="0.00000" height="778.7891" width="8" x="451.0581" y="121.2188"/><line style="stroke:#404040;stroke-width:0.5;stroke-dasharray:5,5;" x1="454.4409" x2="454.4409" y1="121.2188" y2="900.0078"/></g></g><g class="participant-lifeline" data-entity-uid="part5" data-qualified-name="LangGraph" data-source-line="20" id="part5-lifeline"><g><title>LangGraph Runtime</title><rect fill="#000000" fill-opacity="0.00000" height="778.7891" width="8" x="561.7129" y="121.2188"/><line style="stroke:#404040;stroke-width:0.5;stroke-dasharray:5,5;" x1="565.6753" x2="565.6753" y1="121.2188" y2="900.0078"/></g></g><g class="participant-lifeline" data-entity-uid="part6" data-qualified-name="Planner" data-source-line="22" id="part6-lifeline"><g><title>Planner Agent</title><rect fill="#000000" fill-opacity="0.00000" height="778.7891" width="8" x="704.9536" y="121.2188"/><line style="stroke:#404040;stroke-width:0.5;stroke-dasharray:5,5;" x1="708.5884" x2="708.5884" y1="121.2188" y2="900.0078"/></g></g><g class="participant-lifeline" data-entity-uid="part7" data-qualified-name="Supervisor" data-source-line="24" id="part7-lifeline"><g><title>Supervisor Agent</title><rect fill="#000000" fill-opacity="0.00000" height="778.7891" width="8" x="827.0151" y="121.2188"/><line style="stroke:#404040;stroke-width:0.5;stroke-dasharray:5,5;" x1="830.3188" x2="830.3188" y1="121.2188" y2="900.0078"/></g></g><g class="participant-lifeline" data-entity-uid="part8" data-qualified-name="Worker" data-source-line="26" id="part8-lifeline"><g><title>Worker Agent</title><rect fill="#000000" fill-opacity="0.00000" height="778.7891" width="8" x="967.3613" y="121.2188"/><line style="stroke:#404040;stroke-width:0.5;stroke-dasharray:5,5;" x1="970.5684" x2="970.5684" y1="121.2188" y2="900.0078"/></g></g><g class="participant-lifeline" data-entity-uid="part9" data-qualified-name="Qdrant" data-source-line="28" id="part9-lifeline"><g><title>Qdrant</title><rect fill="#000000" fill-opacity="0.00000" height="778.7891" width="8" x="1098.3193" y="121.2188"/><line style="stroke:#404040;stroke-width:0.5;stroke-dasharray:5,5;" x1="1101.9194" x2="1101.9194" y1="121.2188" y2="900.0078"/></g></g><g class="participant-lifeline" data-entity-uid="part10" data-qualified-name="GCS" data-source-line="30" id="part10-lifeline"><g><title>Google Cloud Storage</title><rect fill="#000000" fill-opacity="0.00000" height="778.7891" width="8" x="1204.9878" y="121.2188"/><line style="stroke:#404040;stroke-width:0.5;stroke-dasharray:5,5;" x1="1208.7192" x2="1208.7192" y1="121.2188" y2="900.0078"/></g></g><g class="participant-lifeline" data-entity-uid="part11" data-qualified-name="Embeddings" data-source-line="32" id="part11-lifeline"><g><title>Vertex AI</title><rect fill="#000000" fill-opacity="0.00000" height="778.7891" width="8" x="1333.1699" y="121.2188"/><line style="stroke:#404040;stroke-width:0.5;stroke-dasharray:5,5;" x1="1336.2563" x2="1336.2563" y1="121.2188" y2="900.0078"/></g></g><g class="participant-lifeline" data-entity-uid="part12" data-qualified-name="Gemini" data-source-line="34" id="part12-lifeline"><g><title>Gemini Model</title><rect fill="#000000" fill-opacity="0.00000" height="778.7891" width="8" x="1439.2661" y="121.2188"/><line style="stroke:#404040;stroke-width:0.5;stroke-dasharray:5,5;" x1="1443.0835" x2="1443.0835" y1="121.2188" y2="900.0078"/></g></g><g class="participant-lifeline" data-entity-uid="part13" data-qualified-name="Reranker" data-source-line="36" id="part13-lifeline"><g><title>Cross Encoder</title><rect fill="#000000" fill-opacity="0.00000" height="778.7891" width="8" x="1552.7451" y="121.2188"/><line style="stroke:#404040;stroke-width:0.5;stroke-dasharray:5,5;" x1="1556.4487" x2="1556.4487" y1="121.2188" y2="900.0078"/></g></g><g class="participant participant-head" data-entity-uid="part1" data-qualified-name="User" data-source-line="12" id="part1-head"><text fill="#000000" font-family="sans-serif" font-size="14" lengthAdjust="spacing" textLength="90.2549" x="5" y="118.1426">Business User</text><ellipse cx="53.1274" cy="52.1094" fill="#E2E2F0" rx="8" ry="8" style="stroke:#181818;stroke-width:0.5;"/><path d="M53.1274,60.1094 L53.1274,87.1094 M40.1274,68.1094 L66.1274,68.1094 M53.1274,87.1094 L40.1274,102.1094 M53.1274,87.1094 L66.1274,102.1094" fill="none" style="stroke:#181818;stroke-width:0.5;"/></g><g class="participant participant-tail" data-entity-uid="part1" data-qualified-name="User" data-source-line="12" id="part1-tail"><text fill="#000000" font-family="sans-serif" font-size="14" lengthAdjust="spacing" textLength="90.2549" x="5" y="913.541">Business User</text><ellipse cx="53.1274" cy="925.1172" fill="#E2E2F0" rx="8" ry="8" style="stroke:#181818;stroke-width:0.5;"/><path d="M53.1274,933.1172 L53.1274,960.1172 M40.1274,941.1172 L66.1274,941.1172 M53.1274,960.1172 L40.1274,975.1172 M53.1274,960.1172 L66.1274,975.1172" fill="none" style="stroke:#181818;stroke-width:0.5;"/></g><g class="participant participant-head" data-entity-uid="part2" data-qualified-name="UI" data-source-line="14" id="part2-head"><rect fill="#FFFFFF" height="31.6094" rx="2.5" ry="2.5" style="stroke:#404040;stroke-width:0.5;" width="123.71" x="111.2549" y="88.6094"/><text fill="#000000" font-family="sans-serif" font-size="14" lengthAdjust="spacing" textLength="109.71" x="118.2549" y="110.1426">React Web Portal</text></g><g class="participant participant-tail" data-entity-uid="part2" data-qualified-name="UI" data-source-line="14" id="part2-tail"><rect fill="#FFFFFF" height="31.6094" rx="2.5" ry="2.5" style="stroke:#404040;stroke-width:0.5;" width="123.71" x="111.2549" y="899.0078"/><text fill="#000000" font-family="sans-serif" font-size="14" lengthAdjust="spacing" textLength="109.71" x="118.2549" y="920.541">React Web Portal</text></g><g class="participant participant-head" data-entity-uid="part3" data-qualified-name="API" data-source-line="16" id="part3-head"><rect fill="#FFFFFF" height="31.6094" rx="2.5" ry="2.5" style="stroke:#404040;stroke-width:0.5;" width="122.165" x="244.9648" y="88.6094"/><text fill="#000000" font-family="sans-serif" font-size="14" lengthAdjust="spacing" textLength="108.165" x="251.9648" y="110.1426">FastAPI Backend</text></g><g class="participant participant-tail" data-entity-uid="part3" data-qualified-name="API" data-source-line="16" id="part3-tail"><rect fill="#FFFFFF" height="31.6094" rx="2.5" ry="2.5" style="stroke:#404040;stroke-width:0.5;" width="122.165" x="244.9648" y="899.0078"/><text fill="#000000" font-family="sans-serif" font-size="14" lengthAdjust="spacing" textLength="108.165" x="251.9648" y="920.541">FastAPI Backend</text></g><g class="participant participant-head" data-entity-uid="part4" data-qualified-name="Firestore" data-source-line="18" id="part4-head"><text fill="#000000" font-family="sans-serif" font-size="14" lengthAdjust="spacing" textLength="55.2344" x="424.4409" y="118.1426">Firestore</text><path d="M437.0581,67.6094 C437.0581,57.6094 455.0581,57.6094 455.0581,57.6094 C455.0581,57.6094 473.0581,57.6094 473.0581,67.6094 L473.0581,93.6094 C473.0581,103.6094 455.0581,103.6094 455.0581,103.6094 C455.0581,103.6094 437.0581,103.6094 437.0581,93.6094 L437.0581,67.6094" fill="#E2E2F0" style="stroke:#181818;stroke-width:0.5;"/><path d="M437.0581,67.6094 C437.0581,77.6094 455.0581,77.6094 455.0581,77.6094 C455.0581,77.6094 473.0581,77.6094 473.0581,67.6094" fill="none" style="stroke:#181818;stroke-width:0.5;"/></g><g class="participant participant-tail" data-entity-uid="part4" data-qualified-name="Firestore" data-source-line="18" id="part4-tail"><text fill="#000000" font-family="sans-serif" font-size="14" lengthAdjust="spacing" textLength="55.2344" x="424.4409" y="913.541">Firestore</text><path d="M437.0581,926.6172 C437.0581,916.6172 455.0581,916.6172 455.0581,916.6172 C455.0581,916.6172 473.0581,916.6172 473.0581,926.6172 L473.0581,952.6172 C473.0581,962.6172 455.0581,962.6172 455.0581,962.6172 C455.0581,962.6172 437.0581,962.6172 437.0581,952.6172 L437.0581,926.6172" fill="#E2E2F0" style="stroke:#181818;stroke-width:0.5;"/><path d="M437.0581,926.6172 C437.0581,936.6172 455.0581,936.6172 455.0581,936.6172 C455.0581,936.6172 473.0581,936.6172 473.0581,926.6172" fill="none" style="stroke:#181818;stroke-width:0.5;"/></g><g class="participant participant-head" data-entity-uid="part5" data-qualified-name="LangGraph" data-source-line="20" id="part5-head"><rect fill="#FFFFFF" height="31.6094" rx="2.5" ry="2.5" style="stroke:#404040;stroke-width:0.5;" width="140.0752" x="495.6753" y="88.6094"/><text fill="#000000" font-family="sans-serif" font-size="14" lengthAdjust="spacing" textLength="126.0752" x="502.6753" y="110.1426">LangGraph Runtime</text></g><g class="participant participant-tail" data-entity-uid="part5" data-qualified-name="LangGraph" data-source-line="20" id="part5-tail"><rect fill="#FFFFFF" height="31.6094" rx="2.5" ry="2.5" style="stroke:#404040;stroke-width:0.5;" width="140.0752" x="495.6753" y="899.0078"/><text fill="#000000" font-family="sans-serif" font-size="14" lengthAdjust="spacing" textLength="126.0752" x="502.6753" y="920.541">LangGraph Runtime</text></g><g class="participant participant-head" data-entity-uid="part6" data-qualified-name="Planner" data-source-line="22" id="part6-head"><rect fill="#FFFFFF" height="31.6094" rx="2.5" ry="2.5" style="stroke:#404040;stroke-width:0.5;" width="102.7305" x="657.5884" y="88.6094"/><text fill="#000000" font-family="sans-serif" font-size="14" lengthAdjust="spacing" textLength="88.7305" x="664.5884" y="110.1426">Planner Agent</text></g><g class="participant participant-tail" data-entity-uid="part6" data-qualified-name="Planner" data-source-line="22" id="part6-tail"><rect fill="#FFFFFF" height="31.6094" rx="2.5" ry="2.5" style="stroke:#404040;stroke-width:0.5;" width="102.7305" x="657.5884" y="899.0078"/><text fill="#000000" font-family="sans-serif" font-size="14" lengthAdjust="spacing" textLength="88.7305" x="664.5884" y="920.541">Planner Agent</text></g><g class="participant participant-head" data-entity-uid="part7" data-qualified-name="Supervisor" data-source-line="24" id="part7-head"><rect fill="#FFFFFF" height="31.6094" rx="2.5" ry="2.5" style="stroke:#404040;stroke-width:0.5;" width="121.3926" x="770.3188" y="88.6094"/><text fill="#000000" font-family="sans-serif" font-size="14" lengthAdjust="spacing" textLength="107.3926" x="777.3188" y="110.1426">Supervisor Agent</text></g><g class="participant participant-tail" data-entity-uid="part7" data-qualified-name="Supervisor" data-source-line="24" id="part7-tail"><rect fill="#FFFFFF" height="31.6094" rx="2.5" ry="2.5" style="stroke:#404040;stroke-width:0.5;" width="121.3926" x="770.3188" y="899.0078"/><text fill="#000000" font-family="sans-serif" font-size="14" lengthAdjust="spacing" textLength="107.3926" x="777.3188" y="920.541">Supervisor Agent</text></g><g class="participant participant-head" data-entity-uid="part8" data-qualified-name="Worker" data-source-line="26" id="part8-head"><rect fill="#FFFFFF" height="31.6094" rx="2.5" ry="2.5" style="stroke:#404040;stroke-width:0.5;" width="99.5859" x="921.5684" y="88.6094"/><text fill="#000000" font-family="sans-serif" font-size="14" lengthAdjust="spacing" textLength="85.5859" x="928.5684" y="110.1426">Worker Agent</text></g><g class="participant participant-tail" data-entity-uid="part8" data-qualified-name="Worker" data-source-line="26" id="part8-tail"><rect fill="#FFFFFF" height="31.6094" rx="2.5" ry="2.5" style="stroke:#404040;stroke-width:0.5;" width="99.5859" x="921.5684" y="899.0078"/><text fill="#000000" font-family="sans-serif" font-size="14" lengthAdjust="spacing" textLength="85.5859" x="928.5684" y="920.541">Worker Agent</text></g><g class="participant participant-head" data-entity-uid="part9" data-qualified-name="Qdrant" data-source-line="28" id="part9-head"><text fill="#000000" font-family="sans-serif" font-size="14" lengthAdjust="spacing" textLength="42.7998" x="1077.9194" y="118.1426">Qdrant</text><path d="M1084.3193,67.6094 C1084.3193,57.6094 1102.3193,57.6094 1102.3193,57.6094 C1102.3193,57.6094 1120.3193,57.6094 1120.3193,67.6094 L1120.3193,93.6094 C1120.3193,103.6094 1102.3193,103.6094 1102.3193,103.6094 C1102.3193,103.6094 1084.3193,103.6094 1084.3193,93.6094 L1084.3193,67.6094" fill="#E2E2F0" style="stroke:#181818;stroke-width:0.5;"/><path d="M1084.3193,67.6094 C1084.3193,77.6094 1102.3193,77.6094 1102.3193,77.6094 C1102.3193,77.6094 1120.3193,77.6094 1120.3193,67.6094" fill="none" style="stroke:#181818;stroke-width:0.5;"/></g><g class="participant participant-tail" data-entity-uid="part9" data-qualified-name="Qdrant" data-source-line="28" id="part9-tail"><text fill="#000000" font-family="sans-serif" font-size="14" lengthAdjust="spacing" textLength="42.7998" x="1077.9194" y="913.541">Qdrant</text><path d="M1084.3193,926.6172 C1084.3193,916.6172 1102.3193,916.6172 1102.3193,916.6172 C1102.3193,916.6172 1120.3193,916.6172 1120.3193,926.6172 L1120.3193,952.6172 C1120.3193,962.6172 1102.3193,962.6172 1102.3193,962.6172 C1102.3193,962.6172 1084.3193,962.6172 1084.3193,952.6172 L1084.3193,926.6172" fill="#E2E2F0" style="stroke:#181818;stroke-width:0.5;"/><path d="M1084.3193,926.6172 C1084.3193,936.6172 1102.3193,936.6172 1102.3193,936.6172 C1102.3193,936.6172 1120.3193,936.6172 1120.3193,926.6172" fill="none" style="stroke:#181818;stroke-width:0.5;"/></g><g class="participant participant-head" data-entity-uid="part10" data-qualified-name="GCS" data-source-line="30" id="part10-head"><text fill="#000000" font-family="sans-serif" font-size="14" lengthAdjust="spacing" textLength="138.5371" x="1136.7192" y="118.1426">Google Cloud Storage</text><path d="M1190.9878,67.6094 C1190.9878,57.6094 1208.9878,57.6094 1208.9878,57.6094 C1208.9878,57.6094 1226.9878,57.6094 1226.9878,67.6094 L1226.9878,93.6094 C1226.9878,103.6094 1208.9878,103.6094 1208.9878,103.6094 C1208.9878,103.6094 1190.9878,103.6094 1190.9878,93.6094 L1190.9878,67.6094" fill="#E2E2F0" style="stroke:#181818;stroke-width:0.5;"/><path d="M1190.9878,67.6094 C1190.9878,77.6094 1208.9878,77.6094 1208.9878,77.6094 C1208.9878,77.6094 1226.9878,77.6094 1226.9878,67.6094" fill="none" style="stroke:#181818;stroke-width:0.5;"/></g><g class="participant participant-tail" data-entity-uid="part10" data-qualified-name="GCS" data-source-line="30" id="part10-tail"><text fill="#000000" font-family="sans-serif" font-size="14" lengthAdjust="spacing" textLength="138.5371" x="1136.7192" y="913.541">Google Cloud Storage</text><path d="M1190.9878,926.6172 C1190.9878,916.6172 1208.9878,916.6172 1208.9878,916.6172 C1208.9878,916.6172 1226.9878,916.6172 1226.9878,926.6172 L1226.9878,952.6172 C1226.9878,962.6172 1208.9878,962.6172 1208.9878,962.6172 C1208.9878,962.6172 1190.9878,962.6172 1190.9878,952.6172 L1190.9878,926.6172" fill="#E2E2F0" style="stroke:#181818;stroke-width:0.5;"/><path d="M1190.9878,926.6172 C1190.9878,936.6172 1208.9878,936.6172 1208.9878,936.6172 C1208.9878,936.6172 1226.9878,936.6172 1226.9878,926.6172" fill="none" style="stroke:#181818;stroke-width:0.5;"/></g><g class="participant participant-head" data-entity-uid="part11" data-qualified-name="Embeddings" data-source-line="32" id="part11-head"><rect fill="#FFFFFF" height="49.2188" rx="2.5" ry="2.5" style="stroke:#404040;stroke-width:0.5;" width="91.8271" x="1291.2563" y="71"/><text fill="#000000" font-family="sans-serif" font-size="14" lengthAdjust="spacing" textLength="57.5791" x="1308.3804" y="92.5332">Vertex AI</text><text fill="#000000" font-family="sans-serif" font-size="14" lengthAdjust="spacing" textLength="77.8271" x="1298.2563" y="110.1426">Embeddings</text></g><g class="participant participant-tail" data-entity-uid="part11" data-qualified-name="Embeddings" data-source-line="32" id="part11-tail"><rect fill="#FFFFFF" height="49.2188" rx="2.5" ry="2.5" style="stroke:#404040;stroke-width:0.5;" width="91.8271" x="1291.2563" y="899.0078"/><text fill="#000000" font-family="sans-serif" font-size="14" lengthAdjust="spacing" textLength="57.5791" x="1308.3804" y="920.541">Vertex AI</text><text fill="#000000" font-family="sans-serif" font-size="14" lengthAdjust="spacing" textLength="77.8271" x="1298.2563" y="938.1504">Embeddings</text></g><g class="participant participant-head" data-entity-uid="part12" data-qualified-name="Gemini" data-source-line="34" id="part12-head"><rect fill="#FFFFFF" height="31.6094" rx="2.5" ry="2.5" style="stroke:#404040;stroke-width:0.5;" width="100.3652" x="1393.0835" y="88.6094"/><text fill="#000000" font-family="sans-serif" font-size="14" lengthAdjust="spacing" textLength="86.3652" x="1400.0835" y="110.1426">Gemini Model</text></g><g class="participant participant-tail" data-entity-uid="part12" data-qualified-name="Gemini" data-source-line="34" id="part12-tail"><rect fill="#FFFFFF" height="31.6094" rx="2.5" ry="2.5" style="stroke:#404040;stroke-width:0.5;" width="100.3652" x="1393.0835" y="899.0078"/><text fill="#000000" font-family="sans-serif" font-size="14" lengthAdjust="spacing" textLength="86.3652" x="1400.0835" y="920.541">Gemini Model</text></g><g class="participant participant-head" data-entity-uid="part13" data-qualified-name="Reranker" data-source-line="36" id="part13-head"><rect fill="#FFFFFF" height="49.2188" rx="2.5" ry="2.5" style="stroke:#404040;stroke-width:0.5;" width="106.5928" x="1503.4487" y="71"/><text fill="#000000" font-family="sans-serif" font-size="14" lengthAdjust="spacing" textLength="92.5928" x="1510.4487" y="92.5332">Cross Encoder</text><text fill="#000000" font-family="sans-serif" font-size="14" lengthAdjust="spacing" textLength="57.5791" x="1527.9556" y="110.1426">Reranker</text></g><g class="participant participant-tail" data-entity-uid="part13" data-qualified-name="Reranker" data-source-line="36" id="part13-tail"><rect fill="#FFFFFF" height="49.2188" rx="2.5" ry="2.5" style="stroke:#404040;stroke-width:0.5;" width="106.5928" x="1503.4487" y="899.0078"/><text fill="#000000" font-family="sans-serif" font-size="14" lengthAdjust="spacing" textLength="92.5928" x="1510.4487" y="920.541">Cross Encoder</text><text fill="#000000" font-family="sans-serif" font-size="14" lengthAdjust="spacing" textLength="57.5791" x="1527.9556" y="938.1504">Reranker</text></g><g class="message" data-entity-1="part1" data-entity-2="part2" data-source-line="38" id="msg1"><polygon fill="#181818" points="161.1099,149.5703,171.1099,153.5703,161.1099,157.5703,165.1099,153.5703" style="stroke:#181818;stroke-width:1;stroke-linejoin:miter;stroke-miterlimit:10;"/><line style="stroke:#181818;stroke-width:1.5;" x1="53.1274" x2="167.1099" y1="153.5703" y2="153.5703"/><text fill="#000000" font-family="sans-serif" font-size="13" lengthAdjust="spacing" textLength="77.3145" x="60.1274" y="148.7139">Ask Question</text></g><g class="message" data-entity-1="part2" data-entity-2="part3" data-source-line="40" id="msg2"><polygon fill="#181818" points="294.0474,179.9219,304.0474,183.9219,294.0474,187.9219,298.0474,183.9219" style="stroke:#181818;stroke-width:1;stroke-linejoin:miter;stroke-miterlimit:10;"/><line style="stroke:#181818;stroke-width:1.5;" x1="173.1099" x2="300.0474" y1="183.9219" y2="183.9219"/><text fill="#000000" font-family="sans-serif" font-size="13" lengthAdjust="spacing" textLength="75.1372" x="180.1099" y="179.0654">POST /query</text></g><g class="message" data-entity-1="part3" data-entity-2="part4" data-source-line="42" id="msg3"><polygon fill="#181818" points="443.0581,210.2734,453.0581,214.2734,443.0581,218.2734,447.0581,214.2734" style="stroke:#181818;stroke-width:1;stroke-linejoin:miter;stroke-miterlimit:10;"/><line style="stroke:#181818;stroke-width:1.5;" x1="306.0474" x2="449.0581" y1="214.2734" y2="214.2734"/><text fill="#000000" font-family="sans-serif" font-size="13" lengthAdjust="spacing" textLength="104.0508" x="313.0474" y="209.417">Load Chat History</text></g><g class="message" data-entity-1="part4" data-entity-2="part3" data-source-line="44" id="msg4"><polygon fill="#181818" points="317.0474,240.625,307.0474,244.625,317.0474,248.625,313.0474,244.625" style="stroke:#181818;stroke-width:1;stroke-linejoin:miter;stroke-miterlimit:10;"/><line style="stroke:#181818;stroke-width:1.5;stroke-dasharray:2,2;" x1="311.0474" x2="454.0581" y1="244.625" y2="244.625"/><text fill="#000000" font-family="sans-serif" font-size="13" lengthAdjust="spacing" textLength="125.0107" x="323.0474" y="239.7686">Conversation Context</text></g><g class="message" data-entity-1="part3" data-entity-2="part5" data-source-line="46" id="msg5"><polygon fill="#181818" points="553.7129,270.9766,563.7129,274.9766,553.7129,278.9766,557.7129,274.9766" style="stroke:#181818;stroke-width:1;stroke-linejoin:miter;stroke-miterlimit:10;"/><line style="stroke:#181818;stroke-width:1.5;" x1="306.0474" x2="559.7129" y1="274.9766" y2="274.9766"/><text fill="#000000" font-family="sans-serif" font-size="13" lengthAdjust="spacing" textLength="104.0317" x="313.0474" y="270.1201">Execute Workflow</text></g><g class="message" data-entity-1="part5" data-entity-2="part6" data-source-line="48" id="msg6"><polygon fill="#181818" points="696.9536,301.3281,706.9536,305.3281,696.9536,309.3281,700.9536,305.3281" style="stroke:#181818;stroke-width:1;stroke-linejoin:miter;stroke-miterlimit:10;"/><line style="stroke:#181818;stroke-width:1.5;" x1="565.7129" x2="702.9536" y1="305.3281" y2="305.3281"/><text fill="#000000" font-family="sans-serif" font-size="13" lengthAdjust="spacing" textLength="119.2407" x="572.7129" y="300.4717">Build Execution Plan</text></g><g class="message" data-entity-1="part6" data-entity-2="part5" data-source-line="50" id="msg7"><polygon fill="#181818" points="576.7129,331.6797,566.7129,335.6797,576.7129,339.6797,572.7129,335.6797" style="stroke:#181818;stroke-width:1;stroke-linejoin:miter;stroke-miterlimit:10;"/><line style="stroke:#181818;stroke-width:1.5;stroke-dasharray:2,2;" x1="570.7129" x2="707.9536" y1="335.6797" y2="335.6797"/><text fill="#000000" font-family="sans-serif" font-size="13" lengthAdjust="spacing" textLength="26.019" x="582.7129" y="330.8232">Plan</text></g><g class="message" data-entity-1="part5" data-entity-2="part7" data-source-line="52" id="msg8"><polygon fill="#181818" points="819.0151,362.0313,829.0151,366.0313,819.0151,370.0313,823.0151,366.0313" style="stroke:#181818;stroke-width:1;stroke-linejoin:miter;stroke-miterlimit:10;"/><line style="stroke:#181818;stroke-width:1.5;" x1="565.7129" x2="825.0151" y1="366.0313" y2="366.0313"/><text fill="#000000" font-family="sans-serif" font-size="13" lengthAdjust="spacing" textLength="77.3018" x="572.7129" y="361.1748">Assign Tasks</text></g><g class="message" data-entity-1="part7" data-entity-2="part8" data-source-line="54" id="msg9"><polygon fill="#181818" points="959.3613,392.3828,969.3613,396.3828,959.3613,400.3828,963.3613,396.3828" style="stroke:#181818;stroke-width:1;stroke-linejoin:miter;stroke-miterlimit:10;"/><line style="stroke:#181818;stroke-width:1.5;" x1="831.0151" x2="965.3613" y1="396.3828" y2="396.3828"/><text fill="#000000" font-family="sans-serif" font-size="13" lengthAdjust="spacing" textLength="116.3462" x="838.0151" y="391.5264">Retrieve Knowledge</text></g><g class="message" data-entity-1="part8" data-entity-2="part11" data-source-line="56" id="msg10"><polygon fill="#181818" points="1325.1699,422.7344,1335.1699,426.7344,1325.1699,430.7344,1329.1699,426.7344" style="stroke:#181818;stroke-width:1;stroke-linejoin:miter;stroke-miterlimit:10;"/><line style="stroke:#181818;stroke-width:1.5;" x1="971.3613" x2="1331.1699" y1="426.7344" y2="426.7344"/><text fill="#000000" font-family="sans-serif" font-size="13" lengthAdjust="spacing" textLength="80.2026" x="978.3613" y="421.8779">Embed Query</text></g><g class="message" data-entity-1="part11" data-entity-2="part8" data-source-line="58" id="msg11"><polygon fill="#181818" points="982.3613,453.0859,972.3613,457.0859,982.3613,461.0859,978.3613,457.0859" style="stroke:#181818;stroke-width:1;stroke-linejoin:miter;stroke-miterlimit:10;"/><line style="stroke:#181818;stroke-width:1.5;stroke-dasharray:2,2;" x1="976.3613" x2="1336.1699" y1="457.0859" y2="457.0859"/><text fill="#000000" font-family="sans-serif" font-size="13" lengthAdjust="spacing" textLength="76.5845" x="988.3613" y="452.2295">Query Vector</text></g><g class="message" data-entity-1="part8" data-entity-2="part9" data-source-line="60" id="msg12"><polygon fill="#181818" points="1090.3193,483.4375,1100.3193,487.4375,1090.3193,491.4375,1094.3193,487.4375" style="stroke:#181818;stroke-width:1;stroke-linejoin:miter;stroke-miterlimit:10;"/><line style="stroke:#181818;stroke-width:1.5;" x1="971.3613" x2="1096.3193" y1="487.4375" y2="487.4375"/><text fill="#000000" font-family="sans-serif" font-size="13" lengthAdjust="spacing" textLength="82.3735" x="978.3613" y="482.5811">Vector Search</text></g><g class="message" data-entity-1="part9" data-entity-2="part8" data-source-line="62" id="msg13"><polygon fill="#181818" points="982.3613,513.7891,972.3613,517.7891,982.3613,521.7891,978.3613,517.7891" style="stroke:#181818;stroke-width:1;stroke-linejoin:miter;stroke-miterlimit:10;"/><line style="stroke:#181818;stroke-width:1.5;stroke-dasharray:2,2;" x1="976.3613" x2="1101.3193" y1="517.7891" y2="517.7891"/><text fill="#000000" font-family="sans-serif" font-size="13" lengthAdjust="spacing" textLength="106.958" x="988.3613" y="512.9326">Candidate Chunks</text></g><g class="message" data-entity-1="part8" data-entity-2="part10" data-source-line="64" id="msg14"><polygon fill="#181818" points="1196.9878,544.1406,1206.9878,548.1406,1196.9878,552.1406,1200.9878,548.1406" style="stroke:#181818;stroke-width:1;stroke-linejoin:miter;stroke-miterlimit:10;"/><line style="stroke:#181818;stroke-width:1.5;" x1="971.3613" x2="1202.9878" y1="548.1406" y2="548.1406"/><text fill="#000000" font-family="sans-serif" font-size="13" lengthAdjust="spacing" textLength="117.7681" x="978.3613" y="543.2842">Retrieve Documents</text></g><g class="message" data-entity-1="part10" data-entity-2="part8" data-source-line="66" id="msg15"><polygon fill="#181818" points="982.3613,574.4922,972.3613,578.4922,982.3613,582.4922,978.3613,578.4922" style="stroke:#181818;stroke-width:1;stroke-linejoin:miter;stroke-miterlimit:10;"/><line style="stroke:#181818;stroke-width:1.5;stroke-dasharray:2,2;" x1="976.3613" x2="1207.9878" y1="578.4922" y2="578.4922"/><text fill="#000000" font-family="sans-serif" font-size="13" lengthAdjust="spacing" textLength="106.939" x="988.3613" y="573.6357">Document Chunks</text></g><g class="message" data-entity-1="part8" data-entity-2="part13" data-source-line="68" id="msg16"><polygon fill="#181818" points="1544.7451,604.8438,1554.7451,608.8438,1544.7451,612.8438,1548.7451,608.8438" style="stroke:#181818;stroke-width:1;stroke-linejoin:miter;stroke-miterlimit:10;"/><line style="stroke:#181818;stroke-width:1.5;" x1="971.3613" x2="1550.7451" y1="608.8438" y2="608.8438"/><text fill="#000000" font-family="sans-serif" font-size="13" lengthAdjust="spacing" textLength="77.3081" x="978.3613" y="603.9873">Rank Results</text></g><g class="message" data-entity-1="part13" data-entity-2="part8" data-source-line="70" id="msg17"><polygon fill="#181818" points="982.3613,635.1953,972.3613,639.1953,982.3613,643.1953,978.3613,639.1953" style="stroke:#181818;stroke-width:1;stroke-linejoin:miter;stroke-miterlimit:10;"/><line style="stroke:#181818;stroke-width:1.5;stroke-dasharray:2,2;" x1="976.3613" x2="1555.7451" y1="639.1953" y2="639.1953"/><text fill="#000000" font-family="sans-serif" font-size="13" lengthAdjust="spacing" textLength="70.8145" x="988.3613" y="634.3389">Top Context</text></g><g class="message" data-entity-1="part8" data-entity-2="part12" data-source-line="72" id="msg18"><polygon fill="#181818" points="1431.2661,665.5469,1441.2661,669.5469,1431.2661,673.5469,1435.2661,669.5469" style="stroke:#181818;stroke-width:1;stroke-linejoin:miter;stroke-miterlimit:10;"/><line style="stroke:#181818;stroke-width:1.5;" x1="971.3613" x2="1437.2661" y1="669.5469" y2="669.5469"/><text fill="#000000" font-family="sans-serif" font-size="13" lengthAdjust="spacing" textLength="116.3525" x="978.3613" y="664.6904">Generate Response</text></g><g class="message" data-entity-1="part12" data-entity-2="part8" data-source-line="74" id="msg19"><polygon fill="#181818" points="982.3613,695.8984,972.3613,699.8984,982.3613,703.8984,978.3613,699.8984" style="stroke:#181818;stroke-width:1;stroke-linejoin:miter;stroke-miterlimit:10;"/><line style="stroke:#181818;stroke-width:1.5;stroke-dasharray:2,2;" x1="976.3613" x2="1442.2661" y1="699.8984" y2="699.8984"/><text fill="#000000" font-family="sans-serif" font-size="13" lengthAdjust="spacing" textLength="43.3481" x="988.3613" y="695.042">Answer</text></g><g class="message" data-entity-1="part8" data-entity-2="part7" data-source-line="76" id="msg20"><polygon fill="#181818" points="842.0151,726.25,832.0151,730.25,842.0151,734.25,838.0151,730.25" style="stroke:#181818;stroke-width:1;stroke-linejoin:miter;stroke-miterlimit:10;"/><line style="stroke:#181818;stroke-width:1.5;stroke-dasharray:2,2;" x1="836.0151" x2="970.3613" y1="730.25" y2="730.25"/><text fill="#000000" font-family="sans-serif" font-size="13" lengthAdjust="spacing" textLength="68.6372" x="848.0151" y="725.3936">Final Result</text></g><g class="message" data-entity-1="part7" data-entity-2="part5" data-source-line="78" id="msg21"><polygon fill="#181818" points="576.7129,756.6016,566.7129,760.6016,576.7129,764.6016,572.7129,760.6016" style="stroke:#181818;stroke-width:1;stroke-linejoin:miter;stroke-miterlimit:10;"/><line style="stroke:#181818;stroke-width:1.5;stroke-dasharray:2,2;" x1="570.7129" x2="830.0151" y1="760.6016" y2="760.6016"/><text fill="#000000" font-family="sans-serif" font-size="13" lengthAdjust="spacing" textLength="55.6372" x="582.7129" y="755.7451">Complete</text></g><g class="message" data-entity-1="part5" data-entity-2="part3" data-source-line="80" id="msg22"><polygon fill="#181818" points="317.0474,786.9531,307.0474,790.9531,317.0474,794.9531,313.0474,790.9531" style="stroke:#181818;stroke-width:1;stroke-linejoin:miter;stroke-miterlimit:10;"/><line style="stroke:#181818;stroke-width:1.5;stroke-dasharray:2,2;" x1="311.0474" x2="564.7129" y1="790.9531" y2="790.9531"/><text fill="#000000" font-family="sans-serif" font-size="13" lengthAdjust="spacing" textLength="74.4326" x="323.0474" y="786.0967">AI Response</text></g><g class="message" data-entity-1="part3" data-entity-2="part4" data-source-line="82" id="msg23"><polygon fill="#181818" points="443.0581,817.3047,453.0581,821.3047,443.0581,825.3047,447.0581,821.3047" style="stroke:#181818;stroke-width:1;stroke-linejoin:miter;stroke-miterlimit:10;"/><line style="stroke:#181818;stroke-width:1.5;" x1="306.0474" x2="449.0581" y1="821.3047" y2="821.3047"/><text fill="#000000" font-family="sans-serif" font-size="13" lengthAdjust="spacing" textLength="109.8398" x="313.0474" y="816.4482">Save Conversation</text></g><g class="message" data-entity-1="part3" data-entity-2="part2" data-source-line="84" id="msg24"><polygon fill="#181818" points="184.1099,847.6563,174.1099,851.6563,184.1099,855.6563,180.1099,851.6563" style="stroke:#181818;stroke-width:1;stroke-linejoin:miter;stroke-miterlimit:10;"/><line style="stroke:#181818;stroke-width:1.5;stroke-dasharray:2,2;" x1="178.1099" x2="305.0474" y1="851.6563" y2="851.6563"/><text fill="#000000" font-family="sans-serif" font-size="13" lengthAdjust="spacing" textLength="58.5381" x="190.1099" y="846.7998">Response</text></g><g class="message" data-entity-1="part2" data-entity-2="part1" data-source-line="86" id="msg25"><polygon fill="#181818" points="64.1274,878.0078,54.1274,882.0078,64.1274,886.0078,60.1274,882.0078" style="stroke:#181818;stroke-width:1;stroke-linejoin:miter;stroke-miterlimit:10;"/><line style="stroke:#181818;stroke-width:1.5;stroke-dasharray:2,2;" x1="58.1274" x2="172.1099" y1="882.0078" y2="882.0078"/><text fill="#000000" font-family="sans-serif" font-size="13" lengthAdjust="spacing" textLength="89.5845" x="70.1274" y="877.1514">Display Answer</text></g><?plantuml-src XLHDRzim3BthLn3TEVi0jaiE0rolpO9rM9gaxQKNncOSmOxaIdBJ_ljHaJzahziG113vdfyeFafEkefWdIpWjY7p2YkZCx9MgW8szDIGoaW8MqfLey4Zx30h2wCRbQUwqWPE1-aemkq1SttoN--niZ6I6ADFsuFCIiNwyEdzbmXSeN4oapKgTwbDJYQel_lyqV_-GlnFALtvDtBFVqN_5lw3_QQwmCnnS77PS8VyCUuicGl0i12Y7ig3YpKn6nve1ojj75Q1jvomhj6wPBK4lo6f_4pYM8WS7UxG4bEa8SlxqXdieudG3QfYOR0-mBfHJXu3kyzEsAiAbI83IK7AdPbjPiBRD3MPPsbrJ1sI4_Q3DkL8D2JYmzpc1bimB6DmeNN1uvXMkibXmuV48XnZaMucMzsJSVG2oV9HNHrtbESyTFRC7SB99miwIYNXfyufc14I4rPgD1jxfJAccKUr9YwoR5tk0Y6ytp3xodx2719R-kjZdTIAeQK7lATpMFtQRE73axzQGlWK8xs1ZDzep24ze8FlqkUODS2pNYRLwfcCHR-13_ZahjSRZ9_3rGjbZQDpt_ULFWane4pjN9_3PIEhlALxKOy8qU6pYMn0HrBHOFW6M5aesA8jkUaHnCHs9kRSF6SaFHFyKFfKKLxm1BSWqmRN_35y45ua8I9a5kk51-kU_9MCbS9OCI50VBNHP3p_RNwaaQBA9SyVpzoXKRxuGOTdBgxwcywQ8yyrSpmoakcmDrIwaV5IlE3ODfKNwO6HqbRNWy5HBM5qvxnWVtozh5DhnK-iQB6HJABiYQAkJ0sxbWghjfQnOHFdKtsiA_9FN-H-FvV9CghZZV7U83Sk7jwMrLsSuUExDcj3FwMjAtpjZl4R?></g></svg>