<svg xmlns="http://www.w3.org/2000/svg" xmlns:xlink="http://www.w3.org/1999/xlink" contentStyleType="text/css" data-diagram-type="SEQUENCE" height="827px" preserveAspectRatio="none" style="width:1001px;height:827px;background:#FFFFFF;" version="1.1" viewBox="0 0 1001 827" width="1001px" zoomAndPan="magnify"><?plantuml 1.2026.6?><defs/><g><g class="title" data-source-line="2"><text fill="#000000" font-family="sans-serif" font-size="14" font-weight="700" lengthAdjust="spacing" textLength="248.1787" x="373.0203" y="29.5332">Chat Session Management Sequence</text></g><g class="participant-lifeline" data-entity-uid="part1" data-qualified-name="User" data-source-line="12" id="part1-lifeline"><g><title>Business User</title><rect fill="#000000" fill-opacity="0.00000" height="622.6797" width="8" x="49.1274" y="121.2188"/><line style="stroke:#404040;stroke-width:0.5;stroke-dasharray:5,5;" x1="53" x2="53" y1="121.2188" y2="743.8984"/></g></g><g class="participant-lifeline" data-entity-uid="part2" data-qualified-name="UI" data-source-line="14" id="part2-lifeline"><g><title>React Web Portal</title><rect fill="#000000" fill-opacity="0.00000" height="622.6797" width="8" x="169.1099" y="121.2188"/><line style="stroke:#404040;stroke-width:0.5;stroke-dasharray:5,5;" x1="172.2549" x2="172.2549" y1="121.2188" y2="743.8984"/></g></g><g class="participant-lifeline" data-entity-uid="part3" data-qualified-name="API" data-source-line="16" id="part3-lifeline"><g><title>FastAPI Backend</title><rect fill="#000000" fill-opacity="0.00000" height="622.6797" width="8" x="302.0474" y="121.2188"/><line style="stroke:#404040;stroke-width:0.5;stroke-dasharray:5,5;" x1="305.9648" x2="305.9648" y1="121.2188" y2="743.8984"/></g></g><g class="participant-lifeline" data-entity-uid="part4" data-qualified-name="Session" data-source-line="18" id="part4-lifeline"><g><title>Session Service</title><rect fill="#000000" fill-opacity="0.00000" height="622.6797" width="8" x="430.3193" y="121.2188"/><line style="stroke:#404040;stroke-width:0.5;stroke-dasharray:5,5;" x1="434.1299" x2="434.1299" y1="121.2188" y2="743.8984"/></g></g><g class="participant-lifeline" data-entity-uid="part5" data-qualified-name="Firestore" data-source-line="20" id="part5-lifeline"><g><title>Firestore</title><rect fill="#000000" fill-opacity="0.00000" height="622.6797" width="8" x="567.7583" y="121.2188"/><line style="stroke:#404040;stroke-width:0.5;stroke-dasharray:5,5;" x1="571.1411" x2="571.1411" y1="121.2188" y2="743.8984"/></g></g><g class="participant-lifeline" data-entity-uid="part6" data-qualified-name="Prompt" data-source-line="22" id="part6-lifeline"><g><title>Prompt Builder</title><rect fill="#000000" fill-opacity="0.00000" height="622.6797" width="8" x="661.6719" y="121.2188"/><line style="stroke:#404040;stroke-width:0.5;stroke-dasharray:5,5;" x1="665.3755" x2="665.3755" y1="121.2188" y2="743.8984"/></g></g><g class="participant-lifeline" data-entity-uid="part7" data-qualified-name="LangGraph" data-source-line="24" id="part7-lifeline"><g><title>LangGraph Runtime</title><rect fill="#000000" fill-opacity="0.00000" height="622.6797" width="8" x="810.0771" y="121.2188"/><line style="stroke:#404040;stroke-width:0.5;stroke-dasharray:5,5;" x1="814.0396" x2="814.0396" y1="121.2188" y2="743.8984"/></g></g><g class="participant-lifeline" data-entity-uid="part8" data-qualified-name="Gemini" data-source-line="26" id="part8-lifeline"><g><title>Vertex AI</title><rect fill="#000000" fill-opacity="0.00000" height="622.6797" width="8" x="950.4297" y="121.2188"/><line style="stroke:#404040;stroke-width:0.5;stroke-dasharray:5,5;" x1="953.6401" x2="953.6401" y1="121.2188" y2="743.8984"/></g></g><g class="participant participant-head" data-entity-uid="part1" data-qualified-name="User" data-source-line="12" id="part1-head"><text fill="#000000" font-family="sans-serif" font-size="14" lengthAdjust="spacing" textLength="90.2549" x="5" y="118.1426">Business User</text><ellipse cx="53.1274" cy="52.1094" fill="#E2E2F0" rx="8" ry="8" style="stroke:#181818;stroke-width:0.5;"/><path d="M53.1274,60.1094 L53.1274,87.1094 M40.1274,68.1094 L66.1274,68.1094 M53.1274,87.1094 L40.1274,102.1094 M53.1274,87.1094 L66.1274,102.1094" fill="none" style="stroke:#181818;stroke-width:0.5;"/></g><g class="participant participant-tail" data-entity-uid="part1" data-qualified-name="User" data-source-line="12" id="part1-tail"><text fill="#000000" font-family="sans-serif" font-size="14" lengthAdjust="spacing" textLength="90.2549" x="5" y="757.4316">Business User</text><ellipse cx="53.1274" cy="769.0078" fill="#E2E2F0" rx="8" ry="8" style="stroke:#181818;stroke-width:0.5;"/><path d="M53.1274,777.0078 L53.1274,804.0078 M40.1274,785.0078 L66.1274,785.0078 M53.1274,804.0078 L40.1274,819.0078 M53.1274,804.0078 L66.1274,819.0078" fill="none" style="stroke:#181818;stroke-width:0.5;"/></g><g class="participant participant-head" data-entity-uid="part2" data-qualified-name="UI" data-source-line="14" id="part2-head"><rect fill="#FFFFFF" height="31.6094" rx="2.5" ry="2.5" style="stroke:#404040;stroke-width:0.5;" width="123.71" x="111.2549" y="88.6094"/><text fill="#000000" font-family="sans-serif" font-size="14" lengthAdjust="spacing" textLength="109.71" x="118.2549" y="110.1426">React Web Portal</text></g><g class="participant participant-tail" data-entity-uid="part2" data-qualified-name="UI" data-source-line="14" id="part2-tail"><rect fill="#FFFFFF" height="31.6094" rx="2.5" ry="2.5" style="stroke:#404040;stroke-width:0.5;" width="123.71" x="111.2549" y="742.8984"/><text fill="#000000" font-family="sans-serif" font-size="14" lengthAdjust="spacing" textLength="109.71" x="118.2549" y="764.4316">React Web Portal</text></g><g class="participant participant-head" data-entity-uid="part3" data-qualified-name="API" data-source-line="16" id="part3-head"><rect fill="#FFFFFF" height="31.6094" rx="2.5" ry="2.5" style="stroke:#404040;stroke-width:0.5;" width="122.165" x="244.9648" y="88.6094"/><text fill="#000000" font-family="sans-serif" font-size="14" lengthAdjust="spacing" textLength="108.165" x="251.9648" y="110.1426">FastAPI Backend</text></g><g class="participant participant-tail" data-entity-uid="part3" data-qualified-name="API" data-source-line="16" id="part3-tail"><rect fill="#FFFFFF" height="31.6094" rx="2.5" ry="2.5" style="stroke:#404040;stroke-width:0.5;" width="122.165" x="244.9648" y="742.8984"/><text fill="#000000" font-family="sans-serif" font-size="14" lengthAdjust="spacing" textLength="108.165" x="251.9648" y="764.4316">FastAPI Backend</text></g><g class="participant participant-head" data-entity-uid="part4" data-qualified-name="Session" data-source-line="18" id="part4-head"><rect fill="#FFFFFF" height="31.6094" rx="2.5" ry="2.5" style="stroke:#404040;stroke-width:0.5;" width="114.3789" x="377.1299" y="88.6094"/><text fill="#000000" font-family="sans-serif" font-size="14" lengthAdjust="spacing" textLength="100.3789" x="384.1299" y="110.1426">Session Service</text></g><g class="participant participant-tail" data-entity-uid="part4" data-qualified-name="Session" data-source-line="18" id="part4-tail"><rect fill="#FFFFFF" height="31.6094" rx="2.5" ry="2.5" style="stroke:#404040;stroke-width:0.5;" width="114.3789" x="377.1299" y="742.8984"/><text fill="#000000" font-family="sans-serif" font-size="14" lengthAdjust="spacing" textLength="100.3789" x="384.1299" y="764.4316">Session Service</text></g><g class="participant participant-head" data-entity-uid="part5" data-qualified-name="Firestore" data-source-line="20" id="part5-head"><text fill="#000000" font-family="sans-serif" font-size="14" lengthAdjust="spacing" textLength="55.2344" x="541.1411" y="118.1426">Firestore</text><path d="M553.7583,67.6094 C553.7583,57.6094 571.7583,57.6094 571.7583,57.6094 C571.7583,57.6094 589.7583,57.6094 589.7583,67.6094 L589.7583,93.6094 C589.7583,103.6094 571.7583,103.6094 571.7583,103.6094 C571.7583,103.6094 553.7583,103.6094 553.7583,93.6094 L553.7583,67.6094" fill="#E2E2F0" style="stroke:#181818;stroke-width:0.5;"/><path d="M553.7583,67.6094 C553.7583,77.6094 571.7583,77.6094 571.7583,77.6094 C571.7583,77.6094 589.7583,77.6094 589.7583,67.6094" fill="none" style="stroke:#181818;stroke-width:0.5;"/></g><g class="participant participant-tail" data-entity-uid="part5" data-qualified-name="Firestore" data-source-line="20" id="part5-tail"><text fill="#000000" font-family="sans-serif" font-size="14" lengthAdjust="spacing" textLength="55.2344" x="541.1411" y="757.4316">Firestore</text><path d="M553.7583,770.5078 C553.7583,760.5078 571.7583,760.5078 571.7583,760.5078 C571.7583,760.5078 589.7583,760.5078 589.7583,770.5078 L589.7583,796.5078 C589.7583,806.5078 571.7583,806.5078 571.7583,806.5078 C571.7583,806.5078 553.7583,806.5078 553.7583,796.5078 L553.7583,770.5078" fill="#E2E2F0" style="stroke:#181818;stroke-width:0.5;"/><path d="M553.7583,770.5078 C553.7583,780.5078 571.7583,780.5078 571.7583,780.5078 C571.7583,780.5078 589.7583,780.5078 589.7583,770.5078" fill="none" style="stroke:#181818;stroke-width:0.5;"/></g><g class="participant participant-head" data-entity-uid="part6" data-qualified-name="Prompt" data-source-line="22" id="part6-head"><rect fill="#FFFFFF" height="31.6094" rx="2.5" ry="2.5" style="stroke:#404040;stroke-width:0.5;" width="106.5928" x="612.3755" y="88.6094"/><text fill="#000000" font-family="sans-serif" font-size="14" lengthAdjust="spacing" textLength="92.5928" x="619.3755" y="110.1426">Prompt Builder</text></g><g class="participant participant-tail" data-entity-uid="part6" data-qualified-name="Prompt" data-source-line="22" id="part6-tail"><rect fill="#FFFFFF" height="31.6094" rx="2.5" ry="2.5" style="stroke:#404040;stroke-width:0.5;" width="106.5928" x="612.3755" y="742.8984"/><text fill="#000000" font-family="sans-serif" font-size="14" lengthAdjust="spacing" textLength="92.5928" x="619.3755" y="764.4316">Prompt Builder</text></g><g class="participant participant-head" data-entity-uid="part7" data-qualified-name="LangGraph" data-source-line="24" id="part7-head"><rect fill="#FFFFFF" height="31.6094" rx="2.5" ry="2.5" style="stroke:#404040;stroke-width:0.5;" width="140.0752" x="744.0396" y="88.6094"/><text fill="#000000" font-family="sans-serif" font-size="14" lengthAdjust="spacing" textLength="126.0752" x="751.0396" y="110.1426">LangGraph Runtime</text></g><g class="participant participant-tail" data-entity-uid="part7" data-qualified-name="LangGraph" data-source-line="24" id="part7-tail"><rect fill="#FFFFFF" height="31.6094" rx="2.5" ry="2.5" style="stroke:#404040;stroke-width:0.5;" width="140.0752" x="744.0396" y="742.8984"/><text fill="#000000" font-family="sans-serif" font-size="14" lengthAdjust="spacing" textLength="126.0752" x="751.0396" y="764.4316">LangGraph Runtime</text></g><g class="participant participant-head" data-entity-uid="part8" data-qualified-name="Gemini" data-source-line="26" id="part8-head"><rect fill="#FFFFFF" height="31.6094" rx="2.5" ry="2.5" style="stroke:#404040;stroke-width:0.5;" width="71.5791" x="918.6401" y="88.6094"/><text fill="#000000" font-family="sans-serif" font-size="14" lengthAdjust="spacing" textLength="57.5791" x="925.6401" y="110.1426">Vertex AI</text></g><g class="participant participant-tail" data-entity-uid="part8" data-qualified-name="Gemini" data-source-line="26" id="part8-tail"><rect fill="#FFFFFF" height="31.6094" rx="2.5" ry="2.5" style="stroke:#404040;stroke-width:0.5;" width="71.5791" x="918.6401" y="742.8984"/><text fill="#000000" font-family="sans-serif" font-size="14" lengthAdjust="spacing" textLength="57.5791" x="925.6401" y="764.4316">Vertex AI</text></g><g class="message" data-entity-1="part1" data-entity-2="part2" data-source-line="28" id="msg1"><polygon fill="#181818" points="161.1099,149.5703,171.1099,153.5703,161.1099,157.5703,165.1099,153.5703" style="stroke:#181818;stroke-width:1;stroke-linejoin:miter;stroke-miterlimit:10;"/><line style="stroke:#181818;stroke-width:1.5;" x1="53.1274" x2="167.1099" y1="153.5703" y2="153.5703"/><text fill="#000000" font-family="sans-serif" font-size="13" lengthAdjust="spacing" textLength="77.3145" x="60.1274" y="148.7139">Ask Question</text></g><g class="message" data-entity-1="part2" data-entity-2="part3" data-source-line="30" id="msg2"><polygon fill="#181818" points="294.0474,179.9219,304.0474,183.9219,294.0474,187.9219,298.0474,183.9219" style="stroke:#181818;stroke-width:1;stroke-linejoin:miter;stroke-miterlimit:10;"/><line style="stroke:#181818;stroke-width:1.5;" x1="173.1099" x2="300.0474" y1="183.9219" y2="183.9219"/><text fill="#000000" font-family="sans-serif" font-size="13" lengthAdjust="spacing" textLength="75.1372" x="180.1099" y="179.0654">POST /query</text></g><g class="message" data-entity-1="part3" data-entity-2="part4" data-source-line="32" id="msg3"><polygon fill="#181818" points="422.3193,210.2734,432.3193,214.2734,422.3193,218.2734,426.3193,214.2734" style="stroke:#181818;stroke-width:1;stroke-linejoin:miter;stroke-miterlimit:10;"/><line style="stroke:#181818;stroke-width:1.5;" x1="306.0474" x2="428.3193" y1="214.2734" y2="214.2734"/><text fill="#000000" font-family="sans-serif" font-size="13" lengthAdjust="spacing" textLength="78.7808" x="313.0474" y="209.417">Load Session</text></g><g class="message" data-entity-1="part4" data-entity-2="part5" data-source-line="34" id="msg4"><polygon fill="#181818" points="559.7583,240.625,569.7583,244.625,559.7583,248.625,563.7583,244.625" style="stroke:#181818;stroke-width:1;stroke-linejoin:miter;stroke-miterlimit:10;"/><line style="stroke:#181818;stroke-width:1.5;" x1="434.3193" x2="565.7583" y1="244.625" y2="244.625"/><text fill="#000000" font-family="sans-serif" font-size="13" lengthAdjust="spacing" textLength="106.209" x="441.3193" y="239.7686">Read Chat History</text></g><g class="message" data-entity-1="part5" data-entity-2="part4" data-source-line="36" id="msg5"><polygon fill="#181818" points="445.3193,270.9766,435.3193,274.9766,445.3193,278.9766,441.3193,274.9766" style="stroke:#181818;stroke-width:1;stroke-linejoin:miter;stroke-miterlimit:10;"/><line style="stroke:#181818;stroke-width:1.5;stroke-dasharray:2,2;" x1="439.3193" x2="570.7583" y1="274.9766" y2="274.9766"/><text fill="#000000" font-family="sans-serif" font-size="13" lengthAdjust="spacing" textLength="113.439" x="451.3193" y="270.1201">Previous Messages</text></g><g class="message" data-entity-1="part4" data-entity-2="part3" data-source-line="38" id="msg6"><polygon fill="#181818" points="317.0474,301.3281,307.0474,305.3281,317.0474,309.3281,313.0474,305.3281" style="stroke:#181818;stroke-width:1;stroke-linejoin:miter;stroke-miterlimit:10;"/><line style="stroke:#181818;stroke-width:1.5;stroke-dasharray:2,2;" x1="311.0474" x2="433.3193" y1="305.3281" y2="305.3281"/><text fill="#000000" font-family="sans-serif" font-size="13" lengthAdjust="spacing" textLength="94.6626" x="323.0474" y="300.4717">Session Context</text></g><g class="message" data-entity-1="part3" data-entity-2="part6" data-source-line="40" id="msg7"><polygon fill="#181818" points="653.6719,331.6797,663.6719,335.6797,653.6719,339.6797,657.6719,335.6797" style="stroke:#181818;stroke-width:1;stroke-linejoin:miter;stroke-miterlimit:10;"/><line style="stroke:#181818;stroke-width:1.5;" x1="306.0474" x2="659.6719" y1="335.6797" y2="335.6797"/><text fill="#000000" font-family="sans-serif" font-size="13" lengthAdjust="spacing" textLength="74.4199" x="313.0474" y="330.8232">Build Prompt</text></g><g class="message" data-entity-1="part6" data-entity-2="part6" data-source-line="42" id="msg8"><line style="stroke:#181818;stroke-width:1.5;" x1="665.6719" x2="707.6719" y1="366.0313" y2="366.0313"/><line style="stroke:#181818;stroke-width:1.5;" x1="707.6719" x2="707.6719" y1="366.0313" y2="379.0313"/><line style="stroke:#181818;stroke-width:1.5;" x1="666.6719" x2="707.6719" y1="379.0313" y2="379.0313"/><polygon fill="#181818" points="676.6719,375.0313,666.6719,379.0313,676.6719,383.0313,672.6719,379.0313" style="stroke:#181818;stroke-width:1;stroke-linejoin:miter;stroke-miterlimit:10;"/><text fill="#000000" font-family="sans-serif" font-size="13" lengthAdjust="spacing" textLength="134.4053" x="672.6719" y="361.1748">Keep Last N Messages</text></g><g class="message" data-entity-1="part6" data-entity-2="part6" data-source-line="44" id="msg9"><line style="stroke:#181818;stroke-width:1.5;" x1="665.6719" x2="707.6719" y1="409.3828" y2="409.3828"/><line style="stroke:#181818;stroke-width:1.5;" x1="707.6719" x2="707.6719" y1="409.3828" y2="422.3828"/><line style="stroke:#181818;stroke-width:1.5;" x1="666.6719" x2="707.6719" y1="422.3828" y2="422.3828"/><polygon fill="#181818" points="676.6719,418.3828,666.6719,422.3828,676.6719,426.3828,672.6719,422.3828" style="stroke:#181818;stroke-width:1;stroke-linejoin:miter;stroke-miterlimit:10;"/><text fill="#000000" font-family="sans-serif" font-size="13" lengthAdjust="spacing" textLength="93.2026" x="672.6719" y="404.5264">Add User Query</text></g><g class="message" data-entity-1="part6" data-entity-2="part3" data-source-line="46" id="msg10"><polygon fill="#181818" points="317.0474,448.7344,307.0474,452.7344,317.0474,456.7344,313.0474,452.7344" style="stroke:#181818;stroke-width:1;stroke-linejoin:miter;stroke-miterlimit:10;"/><line style="stroke:#181818;stroke-width:1.5;stroke-dasharray:2,2;" x1="311.0474" x2="664.6719" y1="452.7344" y2="452.7344"/><text fill="#000000" font-family="sans-serif" font-size="13" lengthAdjust="spacing" textLength="73.6899" x="323.0474" y="447.8779">Final Prompt</text></g><g class="message" data-entity-1="part3" data-entity-2="part7" data-source-line="48" id="msg11"><polygon fill="#181818" points="802.0771,479.0859,812.0771,483.0859,802.0771,487.0859,806.0771,483.0859" style="stroke:#181818;stroke-width:1;stroke-linejoin:miter;stroke-miterlimit:10;"/><line style="stroke:#181818;stroke-width:1.5;" x1="306.0474" x2="808.0771" y1="483.0859" y2="483.0859"/><text fill="#000000" font-family="sans-serif" font-size="13" lengthAdjust="spacing" textLength="104.0317" x="313.0474" y="478.2295">Execute Workflow</text></g><g class="message" data-entity-1="part7" data-entity-2="part8" data-source-line="50" id="msg12"><polygon fill="#181818" points="942.4297,509.4375,952.4297,513.4375,942.4297,517.4375,946.4297,513.4375" style="stroke:#181818;stroke-width:1;stroke-linejoin:miter;stroke-miterlimit:10;"/><line style="stroke:#181818;stroke-width:1.5;" x1="814.0771" x2="948.4297" y1="513.4375" y2="513.4375"/><text fill="#000000" font-family="sans-serif" font-size="13" lengthAdjust="spacing" textLength="116.3525" x="821.0771" y="508.5811">Generate Response</text></g><g class="message" data-entity-1="part8" data-entity-2="part7" data-source-line="52" id="msg13"><polygon fill="#181818" points="825.0771,539.7891,815.0771,543.7891,825.0771,547.7891,821.0771,543.7891" style="stroke:#181818;stroke-width:1;stroke-linejoin:miter;stroke-miterlimit:10;"/><line style="stroke:#181818;stroke-width:1.5;stroke-dasharray:2,2;" x1="819.0771" x2="953.4297" y1="543.7891" y2="543.7891"/><text fill="#000000" font-family="sans-serif" font-size="13" lengthAdjust="spacing" textLength="74.4326" x="831.0771" y="538.9326">AI Response</text></g><g class="message" data-entity-1="part7" data-entity-2="part3" data-source-line="54" id="msg14"><polygon fill="#181818" points="317.0474,570.1406,307.0474,574.1406,317.0474,578.1406,313.0474,574.1406" style="stroke:#181818;stroke-width:1;stroke-linejoin:miter;stroke-miterlimit:10;"/><line style="stroke:#181818;stroke-width:1.5;stroke-dasharray:2,2;" x1="311.0474" x2="813.0771" y1="574.1406" y2="574.1406"/><text fill="#000000" font-family="sans-serif" font-size="13" lengthAdjust="spacing" textLength="58.5381" x="323.0474" y="569.2842">Response</text></g><g class="message" data-entity-1="part3" data-entity-2="part5" data-source-line="56" id="msg15"><polygon fill="#181818" points="559.7583,600.4922,569.7583,604.4922,559.7583,608.4922,563.7583,604.4922" style="stroke:#181818;stroke-width:1;stroke-linejoin:miter;stroke-miterlimit:10;"/><line style="stroke:#181818;stroke-width:1.5;" x1="306.0474" x2="565.7583" y1="604.4922" y2="604.4922"/><text fill="#000000" font-family="sans-serif" font-size="13" lengthAdjust="spacing" textLength="118.4917" x="313.0474" y="599.6357">Store User Message</text></g><g class="message" data-entity-1="part3" data-entity-2="part5" data-source-line="58" id="msg16"><polygon fill="#181818" points="559.7583,630.8438,569.7583,634.8438,559.7583,638.8438,563.7583,634.8438" style="stroke:#181818;stroke-width:1;stroke-linejoin:miter;stroke-miterlimit:10;"/><line style="stroke:#181818;stroke-width:1.5;" x1="306.0474" x2="565.7583" y1="634.8438" y2="634.8438"/><text fill="#000000" font-family="sans-serif" font-size="13" lengthAdjust="spacing" textLength="149.5762" x="313.0474" y="629.9873">Store Assistant Response</text></g><g class="message" data-entity-1="part5" data-entity-2="part3" data-source-line="60" id="msg17"><polygon fill="#181818" points="317.0474,661.1953,307.0474,665.1953,317.0474,669.1953,313.0474,665.1953" style="stroke:#181818;stroke-width:1;stroke-linejoin:miter;stroke-miterlimit:10;"/><line style="stroke:#181818;stroke-width:1.5;stroke-dasharray:2,2;" x1="311.0474" x2="570.7583" y1="665.1953" y2="665.1953"/><text fill="#000000" font-family="sans-serif" font-size="13" lengthAdjust="spacing" textLength="49.1309" x="323.0474" y="660.3389">Success</text></g><g class="message" data-entity-1="part3" data-entity-2="part2" data-source-line="62" id="msg18"><polygon fill="#181818" points="184.1099,691.5469,174.1099,695.5469,184.1099,699.5469,180.1099,695.5469" style="stroke:#181818;stroke-width:1;stroke-linejoin:miter;stroke-miterlimit:10;"/><line style="stroke:#181818;stroke-width:1.5;stroke-dasharray:2,2;" x1="178.1099" x2="305.0474" y1="695.5469" y2="695.5469"/><text fill="#000000" font-family="sans-serif" font-size="13" lengthAdjust="spacing" textLength="90.3271" x="190.1099" y="690.6904">Final Response</text></g><g class="message" data-entity-1="part2" data-entity-2="part1" data-source-line="64" id="msg19"><polygon fill="#181818" points="64.1274,721.8984,54.1274,725.8984,64.1274,729.8984,60.1274,725.8984" style="stroke:#181818;stroke-width:1;stroke-linejoin:miter;stroke-miterlimit:10;"/><line style="stroke:#181818;stroke-width:1.5;stroke-dasharray:2,2;" x1="58.1274" x2="172.1099" y1="725.8984" y2="725.8984"/><text fill="#000000" font-family="sans-serif" font-size="13" lengthAdjust="spacing" textLength="89.5845" x="70.1274" y="721.042">Display Answer</text></g><?plantuml-src XPF9Rjim48RlV8g1UtONeBteK41s6zUeqwfsblDO6bk4958bgJXv-mubQecQfZ0CcpEVVlwpo4bN4gnpT70WQwLMS8qAprIHyg7V3QcKXB25L3KQhE28QN4skb7PMfVQm2MNZYPvcsEcBrATuOIbdMPYO_Jb9fTfeVWg-F3sqoIPe74obJKgjz8c8zEfl_dutd_-0Vx7Icz_9q_yLVIwy5_qY-e2KyU7nQgniYtZrf9P07P_XAX7Ux3O4zDmJqT8j75OTjnsHbsXTN6o1NyXgQo5-3oZ-l4So3p8b5egn8J8qE4HBR6OD6JPOGSCfvbOOdHLErWriio2_IuqutQepXk3TGxxHZbPTQf3T4RVaN7q2F6sfJPKIIM5y7s1vMUk6oA8RG6_6lRKskOG9tpj4IG_3pVmZaTWdeJm8SxqDKUmqvYDvVPnHeOA6U9sPzqkVvC-na9ZUlbCBp7q87LZuPf3lEvs8ZfOwYDhhRWkDzWAtOkw_WsT2-4fy9sevdPP1pycDxq0nbdMBf1lZlVT8uENAwcm7AuAHiRnHF3raTB64TnhKvnAVH5Yp3BQJOEv3IaooE2URAqLlw4Yv9OpnNWxOIPYWwSn6_nCXt5eVzkQGkMlO34tsZg_HAFcyz65YJHfoc91gL-ghZVZaxSXv--Eu8kqTObF42jxuJVq3m00?></g></svg>