<svg xmlns="http://www.w3.org/2000/svg" xmlns:xlink="http://www.w3.org/1999/xlink" contentStyleType="text/css" data-diagram-type="SEQUENCE" height="750px" preserveAspectRatio="none" style="width:1082px;height:750px;background:#FFFFFF;" version="1.1" viewBox="0 0 1082 750" width="1082px" zoomAndPan="magnify"><?plantuml 1.2026.6?><defs/><g><g class="title" data-source-line="1"><text fill="#000000" font-family="sans-serif" font-size="14" font-weight="700" lengthAdjust="spacing" textLength="269.9443" x="402.7053" y="29.5332">Google Drive Synchronization Sequence</text></g><g><title>Google Drive</title><rect fill="#FFFFFF" height="487.625" style="stroke:#181818;stroke-width:1;" width="10" x="223.6094" y="157.1797"/></g><g><title>Google Drive API</title><rect fill="#FFFFFF" height="30.3516" style="stroke:#181818;stroke-width:1;" width="10" x="371.1265" y="187.5313"/></g><g><title>Google Drive API</title><rect fill="#FFFFFF" height="30.3516" style="stroke:#181818;stroke-width:1;" width="10" x="371.1265" y="273.5859"/></g><g><title>Document Service</title><rect fill="#FFFFFF" height="273.1641" style="stroke:#181818;stroke-width:1;" width="10" x="506.395" y="334.2891"/></g><g><title>Storage Service</title><rect fill="#FFFFFF" height="91.0547" style="stroke:#181818;stroke-width:1;" width="10" x="637.3877" y="364.6406"/></g><g><title>Google Cloud Storage</title><rect fill="#FFFFFF" height="30.3516" style="stroke:#181818;stroke-width:1;" width="10" x="776.4595" y="394.9922"/></g><g><title>Ingestion Service</title><rect fill="#FFFFFF" height="30.3516" style="stroke:#181818;stroke-width:1;" width="10" x="919.4243" y="546.75"/></g><g><title>Firestore</title><rect fill="#FFFFFF" height="30.3516" style="stroke:#181818;stroke-width:1;" width="10" x="1020.7378" y="486.0469"/></g><rect fill="none" height="382.5703" style="stroke:#000000;stroke-width:1.5;" width="895.5972" x="170.7578" y="232.8828"/><g class="participant-lifeline" data-entity-uid="part1" data-qualified-name="Scheduler" data-source-line="6" id="part1-lifeline"><g><title>Scheduler</title><rect fill="#000000" fill-opacity="0.00000" height="537.9766" width="8" x="39.5205" y="124.8281"/><line style="stroke:#181818;stroke-width:0.5;stroke-dasharray:5,5;" x1="43" x2="43" y1="124.8281" y2="662.8047"/></g></g><g class="participant-lifeline" data-entity-uid="part2" data-qualified-name="Connector" data-source-line="7" id="part2-lifeline"><g><title>Google Drive</title><rect fill="#000000" fill-opacity="0.00000" height="537.9766" width="8" x="224.6094" y="124.8281"/><line style="stroke:#181818;stroke-width:0.5;stroke-dasharray:5,5;" x1="227.7578" x2="227.7578" y1="124.8281" y2="662.8047"/></g></g><g class="participant-lifeline" data-entity-uid="part3" data-qualified-name="Drive" data-source-line="8" id="part3-lifeline"><g><title>Google Drive API</title><rect fill="#000000" fill-opacity="0.00000" height="537.9766" width="8" x="372.1265" y="124.8281"/><line style="stroke:#181818;stroke-width:0.5;stroke-dasharray:5,5;" x1="376.0474" x2="376.0474" y1="124.8281" y2="662.8047"/></g></g><g class="participant-lifeline" data-entity-uid="part4" data-qualified-name="Document" data-source-line="9" id="part4-lifeline"><g><title>Document Service</title><rect fill="#000000" fill-opacity="0.00000" height="537.9766" width="8" x="507.395" y="124.8281"/><line style="stroke:#181818;stroke-width:0.5;stroke-dasharray:5,5;" x1="511.2056" x2="511.2056" y1="124.8281" y2="662.8047"/></g></g><g class="participant-lifeline" data-entity-uid="part5" data-qualified-name="Storage" data-source-line="10" id="part5-lifeline"><g><title>Storage Service</title><rect fill="#000000" fill-opacity="0.00000" height="537.9766" width="8" x="638.3877" y="124.8281"/><line style="stroke:#181818;stroke-width:0.5;stroke-dasharray:5,5;" x1="641.5845" x2="641.5845" y1="124.8281" y2="662.8047"/></g></g><g class="participant-lifeline" data-entity-uid="part6" data-qualified-name="GCS" data-source-line="11" id="part6-lifeline"><g><title>Google Cloud Storage</title><rect fill="#000000" fill-opacity="0.00000" height="537.9766" width="8" x="777.4595" y="124.8281"/><line style="stroke:#181818;stroke-width:0.5;stroke-dasharray:5,5;" x1="781.1909" x2="781.1909" y1="124.8281" y2="662.8047"/></g></g><g class="participant-lifeline" data-entity-uid="part7" data-qualified-name="Ingestion" data-source-line="12" id="part7-lifeline"><g><title>Ingestion Service</title><rect fill="#000000" fill-opacity="0.00000" height="537.9766" width="8" x="920.4243" y="124.8281"/><line style="stroke:#181818;stroke-width:0.5;stroke-dasharray:5,5;" x1="923.728" x2="923.728" y1="124.8281" y2="662.8047"/></g></g><g class="participant-lifeline" data-entity-uid="part8" data-qualified-name="Registry" data-source-line="13" id="part8-lifeline"><g><title>Firestore</title><rect fill="#000000" fill-opacity="0.00000" height="537.9766" width="8" x="1021.7378" y="124.8281"/><line style="stroke:#181818;stroke-width:0.5;stroke-dasharray:5,5;" x1="1025.1206" x2="1025.1206" y1="124.8281" y2="662.8047"/></g></g><g class="participant participant-head" data-entity-uid="part1" data-qualified-name="Scheduler" data-source-line="6" id="part1-head"><rect fill="#E2E2F0" height="31.6094" rx="2.5" ry="2.5" style="stroke:#181818;stroke-width:0.5;" width="77.041" x="5" y="92.2188"/><text fill="#000000" font-family="sans-serif" font-size="14" lengthAdjust="spacing" textLength="63.041" x="12" y="113.752">Scheduler</text></g><g class="participant participant-tail" data-entity-uid="part1" data-qualified-name="Scheduler" data-source-line="6" id="part1-tail"><rect fill="#E2E2F0" height="31.6094" rx="2.5" ry="2.5" style="stroke:#181818;stroke-width:0.5;" width="77.041" x="5" y="661.8047"/><text fill="#000000" font-family="sans-serif" font-size="14" lengthAdjust="spacing" textLength="63.041" x="12" y="683.3379">Scheduler</text></g><g class="participant participant-head" data-entity-uid="part2" data-qualified-name="Connector" data-source-line="7" id="part2-head"><rect fill="#E2E2F0" height="49.2188" rx="2.5" ry="2.5" style="stroke:#181818;stroke-width:0.5;" width="95.7031" x="180.7578" y="74.6094"/><text fill="#000000" font-family="sans-serif" font-size="14" lengthAdjust="spacing" textLength="81.7031" x="187.7578" y="96.1426">Google Drive</text><text fill="#000000" font-family="sans-serif" font-size="14" lengthAdjust="spacing" textLength="64.5928" x="196.313" y="113.752">Connector</text></g><g class="participant participant-tail" data-entity-uid="part2" data-qualified-name="Connector" data-source-line="7" id="part2-tail"><rect fill="#E2E2F0" height="49.2188" rx="2.5" ry="2.5" style="stroke:#181818;stroke-width:0.5;" width="95.7031" x="180.7578" y="661.8047"/><text fill="#000000" font-family="sans-serif" font-size="14" lengthAdjust="spacing" textLength="81.7031" x="187.7578" y="683.3379">Google Drive</text><text fill="#000000" font-family="sans-serif" font-size="14" lengthAdjust="spacing" textLength="64.5928" x="196.313" y="700.9473">Connector</text></g><g class="participant participant-head" data-entity-uid="part3" data-qualified-name="Drive" data-source-line="8" id="part3-head"><rect fill="#E2E2F0" height="31.6094" rx="2.5" ry="2.5" style="stroke:#181818;stroke-width:0.5;" width="122.1582" x="315.0474" y="92.2188"/><text fill="#000000" font-family="sans-serif" font-size="14" lengthAdjust="spacing" textLength="108.1582" x="322.0474" y="113.752">Google Drive API</text></g><g class="participant participant-tail" data-entity-uid="part3" data-qualified-name="Drive" data-source-line="8" id="part3-tail"><rect fill="#E2E2F0" height="31.6094" rx="2.5" ry="2.5" style="stroke:#181818;stroke-width:0.5;" width="122.1582" x="315.0474" y="661.8047"/><text fill="#000000" font-family="sans-serif" font-size="14" lengthAdjust="spacing" textLength="108.1582" x="322.0474" y="683.3379">Google Drive API</text></g><g class="participant participant-head" data-entity-uid="part4" data-qualified-name="Document" data-source-line="9" id="part4-head"><rect fill="#E2E2F0" height="31.6094" rx="2.5" ry="2.5" style="stroke:#181818;stroke-width:0.5;" width="128.3789" x="447.2056" y="92.2188"/><text fill="#000000" font-family="sans-serif" font-size="14" lengthAdjust="spacing" textLength="114.3789" x="454.2056" y="113.752">Document Service</text></g><g class="participant participant-tail" data-entity-uid="part4" data-qualified-name="Document" data-source-line="9" id="part4-tail"><rect fill="#E2E2F0" height="31.6094" rx="2.5" ry="2.5" style="stroke:#181818;stroke-width:0.5;" width="128.3789" x="447.2056" y="661.8047"/><text fill="#000000" font-family="sans-serif" font-size="14" lengthAdjust="spacing" textLength="114.3789" x="454.2056" y="683.3379">Document Service</text></g><g class="participant participant-head" data-entity-uid="part5" data-qualified-name="Storage" data-source-line="10" id="part5-head"><rect fill="#E2E2F0" height="31.6094" rx="2.5" ry="2.5" style="stroke:#181818;stroke-width:0.5;" width="113.6064" x="585.5845" y="92.2188"/><text fill="#000000" font-family="sans-serif" font-size="14" lengthAdjust="spacing" textLength="99.6064" x="592.5845" y="113.752">Storage Service</text></g><g class="participant participant-tail" data-entity-uid="part5" data-qualified-name="Storage" data-source-line="10" id="part5-tail"><rect fill="#E2E2F0" height="31.6094" rx="2.5" ry="2.5" style="stroke:#181818;stroke-width:0.5;" width="113.6064" x="585.5845" y="661.8047"/><text fill="#000000" font-family="sans-serif" font-size="14" lengthAdjust="spacing" textLength="99.6064" x="592.5845" y="683.3379">Storage Service</text></g><g class="participant participant-head" data-entity-uid="part6" data-qualified-name="GCS" data-source-line="11" id="part6-head"><text fill="#000000" font-family="sans-serif" font-size="14" lengthAdjust="spacing" textLength="138.5371" x="709.1909" y="121.752">Google Cloud Storage</text><path d="M763.4595,71.2188 C763.4595,61.2188 781.4595,61.2188 781.4595,61.2188 C781.4595,61.2188 799.4595,61.2188 799.4595,71.2188 L799.4595,97.2188 C799.4595,107.2188 781.4595,107.2188 781.4595,107.2188 C781.4595,107.2188 763.4595,107.2188 763.4595,97.2188 L763.4595,71.2188" fill="#E2E2F0" style="stroke:#181818;stroke-width:0.5;"/><path d="M763.4595,71.2188 C763.4595,81.2188 781.4595,81.2188 781.4595,81.2188 C781.4595,81.2188 799.4595,81.2188 799.4595,71.2188" fill="none" style="stroke:#181818;stroke-width:0.5;"/></g><g class="participant participant-tail" data-entity-uid="part6" data-qualified-name="GCS" data-source-line="11" id="part6-tail"><text fill="#000000" font-family="sans-serif" font-size="14" lengthAdjust="spacing" textLength="138.5371" x="709.1909" y="676.3379">Google Cloud Storage</text><path d="M763.4595,689.4141 C763.4595,679.4141 781.4595,679.4141 781.4595,679.4141 C781.4595,679.4141 799.4595,679.4141 799.4595,689.4141 L799.4595,715.4141 C799.4595,725.4141 781.4595,725.4141 781.4595,725.4141 C781.4595,725.4141 763.4595,725.4141 763.4595,715.4141 L763.4595,689.4141" fill="#E2E2F0" style="stroke:#181818;stroke-width:0.5;"/><path d="M763.4595,689.4141 C763.4595,699.4141 781.4595,699.4141 781.4595,699.4141 C781.4595,699.4141 799.4595,699.4141 799.4595,689.4141" fill="none" style="stroke:#181818;stroke-width:0.5;"/></g><g class="participant participant-head" data-entity-uid="part7" data-qualified-name="Ingestion" data-source-line="12" id="part7-head"><rect fill="#E2E2F0" height="31.6094" rx="2.5" ry="2.5" style="stroke:#181818;stroke-width:0.5;" width="121.3926" x="863.728" y="92.2188"/><text fill="#000000" font-family="sans-serif" font-size="14" lengthAdjust="spacing" textLength="107.3926" x="870.728" y="113.752">Ingestion Service</text></g><g class="participant participant-tail" data-entity-uid="part7" data-qualified-name="Ingestion" data-source-line="12" id="part7-tail"><rect fill="#E2E2F0" height="31.6094" rx="2.5" ry="2.5" style="stroke:#181818;stroke-width:0.5;" width="121.3926" x="863.728" y="661.8047"/><text fill="#000000" font-family="sans-serif" font-size="14" lengthAdjust="spacing" textLength="107.3926" x="870.728" y="683.3379">Ingestion Service</text></g><g class="participant participant-head" data-entity-uid="part8" data-qualified-name="Registry" data-source-line="13" id="part8-head"><text fill="#000000" font-family="sans-serif" font-size="14" lengthAdjust="spacing" textLength="55.2344" x="995.1206" y="104.1426">Firestore</text><text fill="#000000" font-family="sans-serif" font-size="14" lengthAdjust="spacing" textLength="51.3447" x="997.0654" y="121.752">Registry</text><path d="M1007.7378,53.6094 C1007.7378,43.6094 1025.7378,43.6094 1025.7378,43.6094 C1025.7378,43.6094 1043.7378,43.6094 1043.7378,53.6094 L1043.7378,79.6094 C1043.7378,89.6094 1025.7378,89.6094 1025.7378,89.6094 C1025.7378,89.6094 1007.7378,89.6094 1007.7378,79.6094 L1007.7378,53.6094" fill="#E2E2F0" style="stroke:#181818;stroke-width:0.5;"/><path d="M1007.7378,53.6094 C1007.7378,63.6094 1025.7378,63.6094 1025.7378,63.6094 C1025.7378,63.6094 1043.7378,63.6094 1043.7378,53.6094" fill="none" style="stroke:#181818;stroke-width:0.5;"/></g><g class="participant participant-tail" data-entity-uid="part8" data-qualified-name="Registry" data-source-line="13" id="part8-tail"><text fill="#000000" font-family="sans-serif" font-size="14" lengthAdjust="spacing" textLength="55.2344" x="995.1206" y="676.3379">Firestore</text><text fill="#000000" font-family="sans-serif" font-size="14" lengthAdjust="spacing" textLength="51.3447" x="997.0654" y="693.9473">Registry</text><path d="M1007.7378,707.0234 C1007.7378,697.0234 1025.7378,697.0234 1025.7378,697.0234 C1025.7378,697.0234 1043.7378,697.0234 1043.7378,707.0234 L1043.7378,733.0234 C1043.7378,743.0234 1025.7378,743.0234 1025.7378,743.0234 C1025.7378,743.0234 1007.7378,743.0234 1007.7378,733.0234 L1007.7378,707.0234" fill="#E2E2F0" style="stroke:#181818;stroke-width:0.5;"/><path d="M1007.7378,707.0234 C1007.7378,717.0234 1025.7378,717.0234 1025.7378,717.0234 C1025.7378,717.0234 1043.7378,717.0234 1043.7378,707.0234" fill="none" style="stroke:#181818;stroke-width:0.5;"/></g><g><title>Google Drive</title><rect fill="#FFFFFF" height="487.625" style="stroke:#181818;stroke-width:1;" width="10" x="223.6094" y="157.1797"/></g><g><title>Google Drive API</title><rect fill="#FFFFFF" height="30.3516" style="stroke:#181818;stroke-width:1;" width="10" x="371.1265" y="187.5313"/></g><g><title>Google Drive API</title><rect fill="#FFFFFF" height="30.3516" style="stroke:#181818;stroke-width:1;" width="10" x="371.1265" y="273.5859"/></g><g><title>Document Service</title><rect fill="#FFFFFF" height="273.1641" style="stroke:#181818;stroke-width:1;" width="10" x="506.395" y="334.2891"/></g><g><title>Storage Service</title><rect fill="#FFFFFF" height="91.0547" style="stroke:#181818;stroke-width:1;" width="10" x="637.3877" y="364.6406"/></g><g><title>Google Cloud Storage</title><rect fill="#FFFFFF" height="30.3516" style="stroke:#181818;stroke-width:1;" width="10" x="776.4595" y="394.9922"/></g><g><title>Ingestion Service</title><rect fill="#FFFFFF" height="30.3516" style="stroke:#181818;stroke-width:1;" width="10" x="919.4243" y="546.75"/></g><g><title>Firestore</title><rect fill="#FFFFFF" height="30.3516" style="stroke:#181818;stroke-width:1;" width="10" x="1020.7378" y="486.0469"/></g><g class="message" data-entity-1="part1" data-entity-2="part2" data-source-line="15" id="msg1"><polygon fill="#181818" points="211.6094,153.1797,221.6094,157.1797,211.6094,161.1797,215.6094,157.1797" style="stroke:#181818;stroke-width:1;stroke-linejoin:miter;stroke-miterlimit:10;"/><line style="stroke:#181818;stroke-width:1;" x1="43.5205" x2="217.6094" y1="157.1797" y2="157.1797"/><text fill="#000000" font-family="sans-serif" font-size="13" lengthAdjust="spacing" textLength="134.3989" x="50.5205" y="152.3232">Trigger scheduled sync</text></g><g class="message" data-entity-1="part2" data-entity-2="part3" data-source-line="18" id="msg2"><polygon fill="#181818" points="359.1265,183.5313,369.1265,187.5313,359.1265,191.5313,363.1265,187.5313" style="stroke:#181818;stroke-width:1;stroke-linejoin:miter;stroke-miterlimit:10;"/><line style="stroke:#181818;stroke-width:1;" x1="233.6094" x2="365.1265" y1="187.5313" y2="187.5313"/><text fill="#000000" font-family="sans-serif" font-size="13" lengthAdjust="spacing" textLength="99.709" x="240.6094" y="182.6748">List modified files</text></g><g class="message" data-entity-1="part3" data-entity-2="part2" data-source-line="20" id="msg3"><polygon fill="#181818" points="244.6094,213.8828,234.6094,217.8828,244.6094,221.8828,240.6094,217.8828" style="stroke:#181818;stroke-width:1;stroke-linejoin:miter;stroke-miterlimit:10;"/><line style="stroke:#181818;stroke-width:1;stroke-dasharray:2,2;" x1="238.6094" x2="375.1265" y1="217.8828" y2="217.8828"/><text fill="#000000" font-family="sans-serif" font-size="13" lengthAdjust="spacing" textLength="78.7617" x="250.6094" y="213.0264">File metadata</text></g><path d="M170.7578,232.8828 L243.1924,232.8828 L243.1924,241.2344 L233.1924,251.2344 L170.7578,251.2344 L170.7578,232.8828" fill="#EEEEEE" style="stroke:#000000;stroke-width:1.5;"/><rect fill="none" height="382.5703" style="stroke:#000000;stroke-width:1.5;" width="895.5972" x="170.7578" y="232.8828"/><text fill="#000000" font-family="sans-serif" font-size="13" font-weight="700" lengthAdjust="spacing" textLength="27.4346" x="185.7578" y="247.3779">loop</text><text fill="#000000" font-family="sans-serif" font-size="11" font-weight="700" lengthAdjust="spacing" textLength="121.0107" x="258.1924" y="246.3018">[For each modified file]</text><g class="message" data-entity-1="part2" data-entity-2="part3" data-source-line="25" id="msg4"><polygon fill="#181818" points="359.1265,269.5859,369.1265,273.5859,359.1265,277.5859,363.1265,273.5859" style="stroke:#181818;stroke-width:1;stroke-linejoin:miter;stroke-miterlimit:10;"/><line style="stroke:#181818;stroke-width:1;" x1="233.6094" x2="365.1265" y1="273.5859" y2="273.5859"/><text fill="#000000" font-family="sans-serif" font-size="13" lengthAdjust="spacing" textLength="118.5171" x="240.6094" y="268.7295">Download document</text></g><g class="message" data-entity-1="part3" data-entity-2="part2" data-source-line="27" id="msg5"><polygon fill="#181818" points="244.6094,299.9375,234.6094,303.9375,244.6094,307.9375,240.6094,303.9375" style="stroke:#181818;stroke-width:1;stroke-linejoin:miter;stroke-miterlimit:10;"/><line style="stroke:#181818;stroke-width:1;stroke-dasharray:2,2;" x1="238.6094" x2="375.1265" y1="303.9375" y2="303.9375"/><text fill="#000000" font-family="sans-serif" font-size="13" lengthAdjust="spacing" textLength="67.2026" x="250.6094" y="299.0811">File content</text></g><g class="message" data-entity-1="part2" data-entity-2="part4" data-source-line="30" id="msg6"><polygon fill="#181818" points="494.395,330.2891,504.395,334.2891,494.395,338.2891,498.395,334.2891" style="stroke:#181818;stroke-width:1;stroke-linejoin:miter;stroke-miterlimit:10;"/><line style="stroke:#181818;stroke-width:1;" x1="233.6094" x2="500.395" y1="334.2891" y2="334.2891"/><text fill="#000000" font-family="sans-serif" font-size="13" lengthAdjust="spacing" textLength="109.1099" x="240.6094" y="329.4326">Register document</text></g><g class="message" data-entity-1="part4" data-entity-2="part5" data-source-line="33" id="msg7"><polygon fill="#181818" points="625.3877,360.6406,635.3877,364.6406,625.3877,368.6406,629.3877,364.6406" style="stroke:#181818;stroke-width:1;stroke-linejoin:miter;stroke-miterlimit:10;"/><line style="stroke:#181818;stroke-width:1;" x1="516.395" x2="631.3877" y1="364.6406" y2="364.6406"/><text fill="#000000" font-family="sans-serif" font-size="13" lengthAdjust="spacing" textLength="91.7744" x="523.395" y="359.7842">Store document</text></g><g class="message" data-entity-1="part5" data-entity-2="part6" data-source-line="36" id="msg8"><polygon fill="#181818" points="764.4595,390.9922,774.4595,394.9922,764.4595,398.9922,768.4595,394.9922" style="stroke:#181818;stroke-width:1;stroke-linejoin:miter;stroke-miterlimit:10;"/><line style="stroke:#181818;stroke-width:1;" x1="647.3877" x2="770.4595" y1="394.9922" y2="394.9922"/><text fill="#000000" font-family="sans-serif" font-size="13" lengthAdjust="spacing" textLength="61.4263" x="654.3877" y="390.1357">Upload file</text></g><g class="message" data-entity-1="part6" data-entity-2="part5" data-source-line="38" id="msg9"><polygon fill="#181818" points="658.3877,421.3438,648.3877,425.3438,658.3877,429.3438,654.3877,425.3438" style="stroke:#181818;stroke-width:1;stroke-linejoin:miter;stroke-miterlimit:10;"/><line style="stroke:#181818;stroke-width:1;stroke-dasharray:2,2;" x1="652.3877" x2="780.4595" y1="425.3438" y2="425.3438"/><text fill="#000000" font-family="sans-serif" font-size="13" lengthAdjust="spacing" textLength="63.5718" x="664.3877" y="420.4873">Object URI</text></g><g class="message" data-entity-1="part5" data-entity-2="part4" data-source-line="41" id="msg10"><polygon fill="#181818" points="527.395,451.6953,517.395,455.6953,527.395,459.6953,523.395,455.6953" style="stroke:#181818;stroke-width:1;stroke-linejoin:miter;stroke-miterlimit:10;"/><line style="stroke:#181818;stroke-width:1;stroke-dasharray:2,2;" x1="521.395" x2="641.3877" y1="455.6953" y2="455.6953"/><text fill="#000000" font-family="sans-serif" font-size="13" lengthAdjust="spacing" textLength="93.9517" x="533.395" y="450.8389">Storage location</text></g><g class="message" data-entity-1="part4" data-entity-2="part8" data-source-line="44" id="msg11"><polygon fill="#181818" points="1008.7378,482.0469,1018.7378,486.0469,1008.7378,490.0469,1012.7378,486.0469" style="stroke:#181818;stroke-width:1;stroke-linejoin:miter;stroke-miterlimit:10;"/><line style="stroke:#181818;stroke-width:1;" x1="516.395" x2="1014.7378" y1="486.0469" y2="486.0469"/><text fill="#000000" font-family="sans-serif" font-size="13" lengthAdjust="spacing" textLength="87.4453" x="523.395" y="481.1904">Save metadata</text></g><g class="message" data-entity-1="part8" data-entity-2="part4" data-source-line="46" id="msg12"><polygon fill="#181818" points="527.395,512.3984,517.395,516.3984,527.395,520.3984,523.395,516.3984" style="stroke:#181818;stroke-width:1;stroke-linejoin:miter;stroke-miterlimit:10;"/><line style="stroke:#181818;stroke-width:1;stroke-dasharray:2,2;" x1="521.395" x2="1024.7378" y1="516.3984" y2="516.3984"/><text fill="#000000" font-family="sans-serif" font-size="13" lengthAdjust="spacing" textLength="125.728" x="533.395" y="511.542">Registration complete</text></g><g class="message" data-entity-1="part4" data-entity-2="part7" data-source-line="49" id="msg13"><polygon fill="#181818" points="907.4243,542.75,917.4243,546.75,907.4243,550.75,911.4243,546.75" style="stroke:#181818;stroke-width:1;stroke-linejoin:miter;stroke-miterlimit:10;"/><line style="stroke:#181818;stroke-width:1;" x1="516.395" x2="913.4243" y1="546.75" y2="546.75"/><text fill="#000000" font-family="sans-serif" font-size="13" lengthAdjust="spacing" textLength="96.8271" x="523.395" y="541.8936">Trigger ingestion</text></g><g class="message" data-entity-1="part7" data-entity-2="part4" data-source-line="51" id="msg14"><polygon fill="#181818" points="527.395,573.1016,517.395,577.1016,527.395,581.1016,523.395,577.1016" style="stroke:#181818;stroke-width:1;stroke-linejoin:miter;stroke-miterlimit:10;"/><line style="stroke:#181818;stroke-width:1;stroke-dasharray:2,2;" x1="521.395" x2="923.4243" y1="577.1016" y2="577.1016"/><text fill="#000000" font-family="sans-serif" font-size="13" lengthAdjust="spacing" textLength="54.2026" x="533.395" y="572.2451">Accepted</text></g><g class="message" data-entity-1="part4" data-entity-2="part2" data-source-line="54" id="msg15"><polygon fill="#181818" points="244.6094,603.4531,234.6094,607.4531,244.6094,611.4531,240.6094,607.4531" style="stroke:#181818;stroke-width:1;stroke-linejoin:miter;stroke-miterlimit:10;"/><line style="stroke:#181818;stroke-width:1;stroke-dasharray:2,2;" x1="238.6094" x2="510.395" y1="607.4531" y2="607.4531"/><text fill="#000000" font-family="sans-serif" font-size="13" lengthAdjust="spacing" textLength="133.6689" x="250.6094" y="602.5967">Registration successful</text></g><g class="message" data-entity-1="part2" data-entity-2="part1" data-source-line="59" id="msg16"><polygon fill="#181818" points="54.5205,640.8047,44.5205,644.8047,54.5205,648.8047,50.5205,644.8047" style="stroke:#181818;stroke-width:1;stroke-linejoin:miter;stroke-miterlimit:10;"/><line style="stroke:#181818;stroke-width:1;stroke-dasharray:2,2;" x1="48.5205" x2="227.6094" y1="644.8047" y2="644.8047"/><text fill="#000000" font-family="sans-serif" font-size="13" lengthAdjust="spacing" textLength="156.0889" x="60.5205" y="639.9482">Synchronization completed</text></g><?plantuml-src VLJ1ZjiW4Btp5QEzvmTyg9GcoYfIgrRhxgqN5YOEBGONSABjrtUmWp5aqrnYnk_Dl7cU8QYW4PwjxUXlxzG5eNqtukoiKNzvKDP0Ytz6D08Pyx-L6RZZFVWpb_QgJ0SdhZsktZZqWpKUlwBtlCFFgErrwvozGd0ZvI1KK48Dt0HuQiKPvQZHFG7ti9nAq5hSJxEpng08TgOifySKs7u_JjZfLEBsLemzqbEBxg84phXRi99AHQYV0dcBCSa3V-CUby8xRKUPNa_GvrrRvZkQ3ltDtvnnYQvo7XHvIgce-HVib0_kVSAc0sEBSR3vb2s11duurNKKzZU014yVbt4Hr8K7NDd7CeropCOry8KAG6-bEYdYdfH6dycpdpDqKnK-41Hw33osmIHM9AQj7U10K7fpBYim1lJxKCxUNessN89CdoX2gzmnz1zHmfgGcFUwxakd2MbkVfER3wgdwAmWyIX76frcUi87_3HCKpHHY4sJGypNOMfyCgYWnS6AWGZR5CM-lVsYDk3rvLWt6pbbcRBJ5DPMJ5T0pI-ahZjD8nbpyCjg0Wh9o-36w4BPVEIscwyWOVj1Oy1QI5w1MabUhxm5QbckGiwn26TY9MWh10u1PQqXqoiHrVGL3VcHidb_6lNT82vZX4OMQna_xhBepTqrdJoIwtNB2_uF?></g></svg>