<svg xmlns="http://www.w3.org/2000/svg" xmlns:xlink="http://www.w3.org/1999/xlink" contentStyleType="text/css" data-diagram-type="DESCRIPTION" height="588px" preserveAspectRatio="none" style="width:1470px;height:588px;background:#FFFFFF;" version="1.1" viewBox="0 0 1470 588" width="1470px" zoomAndPan="magnify"><?plantuml 1.2026.6?><defs/><g><g class="title" data-source-line="10"><text fill="#000000" font-family="Segoe UI" font-size="22" font-weight="700" lengthAdjust="spacing" textLength="288.4707" x="589.7646" y="38.7402">RAG Reference Architecture</text></g><!--cluster Application Layer--><g class="cluster" data-qualified-name="Application Layer" data-source-line="42" id="ent0002"><rect fill="#FFFFFF" height="93" rx="5" ry="5" style="stroke:#404040;stroke-width:1.5;" width="526" x="139" y="136.2617"/><text fill="#000000" font-family="Segoe UI" font-size="14" font-weight="700" lengthAdjust="spacing" textLength="115.1035" x="344.4482" y="153.3691">Application Layer</text></g><!--cluster Retrieval Layer--><g class="cluster" data-qualified-name="Retrieval Layer" data-source-line="56" id="ent0006"><rect fill="#FFFFFF" height="167" rx="5" ry="5" style="stroke:#404040;stroke-width:1.5;" width="763" x="693" y="62.2617"/><text fill="#000000" font-family="Segoe UI" font-size="14" font-weight="700" lengthAdjust="spacing" textLength="97.6172" x="1025.6914" y="79.3691">Retrieval Layer</text></g><!--cluster Knowledge Platform--><g class="cluster" data-qualified-name="Knowledge Platform" data-source-line="74" id="ent0012"><rect fill="#FFFFFF" height="321" rx="5" ry="5" style="stroke:#404040;stroke-width:1.5;" width="189" x="1091" y="253.2617"/><text fill="#000000" font-family="Segoe UI" font-size="14" font-weight="700" lengthAdjust="spacing" textLength="135.4814" x="1117.7593" y="270.3691">Knowledge Platform</text></g><!--cluster Vertex AI--><g class="cluster" data-qualified-name="Vertex AI" data-source-line="88" id="ent0016"><rect fill="#FFFFFF" height="167" rx="5" ry="5" style="stroke:#404040;stroke-width:1.5;" width="172" x="891" y="253.2617"/><text fill="#000000" font-family="Segoe UI" font-size="14" font-weight="700" lengthAdjust="spacing" textLength="61.3799" x="946.3101" y="270.3691">Vertex AI</text></g><!--entity React--><g class="entity" data-qualified-name="Application Layer.React" data-source-line="44" id="ent0003"><rect fill="#FFFFFF" height="38.6211" rx="5" ry="5" style="stroke:#404040;stroke-width:1.5;" width="126.4971" x="155" y="173.7617"/><text fill="#000000" font-family="Segoe UI" font-size="14" lengthAdjust="spacing" textLength="106.4971" x="165" y="198.8691">React Web Portal</text></g><!--entity API--><g class="entity" data-qualified-name="Application Layer.API" data-source-line="46" id="ent0004"><rect fill="#FFFFFF" height="38.6211" rx="5" ry="5" style="stroke:#404040;stroke-width:1.5;" width="121.1377" x="341" y="173.7617"/><text fill="#000000" font-family="Segoe UI" font-size="14" lengthAdjust="spacing" textLength="101.1377" x="351" y="198.8691">FastAPI Backend</text></g><!--entity Workflow--><g class="entity" data-qualified-name="Application Layer.Workflow" data-source-line="48" id="ent0005"><rect fill="#FFFFFF" height="38.6211" rx="5" ry="5" style="stroke:#404040;stroke-width:1.5;" width="126.5449" x="522" y="173.7617"/><text fill="#000000" font-family="Segoe UI" font-size="14" lengthAdjust="spacing" textLength="106.5449" x="532" y="198.8691">Workflow Service</text></g><!--entity Embedding--><g class="entity" data-qualified-name="Retrieval Layer.Embedding" data-source-line="58" id="ent0007"><rect fill="#FFFFFF" height="38.6211" rx="5" ry="5" style="stroke:#404040;stroke-width:1.5;" width="138.084" x="709" y="173.7617"/><text fill="#000000" font-family="Segoe UI" font-size="14" lengthAdjust="spacing" textLength="118.084" x="719" y="198.8691">Embedding Service</text></g><!--entity Search--><g class="entity" data-qualified-name="Retrieval Layer.Search" data-source-line="60" id="ent0008"><rect fill="#FFFFFF" height="38.6211" rx="5" ry="5" style="stroke:#404040;stroke-width:1.5;" width="108.4844" x="724" y="99.7617"/><text fill="#000000" font-family="Segoe UI" font-size="14" lengthAdjust="spacing" textLength="88.4844" x="734" y="124.8691">Search Service</text></g><!--entity Hybrid--><g class="entity" data-qualified-name="Retrieval Layer.Hybrid" data-source-line="62" id="ent0009"><rect fill="#FFFFFF" height="38.6211" rx="5" ry="5" style="stroke:#404040;stroke-width:1.5;" width="120.1943" x="917" y="173.7617"/><text fill="#000000" font-family="Segoe UI" font-size="14" lengthAdjust="spacing" textLength="100.1943" x="927" y="198.8691">Hybrid Retriever</text></g><!--entity Reranker--><g class="entity" data-qualified-name="Retrieval Layer.Reranker" data-source-line="64" id="ent0010"><rect fill="#FFFFFF" height="57.2422" rx="5" ry="5" style="stroke:#404040;stroke-width:1.5;" width="103.7266" x="1133.5" y="155.7617"/><text fill="#000000" font-family="Segoe UI" font-size="14" lengthAdjust="spacing" textLength="83.7266" x="1143.5" y="180.8691">CrossEncoder</text><text fill="#000000" font-family="Segoe UI" font-size="14" lengthAdjust="spacing" textLength="54.7559" x="1143.5" y="199.4902">Reranker</text></g><!--entity Citation--><g class="entity" data-qualified-name="Retrieval Layer.Citation" data-source-line="66" id="ent0011"><rect fill="#FFFFFF" height="38.6211" rx="5" ry="5" style="stroke:#404040;stroke-width:1.5;" width="115.5322" x="1324" y="169.7617"/><text fill="#000000" font-family="Segoe UI" font-size="14" lengthAdjust="spacing" textLength="95.5322" x="1334" y="194.8691">Citation Service</text></g><!--entity Qdrant--><g class="entity" data-qualified-name="Knowledge Platform.Qdrant" data-source-line="76" id="ent0013"><path d="M1124.5,300.2617 C1124.5,290.2617 1185.2773,290.2617 1185.2773,290.2617 C1185.2773,290.2617 1246.0547,290.2617 1246.0547,300.2617 L1246.0547,346.5039 C1246.0547,356.5039 1185.2773,356.5039 1185.2773,356.5039 C1185.2773,356.5039 1124.5,356.5039 1124.5,346.5039 L1124.5,300.2617" fill="#FFFFFF" style="stroke:#000000;stroke-width:1;"/><path d="M1124.5,300.2617 C1124.5,310.2617 1185.2773,310.2617 1185.2773,310.2617 C1185.2773,310.2617 1246.0547,310.2617 1246.0547,300.2617" fill="none" style="stroke:#000000;stroke-width:1;"/><text fill="#000000" font-family="Segoe UI" font-size="14" lengthAdjust="spacing" textLength="43.4561" x="1134.5" y="329.3691">Qdrant</text><text fill="#000000" font-family="Segoe UI" font-size="14" lengthAdjust="spacing" textLength="101.5547" x="1134.5" y="347.9902">Vector Database</text></g><!--entity Firestore--><g class="entity" data-qualified-name="Knowledge Platform.Firestore" data-source-line="78" id="ent0014"><path d="M1119.5,401.2617 C1119.5,391.2617 1185.7427,391.2617 1185.7427,391.2617 C1185.7427,391.2617 1251.9854,391.2617 1251.9854,401.2617 L1251.9854,447.5039 C1251.9854,457.5039 1185.7427,457.5039 1185.7427,457.5039 C1185.7427,457.5039 1119.5,457.5039 1119.5,447.5039 L1119.5,401.2617" fill="#FFFFFF" style="stroke:#000000;stroke-width:1;"/><path d="M1119.5,401.2617 C1119.5,411.2617 1185.7427,411.2617 1185.7427,411.2617 C1185.7427,411.2617 1251.9854,411.2617 1251.9854,401.2617" fill="none" style="stroke:#000000;stroke-width:1;"/><text fill="#000000" font-family="Segoe UI" font-size="14" lengthAdjust="spacing" textLength="53.4912" x="1129.5" y="430.3691">Firestore</text><text fill="#000000" font-family="Segoe UI" font-size="14" lengthAdjust="spacing" textLength="112.4854" x="1129.5" y="448.9902">Metadata Registry</text></g><!--entity GCS--><g class="entity" data-qualified-name="Knowledge Platform.GCS" data-source-line="80" id="ent0015"><path d="M1107,502.2617 C1107,492.2617 1185.5029,492.2617 1185.5029,492.2617 C1185.5029,492.2617 1264.0059,492.2617 1264.0059,502.2617 L1264.0059,548.5039 C1264.0059,558.5039 1185.5029,558.5039 1185.5029,558.5039 C1185.5029,558.5039 1107,558.5039 1107,548.5039 L1107,502.2617" fill="#FFFFFF" style="stroke:#000000;stroke-width:1;"/><path d="M1107,502.2617 C1107,512.2617 1185.5029,512.2617 1185.5029,512.2617 C1185.5029,512.2617 1264.0059,512.2617 1264.0059,502.2617" fill="none" style="stroke:#000000;stroke-width:1;"/><text fill="#000000" font-family="Segoe UI" font-size="14" lengthAdjust="spacing" textLength="137.0059" x="1117" y="531.3691">Google Cloud Storage</text><text fill="#000000" font-family="Segoe UI" font-size="14" lengthAdjust="spacing" textLength="70.3965" x="1117" y="549.9902">Documents</text></g><!--entity Embeddings--><g class="entity" data-qualified-name="Vertex AI.Embeddings" data-source-line="90" id="ent0017"><rect fill="#FFFFFF" height="38.6211" rx="5" ry="5" style="stroke:#404040;stroke-width:1.5;" width="140.2441" x="907" y="290.7617"/><text fill="#000000" font-family="Segoe UI" font-size="14" lengthAdjust="spacing" textLength="120.2441" x="917" y="315.8691">Embedding Models</text></g><!--entity Gemini--><g class="entity" data-qualified-name="Vertex AI.Gemini" data-source-line="92" id="ent0018"><rect fill="#FFFFFF" height="38.6211" rx="5" ry="5" style="stroke:#404040;stroke-width:1.5;" width="93.2744" x="930.5" y="364.7617"/><text fill="#000000" font-family="Segoe UI" font-size="14" lengthAdjust="spacing" textLength="73.2744" x="940.5" y="389.8691">Gemini LLM</text></g><!--entity User--><g class="entity" data-qualified-name="User" data-source-line="36" id="ent0001"><ellipse cx="52.9932" cy="162.2617" fill="#FFFFFF" rx="8" ry="8" style="stroke:#000000;stroke-width:1;"/><path d="M52.9932,170.2617 L52.9932,197.2617 M39.9932,178.2617 L65.9932,178.2617 M52.9932,197.2617 L39.9932,212.2617 M52.9932,197.2617 L65.9932,212.2617" fill="none" style="stroke:#000000;stroke-width:1;"/><text fill="#000000" font-family="Segoe UI" font-size="14" lengthAdjust="spacing" textLength="83.9863" x="11" y="229.3691">Business User</text></g><!--link User to React--><g class="link" data-entity-1="ent0001" data-entity-2="ent0003" data-link-type="dependency" data-source-line="100" id="lnk19"><path d="M95.06,186.7617 C113.2,186.7617 129.81,186.7617 149.81,186.7617" fill="none" id="User-to-React" style="stroke:#404040;stroke-width:1.5;"/><polygon fill="#404040" points="154.81,186.7617,145.81,182.7617,149.81,186.7617,145.81,190.7617,154.81,186.7617" style="stroke:#404040;stroke-width:1.5;stroke-linejoin:miter;stroke-miterlimit:10;"/></g><!--link React to User--><g class="link" data-entity-1="ent0003" data-entity-2="ent0001" data-link-type="dependency" data-source-line="132" id="lnk35"><path d="M154.68,199.7617 C134.87,199.7617 118.49,199.7617 100.48,199.7617" fill="none" id="React-to-User" style="stroke:#404040;stroke-width:1.5;"/><polygon fill="#404040" points="95.48,199.7617,104.48,203.7617,100.48,199.7617,104.48,195.7617,95.48,199.7617" style="stroke:#404040;stroke-width:1.5;stroke-linejoin:miter;stroke-miterlimit:10;"/></g><!--link React to API--><g class="link" data-entity-1="ent0003" data-entity-2="ent0004" data-link-type="dependency" data-source-line="102" id="lnk20"><path d="M281.15,186.7617 C300.43,186.7617 316.59,186.7617 335.71,186.7617" fill="none" id="React-to-API" style="stroke:#404040;stroke-width:1.5;"/><polygon fill="#404040" points="340.71,186.7617,331.71,182.7617,335.71,186.7617,331.71,190.7617,340.71,186.7617" style="stroke:#404040;stroke-width:1.5;stroke-linejoin:miter;stroke-miterlimit:10;"/></g><!--link API to React--><g class="link" data-entity-1="ent0004" data-entity-2="ent0003" data-link-type="dependency" data-source-line="130" id="lnk34"><path d="M340.91,199.7617 C321.7,199.7617 305.42,199.7617 286.05,199.7617" fill="none" id="API-to-React" style="stroke:#404040;stroke-width:1.5;"/><polygon fill="#404040" points="281.05,199.7617,290.05,203.7617,286.05,199.7617,290.05,195.7617,281.05,199.7617" style="stroke:#404040;stroke-width:1.5;stroke-linejoin:miter;stroke-miterlimit:10;"/></g><!--link API to Workflow--><g class="link" data-entity-1="ent0004" data-entity-2="ent0005" data-link-type="dependency" data-source-line="104" id="lnk21"><path d="M462,186.7617 C481.17,186.7617 497.41,186.7617 516.8,186.7617" fill="none" id="API-to-Workflow" style="stroke:#404040;stroke-width:1.5;"/><polygon fill="#404040" points="521.8,186.7617,512.8,182.7617,516.8,186.7617,512.8,190.7617,521.8,186.7617" style="stroke:#404040;stroke-width:1.5;stroke-linejoin:miter;stroke-miterlimit:10;"/></g><!--link Workflow to API--><g class="link" data-entity-1="ent0005" data-entity-2="ent0004" data-link-type="dependency" data-source-line="128" id="lnk33"><path d="M521.92,199.7617 C502.6,199.7617 486.42,199.7617 467.29,199.7617" fill="none" id="Workflow-to-API" style="stroke:#404040;stroke-width:1.5;"/><polygon fill="#404040" points="462.29,199.7617,471.29,203.7617,467.29,199.7617,471.29,195.7617,462.29,199.7617" style="stroke:#404040;stroke-width:1.5;stroke-linejoin:miter;stroke-miterlimit:10;"/></g><!--link Workflow to Embedding--><g class="link" data-entity-1="ent0005" data-entity-2="ent0007" data-link-type="dependency" data-source-line="106" id="lnk22"><path d="M649.07,193.2617 C668.23,193.2617 684.36,193.2617 703.87,193.2617" fill="none" id="Workflow-to-Embedding" style="stroke:#404040;stroke-width:1.5;"/><polygon fill="#404040" points="708.87,193.2617,699.87,189.2617,703.87,193.2617,699.87,197.2617,708.87,193.2617" style="stroke:#404040;stroke-width:1.5;stroke-linejoin:miter;stroke-miterlimit:10;"/></g><!--link Embedding to Embeddings--><g class="link" data-entity-1="ent0007" data-entity-2="ent0017" data-link-type="dependency" data-source-line="108" id="lnk23"><path d="M847.36,193.2617 C880.05,193.2617 912,193.2617 912,193.2617 C912,193.2617 912,252.3717 912,285.6817" fill="none" id="Embedding-to-Embeddings" style="stroke:#404040;stroke-width:1.5;"/><polygon fill="#404040" points="912,290.6817,916,281.6817,912,285.6817,908,281.6817,912,290.6817" style="stroke:#404040;stroke-width:1.5;stroke-linejoin:miter;stroke-miterlimit:10;"/></g><!--link Workflow to Search--><g class="link" data-entity-1="ent0005" data-entity-2="ent0008" data-link-type="dependency" data-source-line="110" id="lnk24"><path d="M586,173.4317 C586,151.5117 586,119.2617 586,119.2617 C586,119.2617 661.97,119.2617 718.75,119.2617" fill="none" id="Workflow-to-Search" style="stroke:#404040;stroke-width:1.5;"/><polygon fill="#404040" points="723.75,119.2617,714.75,115.2617,718.75,119.2617,714.75,123.2617,723.75,119.2617" style="stroke:#404040;stroke-width:1.5;stroke-linejoin:miter;stroke-miterlimit:10;"/></g><!--link Search to Hybrid--><g class="link" data-entity-1="ent0008" data-entity-2="ent0009" data-link-type="dependency" data-source-line="112" id="lnk25"><path d="M832.11,119.2617 C891.04,119.2617 977,119.2617 977,119.2617 C977,119.2617 977,146.5117 977,168.4317" fill="none" id="Search-to-Hybrid" style="stroke:#404040;stroke-width:1.5;"/><polygon fill="#404040" points="977,173.4317,981,164.4317,977,168.4317,973,164.4317,977,173.4317" style="stroke:#404040;stroke-width:1.5;stroke-linejoin:miter;stroke-miterlimit:10;"/></g><!--link Hybrid to Qdrant--><g class="link" data-entity-1="ent0009" data-entity-2="ent0013" data-link-type="dependency" data-source-line="114" id="lnk26"><path d="M1037.07,189.3617 C1079.56,189.3617 1129,189.3617 1129,189.3617 C1129,189.3617 1129,245.5117 1129,285.1617" fill="none" id="Hybrid-to-Qdrant" style="stroke:#404040;stroke-width:1.5;"/><polygon fill="#404040" points="1129,290.1617,1133,281.1617,1129,285.1617,1125,281.1617,1129,290.1617" style="stroke:#404040;stroke-width:1.5;stroke-linejoin:miter;stroke-miterlimit:10;"/></g><!--link Hybrid to Firestore--><g class="link" data-entity-1="ent0009" data-entity-2="ent0014" data-link-type="dependency" data-source-line="116" id="lnk27"><path d="M1037.19,204.9617 C1058.37,204.9617 1077,204.9617 1077,204.9617 C1077,204.9617 1077,397.5117 1077,397.5117 C1077,397.5117 1091.67,397.5117 1114.26,397.5117" fill="none" id="Hybrid-to-Firestore" style="stroke:#404040;stroke-width:1.5;"/><polygon fill="#404040" points="1119.26,397.5117,1110.26,393.5117,1114.26,397.5117,1110.26,401.5117,1119.26,397.5117" style="stroke:#404040;stroke-width:1.5;stroke-linejoin:miter;stroke-miterlimit:10;"/></g><!--link Hybrid to GCS--><g class="link" data-entity-1="ent0009" data-entity-2="ent0015" data-link-type="dependency" data-source-line="118" id="lnk28"><path d="M1037.09,197.1617 C1073.9,197.1617 1114,197.1617 1114,197.1617 C1114,197.1617 1114,403.5817 1114,486.9917" fill="none" id="Hybrid-to-GCS" style="stroke:#404040;stroke-width:1.5;"/><polygon fill="#404040" points="1114,491.9917,1118,482.9917,1114,486.9917,1110,482.9917,1114,491.9917" style="stroke:#404040;stroke-width:1.5;stroke-linejoin:miter;stroke-miterlimit:10;"/></g><!--link Hybrid to Reranker--><g class="link" data-entity-1="ent0009" data-entity-2="ent0010" data-link-type="dependency" data-source-line="120" id="lnk29"><path d="M1037.03,181.5617 C1067.46,181.5617 1099.07,181.5617 1128.32,181.5617" fill="none" id="Hybrid-to-Reranker" style="stroke:#404040;stroke-width:1.5;"/><polygon fill="#404040" points="1133.32,181.5617,1124.32,177.5617,1128.32,181.5617,1124.32,185.5617,1133.32,181.5617" style="stroke:#404040;stroke-width:1.5;stroke-linejoin:miter;stroke-miterlimit:10;"/></g><!--link Reranker to Citation--><g class="link" data-entity-1="ent0010" data-entity-2="ent0011" data-link-type="dependency" data-source-line="122" id="lnk30"><path d="M1237.64,189.2617 C1264.13,189.2617 1291.41,189.2617 1318.72,189.2617" fill="none" id="Reranker-to-Citation" style="stroke:#404040;stroke-width:1.5;"/><polygon fill="#404040" points="1323.72,189.2617,1314.72,185.2617,1318.72,189.2617,1314.72,193.2617,1323.72,189.2617" style="stroke:#404040;stroke-width:1.5;stroke-linejoin:miter;stroke-miterlimit:10;"/></g><!--link Citation to Gemini--><g class="link" data-entity-1="ent0011" data-entity-2="ent0018" data-link-type="dependency" data-source-line="124" id="lnk31"><path d="M1382,209.1017 C1382,257.5617 1382,378.0117 1382,378.0117 C1382,378.0117 1135.46,378.0117 1028.85,378.0117" fill="none" id="Citation-to-Gemini" style="stroke:#404040;stroke-width:1.5;"/><polygon fill="#404040" points="1023.85,378.0117,1032.85,382.0117,1028.85,378.0117,1032.85,374.0117,1023.85,378.0117" style="stroke:#404040;stroke-width:1.5;stroke-linejoin:miter;stroke-miterlimit:10;"/></g><!--link Gemini to Workflow--><g class="link" data-entity-1="ent0018" data-entity-2="ent0005" data-link-type="dependency" data-source-line="126" id="lnk32"><path d="M930.22,384.2617 C826.44,384.2617 586,384.2617 586,384.2617 C586,384.2617 586,266.7817 586,217.9817" fill="none" id="Gemini-to-Workflow" style="stroke:#404040;stroke-width:1.5;"/><polygon fill="#404040" points="586,212.9817,582,221.9817,586,217.9817,590,221.9817,586,212.9817" style="stroke:#404040;stroke-width:1.5;stroke-linejoin:miter;stroke-miterlimit:10;"/></g><?plantuml-src jLLDSzem4BtxLspfWLCwIISzjZCECPI92SJcevtX8kp5Q12IHnAXjDF_NbcsGMwJJ0yOBjRkatRtQVMs-_cYFwyB0TSeSqaLWZ-4iKmsgBGacWeE4qRqMiYTWKN-029SeqIU6AI1KOs9talqkXVEoNkdDxX3o1cXtFCqrGp_ByqI-aQg7iEr1Yr0qcoZ8QNIECmHdgUsbET4aXsiIBBDfDZpj2UOa70ejZj-jI6fE52UmPemvNeOvQYFEOAGUYCSHswE91d6-cZIAq8IdZ5qWwQu9dkc-uBhHs9gZp4J2BFXov2O_aIukNKFYEfJxuHCKPQflx-zBlwlmwORccmvAWKt7pwz18jA7YH72JVNRi19MTFRuHgWSx2Fxa6-bEBmMYBMsJpzultMXLaSH9TlOv9eatRdRg-ehMocK7Q0b1zjbE5F9k6mvq-7uyVBLrFrC7JyF6SqALzUI8v5JRyyxzJLq8dGL0uBNC74F0J2RCtMs83rYTB-P0Xtvc3agKMPTGEp47AxPk9WteDyfWbQK6tqlDzji1W5qsWOpFqGGlzx6trnOZ92BIa-4_OoZy5kXMbQ28rR_SdQmCP8ZCurWAMfWVfwN4cQGXMtwiRIsC3rf50gu8amhtR98vI4RojqlMZYgIxxmOrV6rkwfeV7yI8CxWS1J49_sXz7enPlwe6B0yFKVDQpnbvMIZHP4JEIEa-feKKl-Hpjex-l79Q8qkUY-sRkA8F39H-X9eN349jHCz6ETii9uEuQ256mtMDYdq9il2Qr9RyNoNw7N2kxST2BM-9x7aJJu9iPlYtIF4UfyOU9yVfJ69cUPAhv4bG3Ey0TvHJ2S5GoOfUjQSNJB8Ydq0_7YylpKim9kBhwKejdAQo5mUfa8Px5ugo79xaip8vGdEbhEDHVEsh5gCIaCDNYK2b7OQhRsJ4vxUfORIywwxDqr5_MVDQ9aupOtTMzLTVvHg4DClwXoWxRFm00?></g></svg>