<svg xmlns="http://www.w3.org/2000/svg" xmlns:xlink="http://www.w3.org/1999/xlink" contentStyleType="text/css" data-diagram-type="DESCRIPTION" height="483px" preserveAspectRatio="none" style="width:1014px;height:483px;background:#FFFFFF;" version="1.1" viewBox="0 0 1014 483" width="1014px" zoomAndPan="magnify"><?plantuml 1.2026.6?><defs/><g><g class="title" data-source-line="3"><text fill="#000000" font-family="Segoe UI" font-size="22" font-weight="700" lengthAdjust="spacing" textLength="289.1152" x="361.4424" y="38.7402">Model Routing Architecture</text></g><!--cluster Model Routing Layer--><g class="cluster" data-qualified-name="Model Routing Layer" data-source-line="31" id="ent0004"><rect fill="#FFFFFF" height="93" rx="5" ry="5" style="stroke:#404040;stroke-width:1.5;" width="368" x="12" y="264.2617"/><text fill="#000000" font-family="Segoe UI" font-size="14" font-weight="700" lengthAdjust="spacing" textLength="138.0039" x="126.998" y="281.3691">Model Routing Layer</text></g><!--cluster Vertex AI Models--><g class="cluster" data-qualified-name="Vertex AI Models" data-source-line="39" id="ent0007"><rect fill="#FFFFFF" height="241" rx="5" ry="5" style="stroke:#404040;stroke-width:1.5;" width="172" x="408" y="227.2617"/><text fill="#000000" font-family="Segoe UI" font-size="14" font-weight="700" lengthAdjust="spacing" textLength="113.5791" x="437.2104" y="244.3691">Vertex AI Models</text></g><!--cluster Knowledge Platform--><g class="cluster" data-qualified-name="Knowledge Platform" data-source-line="49" id="ent0011"><rect fill="#FFFFFF" height="267" rx="5" ry="5" style="stroke:#404040;stroke-width:1.5;" width="189" x="811" y="202.2617"/><text fill="#000000" font-family="Segoe UI" font-size="14" font-weight="700" lengthAdjust="spacing" textLength="135.4814" x="837.7593" y="219.3691">Knowledge Platform</text></g><!--entity Router--><g class="entity" data-qualified-name="Model Routing Layer.Router" data-source-line="33" id="ent0005"><rect fill="#FFFFFF" height="38.6211" rx="5" ry="5" style="stroke:#404040;stroke-width:1.5;" width="104.998" x="28" y="301.7617"/><text fill="#000000" font-family="Segoe UI" font-size="14" lengthAdjust="spacing" textLength="84.998" x="38" y="326.8691">Model Router</text></g><!--entity Decision--><g class="entity" data-qualified-name="Model Routing Layer.Decision" data-source-line="35" id="ent0006"><rect fill="#FFFFFF" height="38.6211" rx="5" ry="5" style="stroke:#404040;stroke-width:1.5;" width="170.8076" x="193" y="301.7617"/><text fill="#000000" font-family="Segoe UI" font-size="14" lengthAdjust="spacing" textLength="150.8076" x="203" y="326.8691">Routing Decision Engine</text></g><!--entity Flash--><g class="entity" data-qualified-name="Vertex AI Models.Flash" data-source-line="41" id="ent0008"><rect fill="#FFFFFF" height="38.6211" rx="5" ry="5" style="stroke:#404040;stroke-width:1.5;" width="98.7363" x="444.5" y="264.7617"/><text fill="#000000" font-family="Segoe UI" font-size="14" lengthAdjust="spacing" textLength="78.7363" x="454.5" y="289.8691">Gemini Flash</text></g><!--entity Pro--><g class="entity" data-qualified-name="Vertex AI Models.Pro" data-source-line="43" id="ent0009"><rect fill="#FFFFFF" height="38.6211" rx="5" ry="5" style="stroke:#404040;stroke-width:1.5;" width="88.4346" x="450" y="338.7617"/><text fill="#000000" font-family="Segoe UI" font-size="14" lengthAdjust="spacing" textLength="68.4346" x="460" y="363.8691">Gemini Pro</text></g><!--entity Embeddings--><g class="entity" data-qualified-name="Vertex AI Models.Embeddings" data-source-line="45" id="ent0010"><rect fill="#FFFFFF" height="38.6211" rx="5" ry="5" style="stroke:#404040;stroke-width:1.5;" width="140.2441" x="424" y="412.7617"/><text fill="#000000" font-family="Segoe UI" font-size="14" lengthAdjust="spacing" textLength="120.2441" x="434" y="437.8691">Embedding Models</text></g><!--entity Qdrant--><g class="entity" data-qualified-name="Knowledge Platform.Qdrant" data-source-line="51" id="ent0012"><path d="M874,415.2617 C874,405.2617 905.728,405.2617 905.728,405.2617 C905.728,405.2617 937.4561,405.2617 937.4561,415.2617 L937.4561,442.8828 C937.4561,452.8828 905.728,452.8828 905.728,452.8828 C905.728,452.8828 874,452.8828 874,442.8828 L874,415.2617" fill="#FFFFFF" style="stroke:#000000;stroke-width:1;"/><path d="M874,415.2617 C874,425.2617 905.728,425.2617 905.728,425.2617 C905.728,425.2617 937.4561,425.2617 937.4561,415.2617" fill="none" style="stroke:#000000;stroke-width:1;"/><text fill="#000000" font-family="Segoe UI" font-size="14" lengthAdjust="spacing" textLength="43.4561" x="884" y="444.3691">Qdrant</text></g><!--entity Firestore--><g class="entity" data-qualified-name="Knowledge Platform.Firestore" data-source-line="53" id="ent0013"><path d="M869,332.2617 C869,322.2617 905.7456,322.2617 905.7456,322.2617 C905.7456,322.2617 942.4912,322.2617 942.4912,332.2617 L942.4912,359.8828 C942.4912,369.8828 905.7456,369.8828 905.7456,369.8828 C905.7456,369.8828 869,369.8828 869,359.8828 L869,332.2617" fill="#FFFFFF" style="stroke:#000000;stroke-width:1;"/><path d="M869,332.2617 C869,342.2617 905.7456,342.2617 905.7456,342.2617 C905.7456,342.2617 942.4912,342.2617 942.4912,332.2617" fill="none" style="stroke:#000000;stroke-width:1;"/><text fill="#000000" font-family="Segoe UI" font-size="14" lengthAdjust="spacing" textLength="53.4912" x="879" y="361.3691">Firestore</text></g><!--entity GCS--><g class="entity" data-qualified-name="Knowledge Platform.GCS" data-source-line="55" id="ent0014"><path d="M827,249.2617 C827,239.2617 905.5029,239.2617 905.5029,239.2617 C905.5029,239.2617 984.0059,239.2617 984.0059,249.2617 L984.0059,276.8828 C984.0059,286.8828 905.5029,286.8828 905.5029,286.8828 C905.5029,286.8828 827,286.8828 827,276.8828 L827,249.2617" fill="#FFFFFF" style="stroke:#000000;stroke-width:1;"/><path d="M827,249.2617 C827,259.2617 905.5029,259.2617 905.5029,259.2617 C905.5029,259.2617 984.0059,259.2617 984.0059,249.2617" fill="none" style="stroke:#000000;stroke-width:1;"/><text fill="#000000" font-family="Segoe UI" font-size="14" lengthAdjust="spacing" textLength="137.0059" x="837" y="278.3691">Google Cloud Storage</text></g><!--entity User--><g class="entity" data-qualified-name="User" data-source-line="25" id="ent0001"><ellipse cx="278.4932" cy="69.2617" fill="#FFFFFF" rx="8" ry="8" style="stroke:#000000;stroke-width:1;"/><path d="M278.4932,77.2617 L278.4932,104.2617 M265.4932,85.2617 L291.4932,85.2617 M278.4932,104.2617 L265.4932,119.2617 M278.4932,104.2617 L291.4932,119.2617" fill="none" style="stroke:#000000;stroke-width:1;"/><text fill="#000000" font-family="Segoe UI" font-size="14" lengthAdjust="spacing" textLength="83.9863" x="236.5" y="136.3691">Business User</text></g><!--entity API--><g class="entity" data-qualified-name="API" data-source-line="27" id="ent0002"><rect fill="#FFFFFF" height="38.6211" rx="5" ry="5" style="stroke:#404040;stroke-width:1.5;" width="121.1377" x="433.5" y="90.7617"/><text fill="#000000" font-family="Segoe UI" font-size="14" lengthAdjust="spacing" textLength="101.1377" x="443.5" y="115.8691">FastAPI Backend</text></g><!--entity LangGraph--><g class="entity" data-qualified-name="LangGraph" data-source-line="29" id="ent0003"><rect fill="#FFFFFF" height="38.6211" rx="5" ry="5" style="stroke:#404040;stroke-width:1.5;" width="143.1973" x="624" y="243.7617"/><text fill="#000000" font-family="Segoe UI" font-size="14" lengthAdjust="spacing" textLength="123.1973" x="634" y="268.8691">LangGraph Runtime</text></g><!--link User to API--><g class="link" data-entity-1="ent0001" data-entity-2="ent0002" data-link-type="dependency" data-source-line="59" id="lnk15"><path d="M320.56,116.7617 C352.65,116.7617 392.32,116.7617 428.28,116.7617" fill="none" id="User-to-API" style="stroke:#404040;stroke-width:1.5;"/><polygon fill="#404040" points="433.28,116.7617,424.28,112.7617,428.28,116.7617,424.28,120.7617,433.28,116.7617" style="stroke:#404040;stroke-width:1.5;stroke-linejoin:miter;stroke-miterlimit:10;"/></g><!--link API to User--><g class="link" data-entity-1="ent0002" data-entity-2="ent0001" data-link-type="dependency" data-source-line="85" id="lnk28"><path d="M433.4,103.7617 C397.42,103.7617 357.71,103.7617 325.58,103.7617" fill="none" id="API-to-User" style="stroke:#404040;stroke-width:1.5;"/><polygon fill="#404040" points="320.58,103.7617,329.58,107.7617,325.58,103.7617,329.58,99.7617,320.58,103.7617" style="stroke:#404040;stroke-width:1.5;stroke-linejoin:miter;stroke-miterlimit:10;"/></g><!--link API to LangGraph--><g class="link" data-entity-1="ent0002" data-entity-2="ent0003" data-link-type="dependency" data-source-line="61" id="lnk16"><path d="M548,129.9817 C548,169.4217 548,254.2617 548,254.2617 C548,254.2617 581.33,254.2617 618.91,254.2617" fill="none" id="API-to-LangGraph" style="stroke:#404040;stroke-width:1.5;"/><polygon fill="#404040" points="623.91,254.2617,614.91,250.2617,618.91,254.2617,614.91,258.2617,623.91,254.2617" style="stroke:#404040;stroke-width:1.5;stroke-linejoin:miter;stroke-miterlimit:10;"/></g><!--link LangGraph to API--><g class="link" data-entity-1="ent0003" data-entity-2="ent0002" data-link-type="dependency" data-source-line="83" id="lnk27"><path d="M623.67,249.0117 C587.41,249.0117 551,249.0117 551,249.0117 C551,249.0117 551,173.0917 551,134.8517" fill="none" id="LangGraph-to-API" style="stroke:#404040;stroke-width:1.5;"/><polygon fill="#404040" points="551,129.8517,547,138.8517,551,134.8517,555,138.8517,551,129.8517" style="stroke:#404040;stroke-width:1.5;stroke-linejoin:miter;stroke-miterlimit:10;"/></g><!--link LangGraph to Router--><g class="link" data-entity-1="ent0003" data-entity-2="ent0005" data-link-type="dependency" data-source-line="63" id="lnk17"><path d="M623.81,259.5117 C461.71,259.5117 81,259.5117 81,259.5117 C81,259.5117 81,278.6317 81,296.7217" fill="none" id="LangGraph-to-Router" style="stroke:#404040;stroke-width:1.5;"/><polygon fill="#404040" points="81,301.7217,85,292.7217,81,296.7217,77,292.7217,81,301.7217" style="stroke:#404040;stroke-width:1.5;stroke-linejoin:miter;stroke-miterlimit:10;"/></g><!--link Router to Decision--><g class="link" data-entity-1="ent0005" data-entity-2="ent0006" data-link-type="dependency" data-source-line="65" id="lnk18"><path d="M133.04,321.2617 C151.37,321.2617 167.45,321.2617 187.77,321.2617" fill="none" id="Router-to-Decision" style="stroke:#404040;stroke-width:1.5;"/><polygon fill="#404040" points="192.77,321.2617,183.77,317.2617,187.77,321.2617,183.77,325.2617,192.77,321.2617" style="stroke:#404040;stroke-width:1.5;stroke-linejoin:miter;stroke-miterlimit:10;"/></g><!--link Decision to Flash--><g class="link" data-entity-1="ent0006" data-entity-2="ent0008" data-link-type="dependency" data-source-line="67" id="lnk19"><path d="M343,301.3717 C343,292.1817 343,283.2617 343,283.2617 C343,283.2617 395.16,283.2617 439.14,283.2617" fill="none" id="Decision-to-Flash" style="stroke:#404040;stroke-width:1.5;"/><polygon fill="#404040" points="444.14,283.2617,435.14,279.2617,439.14,283.2617,435.14,287.2617,444.14,283.2617" style="stroke:#404040;stroke-width:1.5;stroke-linejoin:miter;stroke-miterlimit:10;"/><text fill="#000000" font-family="Segoe UI" font-size="14" lengthAdjust="spacing" textLength="72.4883" x="311.51" y="279.3691">Low latency</text></g><!--link Decision to Pro--><g class="link" data-entity-1="ent0006" data-entity-2="ent0009" data-link-type="dependency" data-source-line="69" id="lnk20"><path d="M364.29,326.3817 C424.39,326.3817 494,326.3817 494,326.3817 C494,326.3817 494,327.0617 494,333.6217" fill="none" id="Decision-to-Pro" style="stroke:#404040;stroke-width:1.5;"/><polygon fill="#404040" points="494,338.6217,498,329.6217,494,333.6217,490,329.6217,494,338.6217" style="stroke:#404040;stroke-width:1.5;stroke-linejoin:miter;stroke-miterlimit:10;"/><text fill="#000000" font-family="Segoe UI" font-size="14" lengthAdjust="spacing" textLength="125.8291" x="436.26" y="322.4891">Advanced reasoning</text></g><!--link Decision to Embeddings--><g class="link" data-entity-1="ent0006" data-entity-2="ent0010" data-link-type="dependency" data-source-line="71" id="lnk21"><path d="M364.3,334.6417 C398.1,334.6417 429,334.6417 429,334.6417 C429,334.6417 429,378.9817 429,407.5017" fill="none" id="Decision-to-Embeddings" style="stroke:#404040;stroke-width:1.5;"/><polygon fill="#404040" points="429,412.5017,433,403.5017,429,407.5017,425,403.5017,429,412.5017" style="stroke:#404040;stroke-width:1.5;stroke-linejoin:miter;stroke-miterlimit:10;"/><text fill="#000000" font-family="Segoe UI" font-size="14" lengthAdjust="spacing" textLength="111.1934" x="317" y="357.3291">Vector generation</text></g><!--link Flash to LangGraph--><g class="link" data-entity-1="ent0008" data-entity-2="ent0003" data-link-type="dependency" data-source-line="73" id="lnk22"><path d="M543.55,273.7617 C567.67,273.7617 592.13,273.7617 618.66,273.7617" fill="none" id="Flash-to-LangGraph" style="stroke:#404040;stroke-width:1.5;"/><polygon fill="#404040" points="623.66,273.7617,614.66,269.7617,618.66,273.7617,614.66,277.7617,623.66,273.7617" style="stroke:#404040;stroke-width:1.5;stroke-linejoin:miter;stroke-miterlimit:10;"/></g><!--link Pro to LangGraph--><g class="link" data-entity-1="ent0009" data-entity-2="ent0003" data-link-type="dependency" data-source-line="75" id="lnk23"><path d="M538,354.5117 C590.71,354.5117 672,354.5117 672,354.5117 C672,354.5117 672,314.9017 672,288.0617" fill="none" id="Pro-to-LangGraph" style="stroke:#404040;stroke-width:1.5;"/><polygon fill="#404040" points="672,283.0617,668,292.0617,672,288.0617,676,292.0617,672,283.0617" style="stroke:#404040;stroke-width:1.5;stroke-linejoin:miter;stroke-miterlimit:10;"/></g><!--link Embeddings to Qdrant--><g class="link" data-entity-1="ent0010" data-entity-2="ent0012" data-link-type="dependency" data-source-line="77" id="lnk24"><path d="M564.27,432.2617 C654.71,432.2617 803.03,432.2617 868.89,432.2617" fill="none" id="Embeddings-to-Qdrant" style="stroke:#404040;stroke-width:1.5;"/><polygon fill="#404040" points="873.89,432.2617,864.89,428.2617,868.89,432.2617,864.89,436.2617,873.89,432.2617" style="stroke:#404040;stroke-width:1.5;stroke-linejoin:miter;stroke-miterlimit:10;"/></g><!--link LangGraph to Firestore--><g class="link" data-entity-1="ent0003" data-entity-2="ent0013" data-link-type="dependency" data-source-line="79" id="lnk25"><path d="M720,283.0717 C720,302.9117 720,330.5117 720,330.5117 C720,330.5117 809.79,330.5117 863.85,330.5117" fill="none" id="LangGraph-to-Firestore" style="stroke:#404040;stroke-width:1.5;"/><polygon fill="#404040" points="868.85,330.5117,859.85,326.5117,863.85,330.5117,859.85,334.5117,868.85,330.5117" style="stroke:#404040;stroke-width:1.5;stroke-linejoin:miter;stroke-miterlimit:10;"/></g><!--link LangGraph to GCS--><g class="link" data-entity-1="ent0003" data-entity-2="ent0014" data-link-type="dependency" data-source-line="81" id="lnk26"><path d="M767.18,263.2617 C786.43,263.2617 802.35,263.2617 821.95,263.2617" fill="none" id="LangGraph-to-GCS" style="stroke:#404040;stroke-width:1.5;"/><polygon fill="#404040" points="826.95,263.2617,817.95,259.2617,821.95,263.2617,817.95,267.2617,826.95,263.2617" style="stroke:#404040;stroke-width:1.5;stroke-linejoin:miter;stroke-miterlimit:10;"/></g><?plantuml-src VLJ1aX8n4BtdAreyhoNMUl5W5Qn0KQ8Yk7lldJGpAK929JqYMlwxdSmEpB2BS4ZI_VBwvNKoRDWIJ1nJs0SJ2KPp-1QAYY87PECTB2toneUTuWpzuZLPMFcQZIjX9533L70TIAbNND6EO6_HEAKiRHZOGp1bnQ1D49WGAXMtnkqnu0uUiTYMmTTEttdh0nmIMISVAzJ-a0fjqCPknXf7VDmJ-C2LxoJsGeabhVaeObD9TAMbRb5D6wmjJxtZhoXorrHwWllvov2r-KqmlEqIh5hMiG-QGYFzzUtRzByE-r6POkieHXY-UVyIRDNu41m567Q9bisH_b-j1phNUjU1Z4BmXsioSh9Fhh1WMGx6TJHvntsaC01i9agTt8N152EFbdCOYmfoEeDatSCiP9m5t5UmgXsR7MNKAQhKK-jWqBzZ2pocid-K0lbr2C-m9rdDz1ck9Vf4XOdfIazSAGVAMzgOKdyx0XueCFrARo7NY2zLdz7EE0DJYx7AL7bs3ROCFeDaV0QPx1v9wwImhIR0Kp3sfNrs_c19oxHzc2Tn6XaVKTxmuBiEw3ZpDDDBm5HUOvJcDYQSLfUmcVT9uPtrjOQr84H2tZ6xMsTPwIB0pSt7fjdf1gH5fwVdfgT4sw1cpA5p0qxjIU5i9do0XJ-0d9DSSRn0Y9EI7-cVw0hIuYT6xyIl2zZPHq4_KBxH9SaRm-PZr1IwK9suBq8TdfHfRUsVhsDaFv7zweTwZkK7zGy0?></g></svg>