<svg xmlns="http://www.w3.org/2000/svg" xmlns:xlink="http://www.w3.org/1999/xlink" contentStyleType="text/css" data-diagram-type="STATE" height="829px" preserveAspectRatio="none" style="width:958px;height:829px;background:#FFFFFF;" version="1.1" viewBox="0 0 958 829" width="958px" zoomAndPan="magnify"><?plantuml 1.2026.6?><defs/><g><g class="title" data-source-line="1"><text fill="#000000" font-family="sans-serif" font-size="14" font-weight="700" lengthAdjust="spacing" textLength="231.8203" x="360.0593" y="24.5332">Workflow Execution State Diagram</text></g><g class="start_entity" data-qualified-name=".start." data-source-line="10" id="ent0001"><ellipse cx="44" cy="54.6094" fill="#222222" rx="10" ry="10" style="stroke:#222222;stroke-width:1;"/></g><g class="entity" data-qualified-name="Created" data-source-line="10" id="ent0002"><rect fill="#FFFFFF" height="50" rx="12.5" ry="12.5" style="stroke:#000000;stroke-width:0.5;" width="69.8066" x="9" y="125.6094"/><line style="stroke:#000000;stroke-width:0.5;" x1="9" x2="78.8066" y1="153.2188" y2="153.2188"/><text fill="#000000" font-family="sans-serif" font-size="14" lengthAdjust="spacing" textLength="49.8066" x="19" y="145.1426">Created</text></g><g class="entity" data-qualified-name="Planning" data-source-line="12" id="ent0004"><rect fill="#FFFFFF" height="50" rx="12.5" ry="12.5" style="stroke:#000000;stroke-width:0.5;" width="74.4893" x="7" y="253.6094"/><line style="stroke:#000000;stroke-width:0.5;" x1="7" x2="81.4893" y1="281.2188" y2="281.2188"/><text fill="#000000" font-family="sans-serif" font-size="14" lengthAdjust="spacing" textLength="54.4893" x="17" y="273.1426">Planning</text></g><g class="entity" data-qualified-name="Executing" data-source-line="14" id="ent0006"><rect fill="#FFFFFF" height="50" rx="12.5" ry="12.5" style="stroke:#000000;stroke-width:0.5;" width="81.4824" x="329.5" y="381.6094"/><line style="stroke:#000000;stroke-width:0.5;" x1="329.5" x2="410.9824" y1="409.2188" y2="409.2188"/><text fill="#000000" font-family="sans-serif" font-size="14" lengthAdjust="spacing" textLength="61.4824" x="339.5" y="401.1426">Executing</text></g><g class="entity" data-qualified-name="Failed" data-source-line="15" id="ent0008"><rect fill="#FFFFFF" height="50" rx="12.5" ry="12.5" style="stroke:#000000;stroke-width:0.5;" width="58.1309" x="306" y="637.6094"/><line style="stroke:#000000;stroke-width:0.5;" x1="306" x2="364.1309" y1="665.2188" y2="665.2188"/><text fill="#000000" font-family="sans-serif" font-size="14" lengthAdjust="spacing" textLength="38.1309" x="316" y="657.1426">Failed</text></g><g class="entity" data-qualified-name="WaitingForTool" data-source-line="17" id="ent0010"><rect fill="#FFFFFF" height="50" rx="12.5" ry="12.5" style="stroke:#000000;stroke-width:0.5;" width="114.917" x="277.5" y="509.6094"/><line style="stroke:#000000;stroke-width:0.5;" x1="277.5" x2="392.417" y1="537.2188" y2="537.2188"/><text fill="#000000" font-family="sans-serif" font-size="14" lengthAdjust="spacing" textLength="94.917" x="287.5" y="529.1426">WaitingForTool</text></g><g class="entity" data-qualified-name="WaitingForUser" data-source-line="20" id="ent0013"><rect fill="#FFFFFF" height="50" rx="12.5" ry="12.5" style="stroke:#000000;stroke-width:0.5;" width="117.2412" x="427.5" y="509.6094"/><line style="stroke:#000000;stroke-width:0.5;" x1="427.5" x2="544.7412" y1="537.2188" y2="537.2188"/><text fill="#000000" font-family="sans-serif" font-size="14" lengthAdjust="spacing" textLength="97.2412" x="437.5" y="529.1426">WaitingForUser</text></g><g class="entity" data-qualified-name="Completed" data-source-line="23" id="ent0016"><rect fill="#FFFFFF" height="50" rx="12.5" ry="12.5" style="stroke:#000000;stroke-width:0.5;" width="87.7031" x="792" y="509.6094"/><line style="stroke:#000000;stroke-width:0.5;" x1="792" x2="879.7031" y1="537.2188" y2="537.2188"/><text fill="#000000" font-family="sans-serif" font-size="14" lengthAdjust="spacing" textLength="67.7031" x="802" y="529.1426">Completed</text></g><g class="entity" data-qualified-name="Retrying" data-source-line="29" id="ent0021"><rect fill="#FFFFFF" height="50" rx="12.5" ry="12.5" style="stroke:#000000;stroke-width:0.5;" width="72.1309" x="423" y="765.6094"/><line style="stroke:#000000;stroke-width:0.5;" x1="423" x2="495.1309" y1="793.2188" y2="793.2188"/><text fill="#000000" font-family="sans-serif" font-size="14" lengthAdjust="spacing" textLength="52.1309" x="433" y="785.1426">Retrying</text></g><g class="entity" data-qualified-name="Archived" data-source-line="33" id="ent0025"><rect fill="#FFFFFF" height="50" rx="12.5" ry="12.5" style="stroke:#000000;stroke-width:0.5;" width="74.4688" x="819" y="637.6094"/><line style="stroke:#000000;stroke-width:0.5;" x1="819" x2="893.4688" y1="665.2188" y2="665.2188"/><text fill="#000000" font-family="sans-serif" font-size="14" lengthAdjust="spacing" textLength="54.4688" x="829" y="657.1426">Archived</text></g><g class="end_entity" data-qualified-name=".end." data-source-line="35" id="ent0027"><ellipse cx="856" cy="790.6094" fill="none" rx="11" ry="11" style="stroke:#222222;stroke-width:1;"/><ellipse cx="856" cy="790.6094" fill="#222222" rx="6" ry="6" style="stroke:#222222;stroke-width:1;"/></g><!--link *start* to Created--><g class="link" data-entity-1="ent0001" data-entity-2="ent0002" data-link-type="dependency" data-source-line="10" id="lnk3"><path d="M44,64.6194 C44,78.4994 44,100.5794 44,120.4494" fill="none" id="*start*-to-Created" style="stroke:#000000;stroke-width:1;"/><polygon fill="#000000" points="44,125.4494,48,116.4494,44,120.4494,40,116.4494,44,125.4494" style="stroke:#000000;stroke-width:1;stroke-linejoin:miter;stroke-miterlimit:10;"/></g><!--link Created to Planning--><g class="link" data-entity-1="ent0002" data-entity-2="ent0004" data-link-type="dependency" data-source-line="12" id="lnk5"><path d="M44,175.8994 C44,198.2194 44,226.0994 44,248.3894" fill="none" id="Created-to-Planning" style="stroke:#000000;stroke-width:1;"/><polygon fill="#000000" points="44,253.3894,48,244.3894,44,248.3894,40,244.3894,44,253.3894" style="stroke:#000000;stroke-width:1;stroke-linejoin:miter;stroke-miterlimit:10;"/><text fill="#000000" font-family="sans-serif" font-size="13" lengthAdjust="spacing" textLength="84.5127" x="45" y="220.1045">Start Workflow</text></g><!--link Planning to Executing--><g class="link" data-entity-1="ent0004" data-entity-2="ent0006" data-link-type="dependency" data-source-line="14" id="lnk7"><path d="M81.08,293.9394 C142.66,317.7394 260.8861,363.4371 324.7261,388.1071" fill="none" id="Planning-to-Executing" style="stroke:#000000;stroke-width:1;"/><polygon fill="#000000" points="329.39,389.9094,322.4368,382.9342,324.7261,388.1071,319.5532,390.3964,329.39,389.9094" style="stroke:#000000;stroke-width:1;stroke-linejoin:miter;stroke-miterlimit:10;"/><text fill="#000000" font-family="sans-serif" font-size="13" lengthAdjust="spacing" textLength="91.0635" x="228" y="348.1045">Plan Generated</text></g><!--link Planning to Failed--><g class="link" data-entity-1="ent0004" data-entity-2="ent0008" data-link-type="dependency" data-source-line="15" id="lnk9"><path d="M41.28,303.6694 C37.87,342.2394 34.98,419.6594 58,479.6094 C83.87,547.0094 98.49,566.7394 158,607.6094 C203.81,639.0794 263.5941,651.9458 300.7441,657.4558" fill="none" id="Planning-to-Failed" style="stroke:#000000;stroke-width:1;"/><polygon fill="#000000" points="305.69,658.1894,297.3742,652.9122,300.7441,657.4558,296.2005,660.8257,305.69,658.1894" style="stroke:#000000;stroke-width:1;stroke-linejoin:miter;stroke-miterlimit:10;"/><text fill="#000000" font-family="sans-serif" font-size="13" lengthAdjust="spacing" textLength="83.0972" x="59" y="476.1045">Planning Error</text></g><!--link Executing to WaitingForTool--><g class="link" data-entity-1="ent0006" data-entity-2="ent0010" data-link-type="dependency" data-source-line="17" id="lnk11"><path d="M329.12,413.2894 C278.35,421.2794 196.19,437.5994 178,461.6094 C173.17,467.9894 173.35,473.0994 178,479.6094 C184.15,488.2294 230.2163,503.338 272.4063,515.848" fill="none" id="Executing-to-WaitingForTool" style="stroke:#000000;stroke-width:1;"/><polygon fill="#000000" points="277.2,517.2694,269.7085,510.8759,272.4063,515.848,267.4342,518.5458,277.2,517.2694" style="stroke:#000000;stroke-width:1;stroke-linejoin:miter;stroke-miterlimit:10;"/><text fill="#000000" font-family="sans-serif" font-size="13" lengthAdjust="spacing" textLength="81.6563" x="179" y="476.1045">Tool Required</text></g><!--link WaitingForTool to Executing--><g class="link" data-entity-1="ent0010" data-entity-2="ent0006" data-link-type="dependency" data-source-line="18" id="lnk12"><path d="M312.19,509.5394 C301.75,495.5194 293.25,477.5194 301,461.6094 C307.2,448.8894 313.9863,441.2711 325.2263,432.9211" fill="none" id="WaitingForTool-to-Executing" style="stroke:#000000;stroke-width:1;"/><polygon fill="#000000" points="329.24,429.9394,319.63,432.0955,325.2263,432.9211,324.4007,438.5173,329.24,429.9394" style="stroke:#000000;stroke-width:1;stroke-linejoin:miter;stroke-miterlimit:10;"/><text fill="#000000" font-family="sans-serif" font-size="13" lengthAdjust="spacing" textLength="91.7681" x="302" y="476.1045">Tool Completed</text></g><!--link Executing to WaitingForUser--><g class="link" data-entity-1="ent0006" data-entity-2="ent0013" data-link-type="dependency" data-source-line="20" id="lnk14"><path d="M391.1,431.8294 C403.46,445.8994 419.46,463.8994 434,479.6094 C443.1,489.4494 449.8213,496.5179 458.7613,505.7479" fill="none" id="Executing-to-WaitingForUser" style="stroke:#000000;stroke-width:1;"/><polygon fill="#000000" points="462.24,509.3394,458.8516,500.0917,458.7613,505.7479,453.1052,505.6576,462.24,509.3394" style="stroke:#000000;stroke-width:1;stroke-linejoin:miter;stroke-miterlimit:10;"/><text fill="#000000" font-family="sans-serif" font-size="13" lengthAdjust="spacing" textLength="116.3398" x="435" y="476.1045">User Input Required</text></g><!--link WaitingForUser to Executing--><g class="link" data-entity-1="ent0013" data-entity-2="ent0006" data-link-type="dependency" data-source-line="21" id="lnk15"><path d="M533.48,509.3894 C553.22,496.0494 568.88,478.7594 556,461.6094 C538.58,438.4194 465.1212,422.7857 415.8312,414.5257" fill="none" id="WaitingForUser-to-Executing" style="stroke:#000000;stroke-width:1;"/><polygon fill="#000000" points="410.9,413.6994,419.1151,419.1318,415.8312,414.5257,420.4373,411.2419,410.9,413.6994" style="stroke:#000000;stroke-width:1;stroke-linejoin:miter;stroke-miterlimit:10;"/><text fill="#000000" font-family="sans-serif" font-size="13" lengthAdjust="spacing" textLength="97.5571" x="562" y="476.1045">User Responded</text></g><!--link Executing to Completed--><g class="link" data-entity-1="ent0006" data-entity-2="ent0016" data-link-type="dependency" data-source-line="23" id="lnk17"><path d="M410.72,406.8494 C481.29,406.9394 629.61,413.4994 743,461.6094 C769.32,472.7794 790.9924,489.861 808.5624,506.141" fill="none" id="Executing-to-Completed" style="stroke:#000000;stroke-width:1;"/><polygon fill="#000000" points="812.23,509.5394,808.347,500.4883,808.5624,506.141,802.9096,506.3565,812.23,509.5394" style="stroke:#000000;stroke-width:1;stroke-linejoin:miter;stroke-miterlimit:10;"/><text fill="#000000" font-family="sans-serif" font-size="13" lengthAdjust="spacing" textLength="49.1309" x="775" y="476.1045">Success</text></g><!--link Executing to Failed--><g class="link" data-entity-1="ent0006" data-entity-2="ent0008" data-link-type="dependency" data-source-line="25" id="lnk18"><path d="M329.2,409.1094 C284.94,412.7094 214.27,424.3794 167,461.6094 C147.94,476.6194 146.96,486.0894 141,509.6094 C135.54,531.1494 129.51,540.5894 141,559.6094 C177.1,619.3794 256.2455,644.756 300.9455,654.966" fill="none" id="Executing-to-Failed" style="stroke:#000000;stroke-width:1;"/><polygon fill="#000000" points="305.82,656.0794,297.9367,650.1757,300.9455,654.966,296.1553,657.9749,305.82,656.0794" style="stroke:#000000;stroke-width:1;stroke-linejoin:miter;stroke-miterlimit:10;"/><text fill="#000000" font-family="sans-serif" font-size="13" lengthAdjust="spacing" textLength="117.0444" x="142" y="540.1045">Unrecoverable Error</text></g><!--link WaitingForTool to Failed--><g class="link" data-entity-1="ent0010" data-entity-2="ent0008" data-link-type="dependency" data-source-line="26" id="lnk19"><path d="M335,559.8994 C335,582.2194 335,610.0994 335,632.3894" fill="none" id="WaitingForTool-to-Failed" style="stroke:#000000;stroke-width:1;"/><polygon fill="#000000" points="335,637.3894,339,628.3894,335,632.3894,331,628.3894,335,637.3894" style="stroke:#000000;stroke-width:1;stroke-linejoin:miter;stroke-miterlimit:10;"/><text fill="#000000" font-family="sans-serif" font-size="13" lengthAdjust="spacing" textLength="68.6372" x="336" y="604.1045">Tool Failure</text></g><!--link WaitingForUser to Failed--><g class="link" data-entity-1="ent0013" data-entity-2="ent0008" data-link-type="dependency" data-source-line="27" id="lnk20"><path d="M463.63,559.6994 C449.65,574.2294 430.95,592.7294 413,607.6094 C397.53,620.4294 383.2626,630.5444 368.1926,640.4944" fill="none" id="WaitingForUser-to-Failed" style="stroke:#000000;stroke-width:1;"/><polygon fill="#000000" points="364.02,643.2494,373.7346,641.6285,368.1926,640.4944,369.3267,634.9524,364.02,643.2494" style="stroke:#000000;stroke-width:1;stroke-linejoin:miter;stroke-miterlimit:10;"/><text fill="#000000" font-family="sans-serif" font-size="13" lengthAdjust="spacing" textLength="46.96" x="433" y="604.1045">Timeout</text></g><!--link Failed to Retrying--><g class="link" data-entity-1="ent0008" data-entity-2="ent0021" data-link-type="dependency" data-source-line="29" id="lnk22"><path d="M327.23,687.8894 C323.99,702.8394 322.82,721.7294 332,735.6094 C352.02,765.8794 387.9229,778.2799 417.8929,784.1399" fill="none" id="Failed-to-Retrying" style="stroke:#000000;stroke-width:1;"/><polygon fill="#000000" points="422.8,785.0994,414.7348,779.4467,417.8929,784.1399,413.1997,787.298,422.8,785.0994" style="stroke:#000000;stroke-width:1;stroke-linejoin:miter;stroke-miterlimit:10;"/><text fill="#000000" font-family="sans-serif" font-size="13" lengthAdjust="spacing" textLength="82.3799" x="333" y="732.1045">Retry Enabled</text></g><!--link Retrying to Failed--><g class="link" data-entity-1="ent0021" data-entity-2="ent0008" data-link-type="dependency" data-source-line="31" id="lnk24"><path d="M449.57,765.2894 C442.92,750.3294 432.9,731.4394 420,717.6094 C404.14,700.6094 386.2357,689.045 368.4457,679.595" fill="none" id="Retrying-to-Failed" style="stroke:#000000;stroke-width:1;"/><polygon fill="#000000" points="364.03,677.2494,370.1017,685.004,368.4457,679.595,373.8547,677.9389,364.03,677.2494" style="stroke:#000000;stroke-width:1;stroke-linejoin:miter;stroke-miterlimit:10;"/><text fill="#000000" font-family="sans-serif" font-size="13" lengthAdjust="spacing" textLength="123.5508" x="435" y="732.1045">Retry Limit Exceeded</text></g><!--link Retrying to Executing--><g class="link" data-entity-1="ent0021" data-entity-2="ent0006" data-link-type="dependency" data-source-line="30" id="lnk23"><path d="M495.25,778.9994 C518.47,770.5594 547.75,756.6394 567,735.6094 C755.19,530.1094 682.56,479.0394 668,461.6094 C635.69,422.9194 489.5856,412.0985 415.7756,409.0085" fill="none" id="Retrying-to-Executing" style="stroke:#000000;stroke-width:1;"/><polygon fill="#000000" points="410.78,408.7994,419.6048,413.1723,415.7756,409.0085,419.9394,405.1793,410.78,408.7994" style="stroke:#000000;stroke-width:1;stroke-linejoin:miter;stroke-miterlimit:10;"/><text fill="#000000" font-family="sans-serif" font-size="13" lengthAdjust="spacing" textLength="97.5317" x="675" y="604.1045">Retry Successful</text></g><!--link Completed to Archived--><g class="link" data-entity-1="ent0016" data-entity-2="ent0025" data-link-type="dependency" data-source-line="33" id="lnk26"><path d="M839.86,559.8994 C843.4,582.2194 847.8358,610.1613 851.3758,632.4513" fill="none" id="Completed-to-Archived" style="stroke:#000000;stroke-width:1;"/><polygon fill="#000000" points="852.16,637.3894,854.6988,627.8734,851.3758,632.4513,846.7979,629.1282,852.16,637.3894" style="stroke:#000000;stroke-width:1;stroke-linejoin:miter;stroke-miterlimit:10;"/><text fill="#000000" font-family="sans-serif" font-size="13" lengthAdjust="spacing" textLength="93.939" x="849" y="604.1045">Retention Policy</text></g><!--link Archived to *end*--><g class="link" data-entity-1="ent0025" data-entity-2="ent0027" data-link-type="dependency" data-source-line="35" id="lnk28"><path d="M856,687.8994 C856,715.6494 856,754.7494 856,774.4894" fill="none" id="Archived-to-*end*" style="stroke:#000000;stroke-width:1;"/><polygon fill="#000000" points="856,779.4894,860,770.4894,856,774.4894,852,770.4894,856,779.4894" style="stroke:#000000;stroke-width:1;stroke-linejoin:miter;stroke-miterlimit:10;"/></g><?plantuml-src TPBFJW8n4CRlynGzc_0274m4mPXu82ZXO3pKxW0DtSuwRK5YV7VRxjg55VVIsU_xTVwbNdk3OasytnWwYjadgk0rMV7ifKTnh-MMPGtWzjesCeR2xMH5HsstOYEDmtCdN_a24R-9LFijKx3Lb0onME-qnzOXhf1RTM8YbjKxPZgUYzy0hpTlOZIw5LF6cBW2w88iBeoqDdKnJgsoBpC052jntKGPJ8PuG8kSyrrmSwbDJ3tk4yzYImpG9qZOMkeKpubVY4p4yx74Zw0vfXpOmmQoEAMwCPW7-Y_toY57F1-FjWd-MeNi3YjaSOck8LlzhL1Afwq5fT2v8LBsiBACYWvnL-_nXRJBk39UuREI_WBZjIvxKDT8mGDqIZANwFdKJf13CREfR0N560xQOjqGcs0koLAinPvqhNsyhX3pLlez9FYErKuVVd6q-Vqlo6Xr0YXc8kEBX1y0?></g></svg>