<svg xmlns="http://www.w3.org/2000/svg" xmlns:xlink="http://www.w3.org/1999/xlink" contentStyleType="text/css" data-diagram-type="DESCRIPTION" height="371px" preserveAspectRatio="none" style="width:3869px;height:371px;background:#FFFFFF;" version="1.1" viewBox="0 0 3869 371" width="3869px" zoomAndPan="magnify"><?plantuml 1.2026.6?><defs/><g><g class="title" data-source-line="3"><text fill="#000000" font-family="Segoe UI" font-size="22" font-weight="700" lengthAdjust="spacing" textLength="224.125" x="1821.4375" y="38.7402">Business Process Map</text></g><!--cluster Knowledge Ingestion Process--><g class="cluster" data-qualified-name="Knowledge Ingestion Process" data-source-line="31" id="ent0001"><rect fill="#FFFFFF" height="295" rx="5" ry="5" style="stroke:#404040;stroke-width:1.5;" width="1659" x="12" y="62.2617"/><text fill="#000000" font-family="Segoe UI" font-size="14" font-weight="700" lengthAdjust="spacing" textLength="192.5684" x="745.2158" y="79.3691">Knowledge Ingestion Process</text></g><!--cluster AI Assisted Knowledge Retrieval--><g class="cluster" data-qualified-name="AI Assisted Knowledge Retrieval" data-source-line="59" id="ent0012"><rect fill="#FFFFFF" height="111" rx="5" ry="5" style="stroke:#404040;stroke-width:1.5;" width="2156" x="1699" y="62.2617"/><text fill="#000000" font-family="Segoe UI" font-size="14" font-weight="700" lengthAdjust="spacing" textLength="211.9824" x="2671.0088" y="79.3691">AI Assisted Knowledge Retrieval</text></g><!--entity Receive--><g class="entity" data-qualified-name="Knowledge Ingestion Process.Receive" data-source-line="33" id="ent0002"><rect fill="#FFFFFF" height="38.6211" rx="5" ry="5" style="stroke:#404040;stroke-width:1.5;" width="206.6553" x="28" y="200.7617"/><text fill="#000000" font-family="Segoe UI" font-size="14" lengthAdjust="spacing" textLength="186.6553" x="38" y="225.8691">Receive Enterprise Documents</text></g><!--entity Validate--><g class="entity" data-qualified-name="Knowledge Ingestion Process.Validate" data-source-line="35" id="ent0003"><rect fill="#FFFFFF" height="38.6211" rx="5" ry="5" style="stroke:#404040;stroke-width:1.5;" width="116.0859" x="295" y="200.7617"/><text fill="#000000" font-family="Segoe UI" font-size="14" lengthAdjust="spacing" textLength="96.0859" x="305" y="225.8691">Validate Source</text></g><!--entity Ingestion--><g class="entity" data-qualified-name="Knowledge Ingestion Process.Ingestion" data-source-line="37" id="ent0004"><rect fill="#FFFFFF" height="38.6211" rx="5" ry="5" style="stroke:#404040;stroke-width:1.5;" width="145.7061" x="471" y="200.7617"/><text fill="#000000" font-family="Segoe UI" font-size="14" lengthAdjust="spacing" textLength="125.7061" x="481" y="225.8691">Document Ingestion</text></g><!--entity Extract--><g class="entity" data-qualified-name="Knowledge Ingestion Process.Extract" data-source-line="39" id="ent0005"><rect fill="#FFFFFF" height="38.6211" rx="5" ry="5" style="stroke:#404040;stroke-width:1.5;" width="134.3311" x="677" y="200.7617"/><text fill="#000000" font-family="Segoe UI" font-size="14" lengthAdjust="spacing" textLength="114.3311" x="687" y="225.8691">Content Extraction</text></g><!--entity Metadata--><g class="entity" data-qualified-name="Knowledge Ingestion Process.Metadata" data-source-line="41" id="ent0006"><rect fill="#FFFFFF" height="38.6211" rx="5" ry="5" style="stroke:#404040;stroke-width:1.5;" width="143.7988" x="871" y="200.7617"/><text fill="#000000" font-family="Segoe UI" font-size="14" lengthAdjust="spacing" textLength="123.7988" x="881" y="225.8691">Metadata Extraction</text></g><!--entity Chunking--><g class="entity" data-qualified-name="Knowledge Ingestion Process.Chunking" data-source-line="43" id="ent0007"><rect fill="#FFFFFF" height="38.6211" rx="5" ry="5" style="stroke:#404040;stroke-width:1.5;" width="131.6514" x="1075" y="200.7617"/><text fill="#000000" font-family="Segoe UI" font-size="14" lengthAdjust="spacing" textLength="111.6514" x="1085" y="225.8691">Chunk Generation</text></g><!--entity Embeddings--><g class="entity" data-qualified-name="Knowledge Ingestion Process.Embeddings" data-source-line="45" id="ent0008"><rect fill="#FFFFFF" height="38.6211" rx="5" ry="5" style="stroke:#404040;stroke-width:1.5;" width="162.9941" x="1267" y="200.7617"/><text fill="#000000" font-family="Segoe UI" font-size="14" lengthAdjust="spacing" textLength="142.9941" x="1277" y="225.8691">Embedding Generation</text></g><!--entity GCS--><g class="entity" data-qualified-name="Knowledge Ingestion Process.GCS" data-source-line="47" id="ent0009"><rect fill="#FFFFFF" height="57.2422" rx="5" ry="5" style="stroke:#404040;stroke-width:1.5;" width="165.4551" x="1490" y="283.7617"/><text fill="#000000" font-family="Segoe UI" font-size="14" lengthAdjust="spacing" textLength="106.8047" x="1500" y="308.8691">Store Documents</text><text fill="#000000" font-family="Segoe UI" font-size="14" lengthAdjust="spacing" textLength="145.4551" x="1500" y="327.4902">(Google Cloud Storage)</text></g><!--entity Firestore--><g class="entity" data-qualified-name="Knowledge Ingestion Process.Firestore" data-source-line="49" id="ent0010"><rect fill="#FFFFFF" height="57.2422" rx="5" ry="5" style="stroke:#404040;stroke-width:1.5;" width="115.4023" x="1515" y="191.7617"/><text fill="#000000" font-family="Segoe UI" font-size="14" lengthAdjust="spacing" textLength="95.4023" x="1525" y="216.8691">Store Metadata</text><text fill="#000000" font-family="Segoe UI" font-size="14" lengthAdjust="spacing" textLength="61.9404" x="1525" y="235.4902">(Firestore)</text></g><!--entity Qdrant--><g class="entity" data-qualified-name="Knowledge Ingestion Process.Qdrant" data-source-line="51" id="ent0011"><rect fill="#FFFFFF" height="57.2422" rx="5" ry="5" style="stroke:#404040;stroke-width:1.5;" width="102.6465" x="1521" y="99.7617"/><text fill="#000000" font-family="Segoe UI" font-size="14" lengthAdjust="spacing" textLength="82.6465" x="1531" y="124.8691">Store Vectors</text><text fill="#000000" font-family="Segoe UI" font-size="14" lengthAdjust="spacing" textLength="51.9053" x="1531" y="143.4902">(Qdrant)</text></g><!--entity Auth--><g class="entity" data-qualified-name="AI Assisted Knowledge Retrieval.Auth" data-source-line="61" id="ent0013"><rect fill="#FFFFFF" height="38.6211" rx="5" ry="5" style="stroke:#404040;stroke-width:1.5;" width="130.2363" x="1715" y="108.7617"/><text fill="#000000" font-family="Segoe UI" font-size="14" lengthAdjust="spacing" textLength="110.2363" x="1725" y="133.8691">Authenticate User</text></g><!--entity Context--><g class="entity" data-qualified-name="AI Assisted Knowledge Retrieval.Context" data-source-line="63" id="ent0014"><rect fill="#FFFFFF" height="38.6211" rx="5" ry="5" style="stroke:#404040;stroke-width:1.5;" width="154.2031" x="1905" y="108.7617"/><text fill="#000000" font-family="Segoe UI" font-size="14" lengthAdjust="spacing" textLength="134.2031" x="1915" y="133.8691">Retrieve Chat Context</text></g><!--entity QueryEmbedding--><g class="entity" data-qualified-name="AI Assisted Knowledge Retrieval.QueryEmbedding" data-source-line="65" id="ent0015"><rect fill="#FFFFFF" height="38.6211" rx="5" ry="5" style="stroke:#404040;stroke-width:1.5;" width="192.0742" x="2119" y="108.7617"/><text fill="#000000" font-family="Segoe UI" font-size="14" lengthAdjust="spacing" textLength="172.0742" x="2129" y="133.8691">Generate Query Embedding</text></g><!--entity Search--><g class="entity" data-qualified-name="AI Assisted Knowledge Retrieval.Search" data-source-line="67" id="ent0016"><rect fill="#FFFFFF" height="38.6211" rx="5" ry="5" style="stroke:#404040;stroke-width:1.5;" width="106.4199" x="2371" y="108.7617"/><text fill="#000000" font-family="Segoe UI" font-size="14" lengthAdjust="spacing" textLength="86.4199" x="2381" y="133.8691">Hybrid Search</text></g><!--entity Filter--><g class="entity" data-qualified-name="AI Assisted Knowledge Retrieval.Filter" data-source-line="69" id="ent0017"><rect fill="#FFFFFF" height="38.6211" rx="5" ry="5" style="stroke:#404040;stroke-width:1.5;" width="132.9365" x="2537" y="108.7617"/><text fill="#000000" font-family="Segoe UI" font-size="14" lengthAdjust="spacing" textLength="112.9365" x="2547" y="133.8691">Metadata Filtering</text></g><!--entity Rerank--><g class="entity" data-qualified-name="AI Assisted Knowledge Retrieval.Rerank" data-source-line="71" id="ent0018"><rect fill="#FFFFFF" height="38.6211" rx="5" ry="5" style="stroke:#404040;stroke-width:1.5;" width="173.5215" x="2730" y="108.7617"/><text fill="#000000" font-family="Segoe UI" font-size="14" lengthAdjust="spacing" textLength="153.5215" x="2740" y="133.8691">Cross Encoder Reranking</text></g><!--entity BuildContext--><g class="entity" data-qualified-name="AI Assisted Knowledge Retrieval.BuildContext" data-source-line="73" id="ent0019"><rect fill="#FFFFFF" height="38.6211" rx="5" ry="5" style="stroke:#404040;stroke-width:1.5;" width="119.4287" x="2964" y="108.7617"/><text fill="#000000" font-family="Segoe UI" font-size="14" lengthAdjust="spacing" textLength="99.4287" x="2974" y="133.8691">Build AI Context</text></g><!--entity Gemini--><g class="entity" data-qualified-name="AI Assisted Knowledge Retrieval.Gemini" data-source-line="75" id="ent0020"><rect fill="#FFFFFF" height="57.2422" rx="5" ry="5" style="stroke:#404040;stroke-width:1.5;" width="139.3145" x="3143" y="99.7617"/><text fill="#000000" font-family="Segoe UI" font-size="14" lengthAdjust="spacing" textLength="119.3145" x="3153" y="124.8691">Generate Response</text><text fill="#000000" font-family="Segoe UI" font-size="14" lengthAdjust="spacing" textLength="52.1377" x="3153" y="143.4902">(Gemini)</text></g><!--entity ValidateResponse--><g class="entity" data-qualified-name="AI Assisted Knowledge Retrieval.ValidateResponse" data-source-line="77" id="ent0021"><rect fill="#FFFFFF" height="38.6211" rx="5" ry="5" style="stroke:#404040;stroke-width:1.5;" width="145.3164" x="3342" y="108.7617"/><text fill="#000000" font-family="Segoe UI" font-size="14" lengthAdjust="spacing" textLength="125.3164" x="3352" y="133.8691">Response Validation</text></g><!--entity Audit--><g class="entity" data-qualified-name="AI Assisted Knowledge Retrieval.Audit" data-source-line="79" id="ent0022"><rect fill="#FFFFFF" height="38.6211" rx="5" ry="5" style="stroke:#404040;stroke-width:1.5;" width="108.0059" x="3547" y="108.7617"/><text fill="#000000" font-family="Segoe UI" font-size="14" lengthAdjust="spacing" textLength="88.0059" x="3557" y="133.8691">Audit Logging</text></g><!--entity Response--><g class="entity" data-qualified-name="AI Assisted Knowledge Retrieval.Response" data-source-line="81" id="ent0023"><rect fill="#FFFFFF" height="38.6211" rx="5" ry="5" style="stroke:#404040;stroke-width:1.5;" width="124.2412" x="3715" y="108.7617"/><text fill="#000000" font-family="Segoe UI" font-size="14" lengthAdjust="spacing" textLength="104.2412" x="3725" y="133.8691">Return Response</text></g><!--link Receive to Validate--><g class="link" data-entity-1="ent0002" data-entity-2="ent0003" data-link-type="dependency" data-source-line="89" id="lnk24"><path d="M235.12,220.2617 C255.61,220.2617 271.43,220.2617 289.75,220.2617" fill="none" id="Receive-to-Validate" style="stroke:#404040;stroke-width:1.5;"/><polygon fill="#404040" points="294.75,220.2617,285.75,216.2617,289.75,220.2617,285.75,224.2617,294.75,220.2617" style="stroke:#404040;stroke-width:1.5;stroke-linejoin:miter;stroke-miterlimit:10;"/></g><!--link Validate to Ingestion--><g class="link" data-entity-1="ent0003" data-entity-2="ent0004" data-link-type="dependency" data-source-line="91" id="lnk25"><path d="M411.08,220.2617 C429.96,220.2617 446.16,220.2617 465.98,220.2617" fill="none" id="Validate-to-Ingestion" style="stroke:#404040;stroke-width:1.5;"/><polygon fill="#404040" points="470.98,220.2617,461.98,216.2617,465.98,220.2617,461.98,224.2617,470.98,220.2617" style="stroke:#404040;stroke-width:1.5;stroke-linejoin:miter;stroke-miterlimit:10;"/></g><!--link Ingestion to Extract--><g class="link" data-entity-1="ent0004" data-entity-2="ent0005" data-link-type="dependency" data-source-line="93" id="lnk26"><path d="M617.05,220.2617 C636.58,220.2617 652.59,220.2617 671.79,220.2617" fill="none" id="Ingestion-to-Extract" style="stroke:#404040;stroke-width:1.5;"/><polygon fill="#404040" points="676.79,220.2617,667.79,216.2617,671.79,220.2617,667.79,224.2617,676.79,220.2617" style="stroke:#404040;stroke-width:1.5;stroke-linejoin:miter;stroke-miterlimit:10;"/></g><!--link Extract to Metadata--><g class="link" data-entity-1="ent0005" data-entity-2="ent0006" data-link-type="dependency" data-source-line="95" id="lnk27"><path d="M811.09,220.2617 C830.28,220.2617 846.26,220.2617 865.74,220.2617" fill="none" id="Extract-to-Metadata" style="stroke:#404040;stroke-width:1.5;"/><polygon fill="#404040" points="870.74,220.2617,861.74,216.2617,865.74,220.2617,861.74,224.2617,870.74,220.2617" style="stroke:#404040;stroke-width:1.5;stroke-linejoin:miter;stroke-miterlimit:10;"/></g><!--link Metadata to Chunking--><g class="link" data-entity-1="ent0006" data-entity-2="ent0007" data-link-type="dependency" data-source-line="97" id="lnk28"><path d="M1015.04,220.2617 C1034.61,220.2617 1050.71,220.2617 1069.93,220.2617" fill="none" id="Metadata-to-Chunking" style="stroke:#404040;stroke-width:1.5;"/><polygon fill="#404040" points="1074.93,220.2617,1065.93,216.2617,1069.93,220.2617,1065.93,224.2617,1074.93,220.2617" style="stroke:#404040;stroke-width:1.5;stroke-linejoin:miter;stroke-miterlimit:10;"/></g><!--link Chunking to Embeddings--><g class="link" data-entity-1="ent0007" data-entity-2="ent0008" data-link-type="dependency" data-source-line="99" id="lnk29"><path d="M1207.22,220.2617 C1226.2,220.2617 1242.11,220.2617 1261.9,220.2617" fill="none" id="Chunking-to-Embeddings" style="stroke:#404040;stroke-width:1.5;"/><polygon fill="#404040" points="1266.9,220.2617,1257.9,216.2617,1261.9,220.2617,1257.9,224.2617,1266.9,220.2617" style="stroke:#404040;stroke-width:1.5;stroke-linejoin:miter;stroke-miterlimit:10;"/></g><!--link Embeddings to GCS--><g class="link" data-entity-1="ent0008" data-entity-2="ent0009" data-link-type="dependency" data-source-line="101" id="lnk30"><path d="M1430.27,226.7617 C1467.33,226.7617 1503,226.7617 1503,226.7617 C1503,226.7617 1503,253.5117 1503,278.3117" fill="none" id="Embeddings-to-GCS" style="stroke:#404040;stroke-width:1.5;"/><polygon fill="#404040" points="1503,283.3117,1507,274.3117,1503,278.3117,1499,274.3117,1503,283.3117" style="stroke:#404040;stroke-width:1.5;stroke-linejoin:miter;stroke-miterlimit:10;"/></g><!--link Embeddings to Firestore--><g class="link" data-entity-1="ent0008" data-entity-2="ent0010" data-link-type="dependency" data-source-line="103" id="lnk31"><path d="M1430,213.7617 C1458.15,213.7617 1484.08,213.7617 1509.9,213.7617" fill="none" id="Embeddings-to-Firestore" style="stroke:#404040;stroke-width:1.5;"/><polygon fill="#404040" points="1514.9,213.7617,1505.9,209.7617,1509.9,213.7617,1505.9,217.7617,1514.9,213.7617" style="stroke:#404040;stroke-width:1.5;stroke-linejoin:miter;stroke-miterlimit:10;"/></g><!--link Embeddings to Qdrant--><g class="link" data-entity-1="ent0008" data-entity-2="ent0011" data-link-type="dependency" data-source-line="105" id="lnk32"><path d="M1349,200.7517 C1349,173.7417 1349,128.2617 1349,128.2617 C1349,128.2617 1449.94,128.2617 1515.94,128.2617" fill="none" id="Embeddings-to-Qdrant" style="stroke:#404040;stroke-width:1.5;"/><polygon fill="#404040" points="1520.94,128.2617,1511.94,124.2617,1515.94,128.2617,1511.94,132.2617,1520.94,128.2617" style="stroke:#404040;stroke-width:1.5;stroke-linejoin:miter;stroke-miterlimit:10;"/></g><!--link Qdrant to Auth--><g class="link" data-entity-1="ent0011" data-entity-2="ent0013" data-link-type="dependency" data-source-line="107" id="lnk33"><path d="M1624.06,128.2617 C1651.54,128.2617 1680.64,128.2617 1709.93,128.2617" fill="none" id="Qdrant-to-Auth" style="stroke:#404040;stroke-width:1.5;"/><polygon fill="#404040" points="1714.93,128.2617,1705.93,124.2617,1709.93,128.2617,1705.93,132.2617,1714.93,128.2617" style="stroke:#404040;stroke-width:1.5;stroke-linejoin:miter;stroke-miterlimit:10;"/></g><!--link Auth to Context--><g class="link" data-entity-1="ent0013" data-entity-2="ent0014" data-link-type="dependency" data-source-line="109" id="lnk34"><path d="M1845.03,128.2617 C1864.06,128.2617 1880.05,128.2617 1899.76,128.2617" fill="none" id="Auth-to-Context" style="stroke:#404040;stroke-width:1.5;"/><polygon fill="#404040" points="1904.76,128.2617,1895.76,124.2617,1899.76,128.2617,1895.76,132.2617,1904.76,128.2617" style="stroke:#404040;stroke-width:1.5;stroke-linejoin:miter;stroke-miterlimit:10;"/></g><!--link Context to QueryEmbedding--><g class="link" data-entity-1="ent0014" data-entity-2="ent0015" data-link-type="dependency" data-source-line="111" id="lnk35"><path d="M2059.26,128.2617 C2078.34,128.2617 2094,128.2617 2113.85,128.2617" fill="none" id="Context-to-QueryEmbedding" style="stroke:#404040;stroke-width:1.5;"/><polygon fill="#404040" points="2118.85,128.2617,2109.85,124.2617,2113.85,128.2617,2109.85,132.2617,2118.85,128.2617" style="stroke:#404040;stroke-width:1.5;stroke-linejoin:miter;stroke-miterlimit:10;"/></g><!--link QueryEmbedding to Search--><g class="link" data-entity-1="ent0015" data-entity-2="ent0016" data-link-type="dependency" data-source-line="113" id="lnk36"><path d="M2311.24,128.2617 C2331.7,128.2617 2347.59,128.2617 2365.74,128.2617" fill="none" id="QueryEmbedding-to-Search" style="stroke:#404040;stroke-width:1.5;"/><polygon fill="#404040" points="2370.74,128.2617,2361.74,124.2617,2365.74,128.2617,2361.74,132.2617,2370.74,128.2617" style="stroke:#404040;stroke-width:1.5;stroke-linejoin:miter;stroke-miterlimit:10;"/></g><!--link Search to Filter--><g class="link" data-entity-1="ent0016" data-entity-2="ent0017" data-link-type="dependency" data-source-line="115" id="lnk37"><path d="M2477.37,128.2617 C2496.08,128.2617 2512.32,128.2617 2531.97,128.2617" fill="none" id="Search-to-Filter" style="stroke:#404040;stroke-width:1.5;"/><polygon fill="#404040" points="2536.97,128.2617,2527.97,124.2617,2531.97,128.2617,2527.97,132.2617,2536.97,128.2617" style="stroke:#404040;stroke-width:1.5;stroke-linejoin:miter;stroke-miterlimit:10;"/></g><!--link Filter to Rerank--><g class="link" data-entity-1="ent0017" data-entity-2="ent0018" data-link-type="dependency" data-source-line="117" id="lnk38"><path d="M2670.17,128.2617 C2689.02,128.2617 2704.81,128.2617 2724.67,128.2617" fill="none" id="Filter-to-Rerank" style="stroke:#404040;stroke-width:1.5;"/><polygon fill="#404040" points="2729.67,128.2617,2720.67,124.2617,2724.67,128.2617,2720.67,132.2617,2729.67,128.2617" style="stroke:#404040;stroke-width:1.5;stroke-linejoin:miter;stroke-miterlimit:10;"/></g><!--link Rerank to BuildContext--><g class="link" data-entity-1="ent0018" data-entity-2="ent0019" data-link-type="dependency" data-source-line="119" id="lnk39"><path d="M2904.28,128.2617 C2924.31,128.2617 2940.16,128.2617 2958.73,128.2617" fill="none" id="Rerank-to-BuildContext" style="stroke:#404040;stroke-width:1.5;"/><polygon fill="#404040" points="2963.73,128.2617,2954.73,124.2617,2958.73,128.2617,2954.73,132.2617,2963.73,128.2617" style="stroke:#404040;stroke-width:1.5;stroke-linejoin:miter;stroke-miterlimit:10;"/></g><!--link BuildContext to Gemini--><g class="link" data-entity-1="ent0019" data-entity-2="ent0020" data-link-type="dependency" data-source-line="121" id="lnk40"><path d="M3083.04,128.2617 C3101.98,128.2617 3118.09,128.2617 3137.68,128.2617" fill="none" id="BuildContext-to-Gemini" style="stroke:#404040;stroke-width:1.5;"/><polygon fill="#404040" points="3142.68,128.2617,3133.68,124.2617,3137.68,128.2617,3133.68,132.2617,3142.68,128.2617" style="stroke:#404040;stroke-width:1.5;stroke-linejoin:miter;stroke-miterlimit:10;"/></g><!--link Gemini to ValidateResponse--><g class="link" data-entity-1="ent0020" data-entity-2="ent0021" data-link-type="dependency" data-source-line="123" id="lnk41"><path d="M3282.02,128.2617 C3301.3,128.2617 3317.29,128.2617 3336.76,128.2617" fill="none" id="Gemini-to-ValidateResponse" style="stroke:#404040;stroke-width:1.5;"/><polygon fill="#404040" points="3341.76,128.2617,3332.76,124.2617,3336.76,128.2617,3332.76,132.2617,3341.76,128.2617" style="stroke:#404040;stroke-width:1.5;stroke-linejoin:miter;stroke-miterlimit:10;"/></g><!--link ValidateResponse to Audit--><g class="link" data-entity-1="ent0021" data-entity-2="ent0022" data-link-type="dependency" data-source-line="125" id="lnk42"><path d="M3487.14,128.2617 C3506.98,128.2617 3523.13,128.2617 3541.76,128.2617" fill="none" id="ValidateResponse-to-Audit" style="stroke:#404040;stroke-width:1.5;"/><polygon fill="#404040" points="3546.76,128.2617,3537.76,124.2617,3541.76,128.2617,3537.76,132.2617,3546.76,128.2617" style="stroke:#404040;stroke-width:1.5;stroke-linejoin:miter;stroke-miterlimit:10;"/></g><!--link Audit to Response--><g class="link" data-entity-1="ent0022" data-entity-2="ent0023" data-link-type="dependency" data-source-line="127" id="lnk43"><path d="M3655.24,128.2617 C3674.13,128.2617 3690.46,128.2617 3709.93,128.2617" fill="none" id="Audit-to-Response" style="stroke:#404040;stroke-width:1.5;"/><polygon fill="#404040" points="3714.93,128.2617,3705.93,124.2617,3709.93,128.2617,3705.93,132.2617,3714.93,128.2617" style="stroke:#404040;stroke-width:1.5;stroke-linejoin:miter;stroke-miterlimit:10;"/></g><?plantuml-src hLHTJzim57tFh_3O0zi34qpiSPDA2QK2-f40qwIzcEGsiUhQaUrGkcd_VVw8apWgFAnhfFhwtkFhQz_ZeuYYW6AcG5I2I42ZAPgBh0If15Q4CxIWMAsus4JAGYzgIHX8YHQ2PsQymrKKlLCbR01L51CMHHHM2YcE12bAXN8Y83EfeaYk2Qkmm1lqXBDr8NZDyZ6dNA1jIHJquhB4ETyILg0Lfh8VeNfxjQi0SQ5AtWjKEYKk85KxNQRP4hE2Gd_J75QufkgACpN3kjmK2WxeOReVaf9VWCxE-maId_M2Yno4A_tz-QdvNeVTboHRspix-_Hb7onnzo0O27HssjzmuSxqzdO1gDliSp_HI0Y-VIs13OPLHiTV__KN7QERsVpxRNmvYT5qDedJ--byXXR9V1odwI69ewR5wEY6yIs5N9jJLcYkMg8wGXwXtr7KjXyTwLi6yXnm_99dzGQOqbWiKGC85ZrYIdAiD4LuBJAmEEyBW3vLLuV5jhC0FDQiCjZuHJ-kh0Ktqm1w1mhhpV0Gw_rXth9cQpG1pH_S8grJFw006M-U8C_DingWsu0CyAdYedTVFzc72UScCgQypf49wtvyj2acutJFMb-mNdgbXK0QfyEtqpsh7hM32xFVCXUOARV2sL7qvq1wQerRFiJ9Z__BIPrr92MH2dBKyJC19GWyOphavQZMciaKoGpD7YG8UqJZ7T3NhjStNcA5B8DUb6kmimDqqrL0onh4hkkgkpxZQrt1kklTao2wdu2rzbkmC_TpyefG_PPyMZSB2Icurf6OPLmhahu2tRQrXxjP0B-e2SrDL_h7iyutpvY0h3YJO5W96y98mqDh3oxH8VqRzgptJzh71mtAYKAtl2XywTOpx4ujM5j9Sq2Vx52U9l7jo6XdUZrT74PIBu8d9zzwEjQgd77t9AlJL1DevQanhBFJePOLnjs9ZhTSYfwwTBODMTKO-7hAC8Xu1N2ZTRaNO_vT1PunZU6M3PWVpYt4yzsDJHcEs6wqBazUDrfNoDF-p9slOQCRWmPqH1bwceDPjZaQkiqR_5y0?></g></svg>