<svg xmlns="http://www.w3.org/2000/svg" xmlns:xlink="http://www.w3.org/1999/xlink" contentStyleType="text/css" data-diagram-type="STATE" height="1456px" preserveAspectRatio="none" style="width:435px;height:1456px;background:#FFFFFF;" version="1.1" viewBox="0 0 435 1456" width="435px" zoomAndPan="magnify"><?plantuml 1.2026.6?><defs/><g><g class="title" data-source-line="1"><text fill="#000000" font-family="sans-serif" font-size="14" font-weight="700" lengthAdjust="spacing" textLength="230.2959" x="99.0325" y="24.5332">Document Lifecycle State Diagram</text></g><g class="start_entity" data-qualified-name=".start." data-source-line="10" id="ent0001"><ellipse cx="282" cy="54.6094" fill="#222222" rx="10" ry="10" style="stroke:#222222;stroke-width:1;"/></g><g class="entity" data-qualified-name="Uploaded" data-source-line="10" id="ent0002"><rect fill="#FFFFFF" height="50" rx="12.5" ry="12.5" style="stroke:#000000;stroke-width:0.5;" width="79.9375" x="242" y="125.6094"/><line style="stroke:#000000;stroke-width:0.5;" x1="242" x2="321.9375" y1="153.2188" y2="153.2188"/><text fill="#000000" font-family="sans-serif" font-size="14" lengthAdjust="spacing" textLength="59.9375" x="252" y="145.1426">Uploaded</text></g><g class="entity" data-qualified-name="Registered" data-source-line="12" id="ent0004"><rect fill="#FFFFFF" height="50" rx="12.5" ry="12.5" style="stroke:#000000;stroke-width:0.5;" width="87.7031" x="238" y="253.6094"/><line style="stroke:#000000;stroke-width:0.5;" x1="238" x2="325.7031" y1="281.2188" y2="281.2188"/><text fill="#000000" font-family="sans-serif" font-size="14" lengthAdjust="spacing" textLength="67.7031" x="248" y="273.1426">Registered</text></g><g class="entity" data-qualified-name="Validating" data-source-line="14" id="ent0006"><rect fill="#FFFFFF" height="50" rx="12.5" ry="12.5" style="stroke:#000000;stroke-width:0.5;" width="81.4893" x="241.5" y="381.6094"/><line style="stroke:#000000;stroke-width:0.5;" x1="241.5" x2="322.9893" y1="409.2188" y2="409.2188"/><text fill="#000000" font-family="sans-serif" font-size="14" lengthAdjust="spacing" textLength="61.4893" x="251.5" y="401.1426">Validating</text></g><g class="entity" data-qualified-name="Processing" data-source-line="16" id="ent0008"><rect fill="#FFFFFF" height="50" rx="12.5" ry="12.5" style="stroke:#000000;stroke-width:0.5;" width="89.2549" x="142.5" y="509.6094"/><line style="stroke:#000000;stroke-width:0.5;" x1="142.5" x2="231.7549" y1="537.2188" y2="537.2188"/><text fill="#000000" font-family="sans-serif" font-size="14" lengthAdjust="spacing" textLength="69.2549" x="152.5" y="529.1426">Processing</text></g><g class="entity" data-qualified-name="Rejected" data-source-line="17" id="ent0010"><rect fill="#FFFFFF" height="50" rx="12.5" ry="12.5" style="stroke:#000000;stroke-width:0.5;" width="75.2549" x="334.5" y="589.6094"/><line style="stroke:#000000;stroke-width:0.5;" x1="334.5" x2="409.7549" y1="617.2188" y2="617.2188"/><text fill="#000000" font-family="sans-serif" font-size="14" lengthAdjust="spacing" textLength="55.2549" x="344.5" y="609.1426">Rejected</text></g><g class="entity" data-qualified-name="Chunking" data-source-line="19" id="ent0012"><rect fill="#FFFFFF" height="50" rx="12.5" ry="12.5" style="stroke:#000000;stroke-width:0.5;" width="79.1514" x="147.5" y="669.6094"/><line style="stroke:#000000;stroke-width:0.5;" x1="147.5" x2="226.6514" y1="697.2188" y2="697.2188"/><text fill="#000000" font-family="sans-serif" font-size="14" lengthAdjust="spacing" textLength="59.1514" x="157.5" y="689.1426">Chunking</text></g><g class="entity" data-qualified-name="Embedding" data-source-line="21" id="ent0014"><rect fill="#FFFFFF" height="50" rx="12.5" ry="12.5" style="stroke:#000000;stroke-width:0.5;" width="90.8271" x="141.5" y="797.6094"/><line style="stroke:#000000;stroke-width:0.5;" x1="141.5" x2="232.3271" y1="825.2188" y2="825.2188"/><text fill="#000000" font-family="sans-serif" font-size="14" lengthAdjust="spacing" textLength="70.8271" x="151.5" y="817.1426">Embedding</text></g><g class="entity" data-qualified-name="Indexed" data-source-line="23" id="ent0016"><rect fill="#FFFFFF" height="50" rx="12.5" ry="12.5" style="stroke:#000000;stroke-width:0.5;" width="69.8203" x="152" y="925.6094"/><line style="stroke:#000000;stroke-width:0.5;" x1="152" x2="221.8203" y1="953.2188" y2="953.2188"/><text fill="#000000" font-family="sans-serif" font-size="14" lengthAdjust="spacing" textLength="49.8203" x="162" y="945.1426">Indexed</text></g><g class="entity" data-qualified-name="Available" data-source-line="25" id="ent0018"><rect fill="#FFFFFF" height="50" rx="12.5" ry="12.5" style="stroke:#000000;stroke-width:0.5;" width="76.8135" x="148.5" y="1053.6094"/><line style="stroke:#000000;stroke-width:0.5;" x1="148.5" x2="225.3135" y1="1081.2188" y2="1081.2188"/><text fill="#000000" font-family="sans-serif" font-size="14" lengthAdjust="spacing" textLength="56.8135" x="158.5" y="1073.1426">Available</text></g><g class="entity" data-qualified-name="Updating" data-source-line="27" id="ent0020"><rect fill="#FFFFFF" height="50" rx="12.5" ry="12.5" style="stroke:#000000;stroke-width:0.5;" width="76.041" x="7" y="1181.6094"/><line style="stroke:#000000;stroke-width:0.5;" x1="7" x2="83.041" y1="1209.2188" y2="1209.2188"/><text fill="#000000" font-family="sans-serif" font-size="14" lengthAdjust="spacing" textLength="56.041" x="17" y="1201.1426">Updating</text></g><g class="entity" data-qualified-name="Archived" data-source-line="30" id="ent0023"><rect fill="#FFFFFF" height="50" rx="12.5" ry="12.5" style="stroke:#000000;stroke-width:0.5;" width="74.4688" x="204" y="1181.6094"/><line style="stroke:#000000;stroke-width:0.5;" x1="204" x2="278.4688" y1="1209.2188" y2="1209.2188"/><text fill="#000000" font-family="sans-serif" font-size="14" lengthAdjust="spacing" textLength="54.4688" x="214" y="1201.1426">Archived</text></g><g class="entity" data-qualified-name="Deleted" data-source-line="32" id="ent0025"><rect fill="#FFFFFF" height="50" rx="12.5" ry="12.5" style="stroke:#000000;stroke-width:0.5;" width="68.2549" x="272" y="1309.6094"/><line style="stroke:#000000;stroke-width:0.5;" x1="272" x2="340.2549" y1="1337.2188" y2="1337.2188"/><text fill="#000000" font-family="sans-serif" font-size="14" lengthAdjust="spacing" textLength="48.2549" x="282" y="1329.1426">Deleted</text></g><g class="end_entity" data-qualified-name=".end." data-source-line="36" id="ent0028"><ellipse cx="306" cy="1431.6094" fill="none" rx="11" ry="11" style="stroke:#222222;stroke-width:1;"/><ellipse cx="306" cy="1431.6094" fill="#222222" rx="6" ry="6" style="stroke:#222222;stroke-width:1;"/></g><!--link *start* to Uploaded--><g class="link" data-entity-1="ent0001" data-entity-2="ent0002" data-link-type="dependency" data-source-line="10" id="lnk3"><path d="M282,64.6194 C282,78.4994 282,100.5794 282,120.4494" fill="none" id="*start*-to-Uploaded" style="stroke:#000000;stroke-width:1;"/><polygon fill="#000000" points="282,125.4494,286,116.4494,282,120.4494,278,116.4494,282,125.4494" style="stroke:#000000;stroke-width:1;stroke-linejoin:miter;stroke-miterlimit:10;"/></g><!--link Uploaded to Registered--><g class="link" data-entity-1="ent0002" data-entity-2="ent0004" data-link-type="dependency" data-source-line="12" id="lnk5"><path d="M282,175.8994 C282,198.2194 282,226.0994 282,248.3894" fill="none" id="Uploaded-to-Registered" style="stroke:#000000;stroke-width:1;"/><polygon fill="#000000" points="282,253.3894,286,244.3894,282,248.3894,278,244.3894,282,253.3894" style="stroke:#000000;stroke-width:1;stroke-linejoin:miter;stroke-miterlimit:10;"/><text fill="#000000" font-family="sans-serif" font-size="13" lengthAdjust="spacing" textLength="96.1162" x="283" y="220.1045">Metadata Stored</text></g><!--link Registered to Validating--><g class="link" data-entity-1="ent0004" data-entity-2="ent0006" data-link-type="dependency" data-source-line="14" id="lnk7"><path d="M282,303.8994 C282,326.2194 282,354.0994 282,376.3894" fill="none" id="Registered-to-Validating" style="stroke:#000000;stroke-width:1;"/><polygon fill="#000000" points="282,381.3894,286,372.3894,282,376.3894,278,372.3894,282,381.3894" style="stroke:#000000;stroke-width:1;stroke-linejoin:miter;stroke-miterlimit:10;"/><text fill="#000000" font-family="sans-serif" font-size="13" lengthAdjust="spacing" textLength="109.8398" x="283" y="348.1045">Validate Document</text></g><!--link Validating to Processing--><g class="link" data-entity-1="ent0006" data-entity-2="ent0008" data-link-type="dependency" data-source-line="16" id="lnk9"><path d="M246.7,431.7894 C236.13,440.2894 225.19,450.5194 217,461.6094 C206.38,475.9894 200.3231,489.9366 195.4031,504.6766" fill="none" id="Validating-to-Processing" style="stroke:#000000;stroke-width:1;"/><polygon fill="#000000" points="193.82,509.4194,200.4637,502.1488,195.4031,504.6766,192.8753,499.6159,193.82,509.4194" style="stroke:#000000;stroke-width:1;stroke-linejoin:miter;stroke-miterlimit:10;"/><text fill="#000000" font-family="sans-serif" font-size="13" lengthAdjust="spacing" textLength="104.0698" x="218" y="476.1045">Validation Passed</text></g><!--link Validating to Rejected--><g class="link" data-entity-1="ent0006" data-entity-2="ent0010" data-link-type="dependency" data-source-line="17" id="lnk11"><path d="M305.82,431.8794 C313.44,440.6794 321.36,451.0694 327,461.6094 C349.53,503.7094 361.2668,553.6453 367.0868,584.6253" fill="none" id="Validating-to-Rejected" style="stroke:#000000;stroke-width:1;"/><polygon fill="#000000" points="368.01,589.5394,370.2795,579.9556,367.0868,584.6253,362.4171,581.4326,368.01,589.5394" style="stroke:#000000;stroke-width:1;stroke-linejoin:miter;stroke-miterlimit:10;"/><text fill="#000000" font-family="sans-serif" font-size="13" lengthAdjust="spacing" textLength="82.3608" x="337" y="476.1045">Invalid Format</text></g><!--link Processing to Chunking--><g class="link" data-entity-1="ent0008" data-entity-2="ent0012" data-link-type="dependency" data-source-line="19" id="lnk13"><path d="M187,559.9494 C187,589.7294 187,634.8294 187,664.4994" fill="none" id="Processing-to-Chunking" style="stroke:#000000;stroke-width:1;"/><polygon fill="#000000" points="187,669.4994,191,660.4994,187,664.4994,183,660.4994,187,669.4994" style="stroke:#000000;stroke-width:1;stroke-linejoin:miter;stroke-miterlimit:10;"/><text fill="#000000" font-family="sans-serif" font-size="13" lengthAdjust="spacing" textLength="96.8208" x="188" y="620.1045">Parse Document</text></g><!--link Chunking to Embedding--><g class="link" data-entity-1="ent0012" data-entity-2="ent0014" data-link-type="dependency" data-source-line="21" id="lnk15"><path d="M187,719.8994 C187,742.2194 187,770.0994 187,792.3894" fill="none" id="Chunking-to-Embedding" style="stroke:#000000;stroke-width:1;"/><polygon fill="#000000" points="187,797.3894,191,788.3894,187,792.3894,183,788.3894,187,797.3894" style="stroke:#000000;stroke-width:1;stroke-linejoin:miter;stroke-miterlimit:10;"/><text fill="#000000" font-family="sans-serif" font-size="13" lengthAdjust="spacing" textLength="130.0825" x="188" y="764.1045">Generate Embeddings</text></g><!--link Embedding to Indexed--><g class="link" data-entity-1="ent0014" data-entity-2="ent0016" data-link-type="dependency" data-source-line="23" id="lnk17"><path d="M187,847.8994 C187,870.2194 187,898.0994 187,920.3894" fill="none" id="Embedding-to-Indexed" style="stroke:#000000;stroke-width:1;"/><polygon fill="#000000" points="187,925.3894,191,916.3894,187,920.3894,183,916.3894,187,925.3894" style="stroke:#000000;stroke-width:1;stroke-linejoin:miter;stroke-miterlimit:10;"/><text fill="#000000" font-family="sans-serif" font-size="13" lengthAdjust="spacing" textLength="88.1563" x="188" y="892.1045">Store in Qdrant</text></g><!--link Indexed to Available--><g class="link" data-entity-1="ent0016" data-entity-2="ent0018" data-link-type="dependency" data-source-line="25" id="lnk19"><path d="M187,975.8994 C187,998.2194 187,1026.0994 187,1048.3894" fill="none" id="Indexed-to-Available" style="stroke:#000000;stroke-width:1;"/><polygon fill="#000000" points="187,1053.3894,191,1044.3894,187,1048.3894,183,1044.3894,187,1053.3894" style="stroke:#000000;stroke-width:1;stroke-linejoin:miter;stroke-miterlimit:10;"/><text fill="#000000" font-family="sans-serif" font-size="13" lengthAdjust="spacing" textLength="101.1626" x="188" y="1020.1045">Ready for Search</text></g><!--link Available to Updating--><g class="link" data-entity-1="ent0018" data-entity-2="ent0020" data-link-type="dependency" data-source-line="27" id="lnk21"><path d="M148.42,1088.6194 C122.68,1096.4894 89.85,1110.3894 69,1133.6094 C57.12,1146.8494 52.065,1161.2354 49.025,1176.5254" fill="none" id="Available-to-Updating" style="stroke:#000000;stroke-width:1;"/><polygon fill="#000000" points="48.05,1181.4294,53.7283,1173.3822,49.025,1176.5254,45.8818,1171.8221,48.05,1181.4294" style="stroke:#000000;stroke-width:1;stroke-linejoin:miter;stroke-miterlimit:10;"/><text fill="#000000" font-family="sans-serif" font-size="13" lengthAdjust="spacing" textLength="132.9644" x="70" y="1148.1045">New Version Uploaded</text></g><!--link Updating to Processing--><g class="link" data-entity-1="ent0020" data-entity-2="ent0008" data-link-type="dependency" data-source-line="28" id="lnk22"><path d="M35.98,1181.3594 C27.47,1156.2694 16,1115.7494 16,1079.6094 C16,693.6094 16,693.6094 16,693.6094 C16,624.8994 86.8883,579.9035 137.5483,555.9935" fill="none" id="Updating-to-Processing" style="stroke:#000000;stroke-width:1;"/><polygon fill="#000000" points="142.07,553.8594,132.2237,554.0834,137.5483,555.9935,135.6382,561.3181,142.07,553.8594" style="stroke:#000000;stroke-width:1;stroke-linejoin:miter;stroke-miterlimit:10;"/><text fill="#000000" font-family="sans-serif" font-size="13" lengthAdjust="spacing" textLength="118.498" x="17" y="892.1045">Re-ingest Document</text></g><!--link Available to Archived--><g class="link" data-entity-1="ent0018" data-entity-2="ent0023" data-link-type="dependency" data-source-line="30" id="lnk24"><path d="M197.41,1103.8994 C206.97,1126.2194 219.1009,1154.5034 228.6509,1176.7934" fill="none" id="Available-to-Archived" style="stroke:#000000;stroke-width:1;"/><polygon fill="#000000" points="230.62,1181.3894,230.7524,1171.5414,228.6509,1176.7934,223.3989,1174.692,230.62,1181.3894" style="stroke:#000000;stroke-width:1;stroke-linejoin:miter;stroke-miterlimit:10;"/><text fill="#000000" font-family="sans-serif" font-size="13" lengthAdjust="spacing" textLength="93.939" x="219" y="1148.1045">Retention Policy</text></g><!--link Archived to Deleted--><g class="link" data-entity-1="ent0023" data-entity-2="ent0025" data-link-type="dependency" data-source-line="32" id="lnk26"><path d="M231.31,1231.8194 C227.06,1246.3894 224.52,1264.8994 232,1279.6094 C240.43,1296.1994 252.3045,1306.3572 267.3945,1315.2672" fill="none" id="Archived-to-Deleted" style="stroke:#000000;stroke-width:1;"/><polygon fill="#000000" points="271.7,1317.8094,265.9839,1309.789,267.3945,1315.2672,261.9164,1316.6778,271.7,1317.8094" style="stroke:#000000;stroke-width:1;stroke-linejoin:miter;stroke-miterlimit:10;"/><text fill="#000000" font-family="sans-serif" font-size="13" lengthAdjust="spacing" textLength="118.498" x="233" y="1276.1045">Permanent Removal</text></g><!--link Rejected to Deleted--><g class="link" data-entity-1="ent0010" data-entity-2="ent0025" data-link-type="dependency" data-source-line="34" id="lnk27"><path d="M373.64,639.7194 C375.42,667.9594 378,716.1594 378,757.6094 C378,757.6094 378,757.6094 378,1207.6094 C378,1241.0694 372.68,1250.5994 356,1279.6094 C349.82,1290.3494 344.6167,1297.1063 336.2267,1305.8263" fill="none" id="Rejected-to-Deleted" style="stroke:#000000;stroke-width:1;"/><polygon fill="#000000" points="332.76,1309.4294,341.8825,1305.7172,336.2267,1305.8263,336.1176,1300.1705,332.76,1309.4294" style="stroke:#000000;stroke-width:1;stroke-linejoin:miter;stroke-miterlimit:10;"/></g><!--link Deleted to *end*--><g class="link" data-entity-1="ent0025" data-entity-2="ent0028" data-link-type="dependency" data-source-line="36" id="lnk29"><path d="M306,1360.0694 C306,1379.6494 306,1401.0994 306,1415.4094" fill="none" id="Deleted-to-*end*" style="stroke:#000000;stroke-width:1;"/><polygon fill="#000000" points="306,1420.4094,310,1411.4094,306,1415.4094,302,1411.4094,306,1420.4094" style="stroke:#000000;stroke-width:1;stroke-linejoin:miter;stroke-miterlimit:10;"/></g><?plantuml-src PPBFJWCX4CRlynISJVe2FPZqZvecQkesreFnC8NfBfQ51cXhOtnt1zRTedA2x_in31z47Gs9kPE7bcmKztfByYnPMaMCR6YiFRO0OQVj7dagGeFAdRIjnHPDeDB9Mpv1y9YYtDNU7QoQEUEyU6bqfCvnNf7lrAbXBAiJxzsf5By0Ng_Un6XqBPxtng4Y1T3FibnHhKCapyknUA282YDotyudj70Jl4QZsKzjZ_l5vTu0XP_mfNUIGlY5QsV54aFWwd_eYjv9njp7mXwJ9swTRv7h5eKIEMiETjTLNQ8FPGU3bRYRTaDATU0TMVAfsq4C01SWuGkhw2EVdwylj1LFocCgsri9cnnH6zpmwuwvPrHdiUMyLuHUDW0NjmjzYEkHJc9DFgG0XhSO_7znLJJY2OLONEvtxGcVfu-vtueY0pbQPxGyCzgRYPoJeIxO9N6WDltHYbh78QSd_ecz807wBKda7mJV?></g></svg>